<?xml version="1.0" encoding="utf-8"?>
<!-- Generator: Adobe Illustrator 16.0.3, SVG Export Plug-In . SVG Version: 6.00 Build 0)  -->
<!DOCTYPE svg PUBLIC "-//W3C//DTD SVG 1.1//EN" "http://www.w3.org/Graphics/SVG/1.1/DTD/svg11.dtd">
<svg version="1.1" id="Layer_1" xmlns="http://www.w3.org/2000/svg" xmlns:xlink="http://www.w3.org/1999/xlink" x="0px" y="0px"
	 width="560px" height="420px" viewBox="0 0 560 420" enable-background="new 0 0 560 420" xml:space="preserve">
<g>
	
		<line fill="none" stroke="#262626" stroke-linecap="square" stroke-linejoin="round" stroke-miterlimit="10" x1="73" y1="374" x2="507" y2="374"/>
	
		<line fill="none" stroke="#262626" stroke-linecap="square" stroke-linejoin="round" stroke-miterlimit="10" x1="73" y1="31" x2="507" y2="31"/>
	
		<line fill="none" stroke="#262626" stroke-linecap="square" stroke-linejoin="round" stroke-miterlimit="10" x1="101.389" y1="374" x2="101.389" y2="369.66"/>
	
		<line fill="none" stroke="#262626" stroke-linecap="square" stroke-linejoin="round" stroke-miterlimit="10" x1="195.694" y1="374" x2="195.694" y2="369.66"/>
	
		<line fill="none" stroke="#262626" stroke-linecap="square" stroke-linejoin="round" stroke-miterlimit="10" x1="290" y1="374" x2="290" y2="369.66"/>
	
		<line fill="none" stroke="#262626" stroke-linecap="square" stroke-linejoin="round" stroke-miterlimit="10" x1="384.306" y1="374" x2="384.306" y2="369.66"/>
	
		<line fill="none" stroke="#262626" stroke-linecap="square" stroke-linejoin="round" stroke-miterlimit="10" x1="478.611" y1="374" x2="478.611" y2="369.66"/>
	
		<line fill="none" stroke="#262626" stroke-linecap="square" stroke-linejoin="round" stroke-miterlimit="10" x1="101.389" y1="31" x2="101.389" y2="35.34"/>
	
		<line fill="none" stroke="#262626" stroke-linecap="square" stroke-linejoin="round" stroke-miterlimit="10" x1="195.694" y1="31" x2="195.694" y2="35.34"/>
	
		<line fill="none" stroke="#262626" stroke-linecap="square" stroke-linejoin="round" stroke-miterlimit="10" x1="290" y1="31" x2="290" y2="35.34"/>
	
		<line fill="none" stroke="#262626" stroke-linecap="square" stroke-linejoin="round" stroke-miterlimit="10" x1="384.306" y1="31" x2="384.306" y2="35.34"/>
	
		<line fill="none" stroke="#262626" stroke-linecap="square" stroke-linejoin="round" stroke-miterlimit="10" x1="478.611" y1="31" x2="478.611" y2="35.34"/>
	
		<line fill="none" stroke="#262626" stroke-linecap="square" stroke-linejoin="round" stroke-miterlimit="10" x1="73" y1="374" x2="73" y2="371.83"/>
	
		<line fill="none" stroke="#262626" stroke-linecap="square" stroke-linejoin="round" stroke-miterlimit="10" x1="80.467" y1="374" x2="80.467" y2="371.83"/>
	
		<line fill="none" stroke="#262626" stroke-linecap="square" stroke-linejoin="round" stroke-miterlimit="10" x1="86.781" y1="374" x2="86.781" y2="371.83"/>
	
		<line fill="none" stroke="#262626" stroke-linecap="square" stroke-linejoin="round" stroke-miterlimit="10" x1="92.25" y1="374" x2="92.25" y2="371.83"/>
	
		<line fill="none" stroke="#262626" stroke-linecap="square" stroke-linejoin="round" stroke-miterlimit="10" x1="97.074" y1="374" x2="97.074" y2="371.83"/>
	
		<line fill="none" stroke="#262626" stroke-linecap="square" stroke-linejoin="round" stroke-miterlimit="10" x1="101.389" y1="374" x2="101.389" y2="371.83"/>
	
		<line fill="none" stroke="#262626" stroke-linecap="square" stroke-linejoin="round" stroke-miterlimit="10" x1="129.777" y1="374" x2="129.777" y2="371.83"/>
	
		<line fill="none" stroke="#262626" stroke-linecap="square" stroke-linejoin="round" stroke-miterlimit="10" x1="146.384" y1="374" x2="146.384" y2="371.83"/>
	
		<line fill="none" stroke="#262626" stroke-linecap="square" stroke-linejoin="round" stroke-miterlimit="10" x1="158.167" y1="374" x2="158.167" y2="371.83"/>
	
		<line fill="none" stroke="#262626" stroke-linecap="square" stroke-linejoin="round" stroke-miterlimit="10" x1="167.306" y1="374" x2="167.306" y2="371.83"/>
	
		<line fill="none" stroke="#262626" stroke-linecap="square" stroke-linejoin="round" stroke-miterlimit="10" x1="174.773" y1="374" x2="174.773" y2="371.83"/>
	
		<line fill="none" stroke="#262626" stroke-linecap="square" stroke-linejoin="round" stroke-miterlimit="10" x1="181.086" y1="374" x2="181.086" y2="371.83"/>
	
		<line fill="none" stroke="#262626" stroke-linecap="square" stroke-linejoin="round" stroke-miterlimit="10" x1="186.555" y1="374" x2="186.555" y2="371.83"/>
	
		<line fill="none" stroke="#262626" stroke-linecap="square" stroke-linejoin="round" stroke-miterlimit="10" x1="191.379" y1="374" x2="191.379" y2="371.83"/>
	
		<line fill="none" stroke="#262626" stroke-linecap="square" stroke-linejoin="round" stroke-miterlimit="10" x1="195.694" y1="374" x2="195.694" y2="371.83"/>
	
		<line fill="none" stroke="#262626" stroke-linecap="square" stroke-linejoin="round" stroke-miterlimit="10" x1="224.083" y1="374" x2="224.083" y2="371.83"/>
	
		<line fill="none" stroke="#262626" stroke-linecap="square" stroke-linejoin="round" stroke-miterlimit="10" x1="240.689" y1="374" x2="240.689" y2="371.83"/>
	
		<line fill="none" stroke="#262626" stroke-linecap="square" stroke-linejoin="round" stroke-miterlimit="10" x1="252.472" y1="374" x2="252.472" y2="371.83"/>
	
		<line fill="none" stroke="#262626" stroke-linecap="square" stroke-linejoin="round" stroke-miterlimit="10" x1="261.611" y1="374" x2="261.611" y2="371.83"/>
	
		<line fill="none" stroke="#262626" stroke-linecap="square" stroke-linejoin="round" stroke-miterlimit="10" x1="269.078" y1="374" x2="269.078" y2="371.83"/>
	
		<line fill="none" stroke="#262626" stroke-linecap="square" stroke-linejoin="round" stroke-miterlimit="10" x1="275.392" y1="374" x2="275.392" y2="371.83"/>
	
		<line fill="none" stroke="#262626" stroke-linecap="square" stroke-linejoin="round" stroke-miterlimit="10" x1="280.861" y1="374" x2="280.861" y2="371.83"/>
	
		<line fill="none" stroke="#262626" stroke-linecap="square" stroke-linejoin="round" stroke-miterlimit="10" x1="285.685" y1="374" x2="285.685" y2="371.83"/>
	
		<line fill="none" stroke="#262626" stroke-linecap="square" stroke-linejoin="round" stroke-miterlimit="10" x1="290" y1="374" x2="290" y2="371.83"/>
	
		<line fill="none" stroke="#262626" stroke-linecap="square" stroke-linejoin="round" stroke-miterlimit="10" x1="318.389" y1="374" x2="318.389" y2="371.83"/>
	
		<line fill="none" stroke="#262626" stroke-linecap="square" stroke-linejoin="round" stroke-miterlimit="10" x1="334.995" y1="374" x2="334.995" y2="371.83"/>
	
		<line fill="none" stroke="#262626" stroke-linecap="square" stroke-linejoin="round" stroke-miterlimit="10" x1="346.777" y1="374" x2="346.777" y2="371.83"/>
	
		<line fill="none" stroke="#262626" stroke-linecap="square" stroke-linejoin="round" stroke-miterlimit="10" x1="355.917" y1="374" x2="355.917" y2="371.83"/>
	
		<line fill="none" stroke="#262626" stroke-linecap="square" stroke-linejoin="round" stroke-miterlimit="10" x1="363.384" y1="374" x2="363.384" y2="371.83"/>
	
		<line fill="none" stroke="#262626" stroke-linecap="square" stroke-linejoin="round" stroke-miterlimit="10" x1="369.697" y1="374" x2="369.697" y2="371.83"/>
	
		<line fill="none" stroke="#262626" stroke-linecap="square" stroke-linejoin="round" stroke-miterlimit="10" x1="375.166" y1="374" x2="375.166" y2="371.83"/>
	
		<line fill="none" stroke="#262626" stroke-linecap="square" stroke-linejoin="round" stroke-miterlimit="10" x1="379.99" y1="374" x2="379.99" y2="371.83"/>
	
		<line fill="none" stroke="#262626" stroke-linecap="square" stroke-linejoin="round" stroke-miterlimit="10" x1="384.306" y1="374" x2="384.306" y2="371.83"/>
	
		<line fill="none" stroke="#262626" stroke-linecap="square" stroke-linejoin="round" stroke-miterlimit="10" x1="412.694" y1="374" x2="412.694" y2="371.83"/>
	
		<line fill="none" stroke="#262626" stroke-linecap="square" stroke-linejoin="round" stroke-miterlimit="10" x1="429.301" y1="374" x2="429.301" y2="371.83"/>
	
		<line fill="none" stroke="#262626" stroke-linecap="square" stroke-linejoin="round" stroke-miterlimit="10" x1="441.083" y1="374" x2="441.083" y2="371.83"/>
	
		<line fill="none" stroke="#262626" stroke-linecap="square" stroke-linejoin="round" stroke-miterlimit="10" x1="450.223" y1="374" x2="450.223" y2="371.83"/>
	
		<line fill="none" stroke="#262626" stroke-linecap="square" stroke-linejoin="round" stroke-miterlimit="10" x1="457.689" y1="374" x2="457.689" y2="371.83"/>
	
		<line fill="none" stroke="#262626" stroke-linecap="square" stroke-linejoin="round" stroke-miterlimit="10" x1="464.003" y1="374" x2="464.003" y2="371.83"/>
	
		<line fill="none" stroke="#262626" stroke-linecap="square" stroke-linejoin="round" stroke-miterlimit="10" x1="469.472" y1="374" x2="469.472" y2="371.83"/>
	
		<line fill="none" stroke="#262626" stroke-linecap="square" stroke-linejoin="round" stroke-miterlimit="10" x1="474.296" y1="374" x2="474.296" y2="371.83"/>
	
		<line fill="none" stroke="#262626" stroke-linecap="square" stroke-linejoin="round" stroke-miterlimit="10" x1="478.611" y1="374" x2="478.611" y2="371.83"/>
	
		<line fill="none" stroke="#262626" stroke-linecap="square" stroke-linejoin="round" stroke-miterlimit="10" x1="478.611" y1="374" x2="478.611" y2="371.83"/>
	
		<line fill="none" stroke="#262626" stroke-linecap="square" stroke-linejoin="round" stroke-miterlimit="10" x1="507" y1="374" x2="507" y2="371.83"/>
	
		<line fill="none" stroke="#262626" stroke-linecap="square" stroke-linejoin="round" stroke-miterlimit="10" x1="73" y1="31" x2="73" y2="33.17"/>
	
		<line fill="none" stroke="#262626" stroke-linecap="square" stroke-linejoin="round" stroke-miterlimit="10" x1="80.467" y1="31" x2="80.467" y2="33.17"/>
	
		<line fill="none" stroke="#262626" stroke-linecap="square" stroke-linejoin="round" stroke-miterlimit="10" x1="86.781" y1="31" x2="86.781" y2="33.17"/>
	
		<line fill="none" stroke="#262626" stroke-linecap="square" stroke-linejoin="round" stroke-miterlimit="10" x1="92.25" y1="31" x2="92.25" y2="33.17"/>
	
		<line fill="none" stroke="#262626" stroke-linecap="square" stroke-linejoin="round" stroke-miterlimit="10" x1="97.074" y1="31" x2="97.074" y2="33.17"/>
	
		<line fill="none" stroke="#262626" stroke-linecap="square" stroke-linejoin="round" stroke-miterlimit="10" x1="101.389" y1="31" x2="101.389" y2="33.17"/>
	
		<line fill="none" stroke="#262626" stroke-linecap="square" stroke-linejoin="round" stroke-miterlimit="10" x1="129.777" y1="31" x2="129.777" y2="33.17"/>
	
		<line fill="none" stroke="#262626" stroke-linecap="square" stroke-linejoin="round" stroke-miterlimit="10" x1="146.384" y1="31" x2="146.384" y2="33.17"/>
	
		<line fill="none" stroke="#262626" stroke-linecap="square" stroke-linejoin="round" stroke-miterlimit="10" x1="158.167" y1="31" x2="158.167" y2="33.17"/>
	
		<line fill="none" stroke="#262626" stroke-linecap="square" stroke-linejoin="round" stroke-miterlimit="10" x1="167.306" y1="31" x2="167.306" y2="33.17"/>
	
		<line fill="none" stroke="#262626" stroke-linecap="square" stroke-linejoin="round" stroke-miterlimit="10" x1="174.773" y1="31" x2="174.773" y2="33.17"/>
	
		<line fill="none" stroke="#262626" stroke-linecap="square" stroke-linejoin="round" stroke-miterlimit="10" x1="181.086" y1="31" x2="181.086" y2="33.17"/>
	
		<line fill="none" stroke="#262626" stroke-linecap="square" stroke-linejoin="round" stroke-miterlimit="10" x1="186.555" y1="31" x2="186.555" y2="33.17"/>
	
		<line fill="none" stroke="#262626" stroke-linecap="square" stroke-linejoin="round" stroke-miterlimit="10" x1="191.379" y1="31" x2="191.379" y2="33.17"/>
	
		<line fill="none" stroke="#262626" stroke-linecap="square" stroke-linejoin="round" stroke-miterlimit="10" x1="195.694" y1="31" x2="195.694" y2="33.17"/>
	
		<line fill="none" stroke="#262626" stroke-linecap="square" stroke-linejoin="round" stroke-miterlimit="10" x1="224.083" y1="31" x2="224.083" y2="33.17"/>
	
		<line fill="none" stroke="#262626" stroke-linecap="square" stroke-linejoin="round" stroke-miterlimit="10" x1="240.689" y1="31" x2="240.689" y2="33.17"/>
	
		<line fill="none" stroke="#262626" stroke-linecap="square" stroke-linejoin="round" stroke-miterlimit="10" x1="252.472" y1="31" x2="252.472" y2="33.17"/>
	
		<line fill="none" stroke="#262626" stroke-linecap="square" stroke-linejoin="round" stroke-miterlimit="10" x1="261.611" y1="31" x2="261.611" y2="33.17"/>
	
		<line fill="none" stroke="#262626" stroke-linecap="square" stroke-linejoin="round" stroke-miterlimit="10" x1="269.078" y1="31" x2="269.078" y2="33.17"/>
	
		<line fill="none" stroke="#262626" stroke-linecap="square" stroke-linejoin="round" stroke-miterlimit="10" x1="275.392" y1="31" x2="275.392" y2="33.17"/>
	
		<line fill="none" stroke="#262626" stroke-linecap="square" stroke-linejoin="round" stroke-miterlimit="10" x1="280.861" y1="31" x2="280.861" y2="33.17"/>
	
		<line fill="none" stroke="#262626" stroke-linecap="square" stroke-linejoin="round" stroke-miterlimit="10" x1="285.685" y1="31" x2="285.685" y2="33.17"/>
	
		<line fill="none" stroke="#262626" stroke-linecap="square" stroke-linejoin="round" stroke-miterlimit="10" x1="290" y1="31" x2="290" y2="33.17"/>
	
		<line fill="none" stroke="#262626" stroke-linecap="square" stroke-linejoin="round" stroke-miterlimit="10" x1="318.389" y1="31" x2="318.389" y2="33.17"/>
	
		<line fill="none" stroke="#262626" stroke-linecap="square" stroke-linejoin="round" stroke-miterlimit="10" x1="334.995" y1="31" x2="334.995" y2="33.17"/>
	
		<line fill="none" stroke="#262626" stroke-linecap="square" stroke-linejoin="round" stroke-miterlimit="10" x1="346.777" y1="31" x2="346.777" y2="33.17"/>
	
		<line fill="none" stroke="#262626" stroke-linecap="square" stroke-linejoin="round" stroke-miterlimit="10" x1="355.917" y1="31" x2="355.917" y2="33.17"/>
	
		<line fill="none" stroke="#262626" stroke-linecap="square" stroke-linejoin="round" stroke-miterlimit="10" x1="363.384" y1="31" x2="363.384" y2="33.17"/>
	
		<line fill="none" stroke="#262626" stroke-linecap="square" stroke-linejoin="round" stroke-miterlimit="10" x1="369.697" y1="31" x2="369.697" y2="33.17"/>
	
		<line fill="none" stroke="#262626" stroke-linecap="square" stroke-linejoin="round" stroke-miterlimit="10" x1="375.166" y1="31" x2="375.166" y2="33.17"/>
	
		<line fill="none" stroke="#262626" stroke-linecap="square" stroke-linejoin="round" stroke-miterlimit="10" x1="379.99" y1="31" x2="379.99" y2="33.17"/>
	
		<line fill="none" stroke="#262626" stroke-linecap="square" stroke-linejoin="round" stroke-miterlimit="10" x1="384.306" y1="31" x2="384.306" y2="33.17"/>
	
		<line fill="none" stroke="#262626" stroke-linecap="square" stroke-linejoin="round" stroke-miterlimit="10" x1="412.694" y1="31" x2="412.694" y2="33.17"/>
	
		<line fill="none" stroke="#262626" stroke-linecap="square" stroke-linejoin="round" stroke-miterlimit="10" x1="429.301" y1="31" x2="429.301" y2="33.17"/>
	
		<line fill="none" stroke="#262626" stroke-linecap="square" stroke-linejoin="round" stroke-miterlimit="10" x1="441.083" y1="31" x2="441.083" y2="33.17"/>
	
		<line fill="none" stroke="#262626" stroke-linecap="square" stroke-linejoin="round" stroke-miterlimit="10" x1="450.223" y1="31" x2="450.223" y2="33.17"/>
	
		<line fill="none" stroke="#262626" stroke-linecap="square" stroke-linejoin="round" stroke-miterlimit="10" x1="457.689" y1="31" x2="457.689" y2="33.17"/>
	
		<line fill="none" stroke="#262626" stroke-linecap="square" stroke-linejoin="round" stroke-miterlimit="10" x1="464.003" y1="31" x2="464.003" y2="33.17"/>
	
		<line fill="none" stroke="#262626" stroke-linecap="square" stroke-linejoin="round" stroke-miterlimit="10" x1="469.472" y1="31" x2="469.472" y2="33.17"/>
	
		<line fill="none" stroke="#262626" stroke-linecap="square" stroke-linejoin="round" stroke-miterlimit="10" x1="474.296" y1="31" x2="474.296" y2="33.17"/>
	
		<line fill="none" stroke="#262626" stroke-linecap="square" stroke-linejoin="round" stroke-miterlimit="10" x1="478.611" y1="31" x2="478.611" y2="33.17"/>
	
		<line fill="none" stroke="#262626" stroke-linecap="square" stroke-linejoin="round" stroke-miterlimit="10" x1="478.611" y1="31" x2="478.611" y2="33.17"/>
	
		<line fill="none" stroke="#262626" stroke-linecap="square" stroke-linejoin="round" stroke-miterlimit="10" x1="507" y1="31" x2="507" y2="33.17"/>
</g>
<g transform="translate(88,396)">
	<path fill="#262626" d="M4.844,0H3.703v-7.281C3.422-7.021,3.06-6.758,2.617-6.492C2.174-6.227,1.776-6.031,1.422-5.906v-1.109
		c0.635-0.292,1.193-0.651,1.672-1.078s0.818-0.844,1.016-1.25h0.734V0z M7.951-4.594c0-1.094,0.112-1.977,0.336-2.648
		s0.56-1.19,1.008-1.555s1.01-0.547,1.688-0.547c0.5,0,0.938,0.102,1.313,0.305s0.685,0.492,0.93,0.867s0.438,0.836,0.578,1.383
		s0.211,1.278,0.211,2.195c0,1.094-0.112,1.977-0.336,2.648s-0.56,1.19-1.008,1.555s-1.01,0.547-1.688,0.547
		c-0.896,0-1.604-0.323-2.125-0.969C8.253-1.583,7.951-2.844,7.951-4.594z M9.123-4.594c0,1.531,0.177,2.55,0.531,3.055
		s0.797,0.758,1.328,0.758c0.521,0,0.961-0.253,1.32-0.758s0.539-1.523,0.539-3.055s-0.18-2.547-0.539-3.047s-0.805-0.75-1.336-0.75
		c-0.521,0-0.943,0.219-1.266,0.656C9.315-7.161,9.123-6.114,9.123-4.594z"/>
</g>
<g transform="translate(103,390)">
	<path fill="#262626" d="M0.344-2.359v-0.969h2.969v0.969H0.344z M5.486-4.266C5.09-4.411,4.796-4.622,4.604-4.898
		C4.411-5.175,4.314-5.5,4.314-5.875c0-0.573,0.206-1.055,0.617-1.445C5.343-7.711,5.893-7.906,6.58-7.906s1.239,0.2,1.656,0.602
		c0.417,0.401,0.625,0.888,0.625,1.461c0,0.364-0.097,0.683-0.289,0.953C8.379-4.62,8.09-4.411,7.705-4.266
		c0.479,0.156,0.846,0.409,1.102,0.758C9.062-3.159,9.189-2.739,9.189-2.25c0,0.677-0.24,1.245-0.719,1.703
		C7.991-0.089,7.366,0.141,6.596,0.141c-0.781,0-1.409-0.231-1.883-0.695C4.239-1.019,4.002-1.594,4.002-2.281
		c0-0.511,0.127-0.938,0.383-1.281C4.64-3.906,5.007-4.141,5.486-4.266z M5.299-5.906c0,0.375,0.12,0.68,0.359,0.914
		C5.897-4.758,6.21-4.641,6.596-4.641c0.375,0,0.68-0.117,0.914-0.352s0.352-0.523,0.352-0.867c0-0.354-0.123-0.651-0.367-0.891
		C7.249-6.989,6.944-7.109,6.58-7.109c-0.365,0-0.669,0.117-0.914,0.352C5.421-6.523,5.299-6.239,5.299-5.906z M4.986-2.266
		c0,0.271,0.065,0.536,0.195,0.797c0.13,0.261,0.325,0.461,0.586,0.602c0.26,0.141,0.536,0.211,0.828,0.211
		c0.469,0,0.852-0.148,1.148-0.445s0.445-0.675,0.445-1.133c0-0.469-0.154-0.854-0.461-1.156C7.421-3.692,7.033-3.844,6.564-3.844
		c-0.448,0-0.823,0.148-1.125,0.445C5.137-3.102,4.986-2.724,4.986-2.266z"/>
</g>
<g transform="translate(183,396)">
	<path fill="#262626" d="M4.844,0H3.703v-7.281C3.422-7.021,3.06-6.758,2.617-6.492C2.174-6.227,1.776-6.031,1.422-5.906v-1.109
		c0.635-0.292,1.193-0.651,1.672-1.078s0.818-0.844,1.016-1.25h0.734V0z M7.951-4.594c0-1.094,0.112-1.977,0.336-2.648
		s0.56-1.19,1.008-1.555s1.01-0.547,1.688-0.547c0.5,0,0.938,0.102,1.313,0.305s0.685,0.492,0.93,0.867s0.438,0.836,0.578,1.383
		s0.211,1.278,0.211,2.195c0,1.094-0.112,1.977-0.336,2.648s-0.56,1.19-1.008,1.555s-1.01,0.547-1.688,0.547
		c-0.896,0-1.604-0.323-2.125-0.969C8.253-1.583,7.951-2.844,7.951-4.594z M9.123-4.594c0,1.531,0.177,2.55,0.531,3.055
		s0.797,0.758,1.328,0.758c0.521,0,0.961-0.253,1.32-0.758s0.539-1.523,0.539-3.055s-0.18-2.547-0.539-3.047s-0.805-0.75-1.336-0.75
		c-0.521,0-0.943,0.219-1.266,0.656C9.315-7.161,9.123-6.114,9.123-4.594z"/>
</g>
<g transform="translate(198,390)">
	<path fill="#262626" d="M0.344-2.359v-0.969h2.969v0.969H0.344z M4.064-6.844v-0.922h5.109v0.75
		c-0.511,0.531-1.011,1.239-1.5,2.125c-0.49,0.886-0.87,1.792-1.141,2.719C6.346-1.505,6.221-0.781,6.158,0H5.174
		c0.01-0.614,0.133-1.362,0.367-2.242s0.567-1.727,1-2.539c0.432-0.813,0.893-1.5,1.383-2.063H4.064z"/>
</g>
<g transform="translate(277,396)">
	<path fill="#262626" d="M4.844,0H3.703v-7.281C3.422-7.021,3.06-6.758,2.617-6.492C2.174-6.227,1.776-6.031,1.422-5.906v-1.109
		c0.635-0.292,1.193-0.651,1.672-1.078c0.479-0.427,0.818-0.844,1.016-1.25h0.734V0z M7.951-4.594c0-1.094,0.111-1.977,0.336-2.648
		c0.224-0.672,0.56-1.19,1.008-1.555c0.447-0.364,1.01-0.547,1.688-0.547c0.5,0,0.938,0.102,1.313,0.305s0.685,0.492,0.93,0.867
		c0.244,0.375,0.438,0.836,0.578,1.383s0.211,1.278,0.211,2.195c0,1.094-0.112,1.977-0.336,2.648
		c-0.225,0.672-0.561,1.19-1.008,1.555c-0.448,0.364-1.011,0.547-1.688,0.547c-0.896,0-1.604-0.323-2.125-0.969
		C8.253-1.583,7.951-2.844,7.951-4.594z M9.123-4.594c0,1.531,0.177,2.55,0.531,3.055c0.354,0.505,0.797,0.758,1.328,0.758
		c0.521,0,0.961-0.253,1.32-0.758s0.539-1.523,0.539-3.055s-0.18-2.547-0.539-3.047s-0.805-0.75-1.336-0.75
		c-0.521,0-0.943,0.219-1.266,0.656C9.315-7.161,9.123-6.114,9.123-4.594z"/>
</g>
<g transform="translate(292,390)">
	<path fill="#262626" d="M0.344-2.359v-0.969h2.969v0.969H0.344z M9.018-5.953L8.064-5.875C7.98-6.25,7.855-6.526,7.689-6.703
		C7.429-6.974,7.111-7.109,6.736-7.109c-0.313,0-0.584,0.083-0.813,0.25C5.611-6.63,5.369-6.305,5.197-5.883
		s-0.264,1.028-0.273,1.82C5.152-4.417,5.437-4.68,5.775-4.852C6.113-5.023,6.465-5.109,6.83-5.109c0.646,0,1.195,0.237,1.648,0.711
		s0.68,1.086,0.68,1.836c0,0.5-0.107,0.961-0.32,1.383C8.624-0.758,8.332-0.433,7.963-0.203c-0.37,0.229-0.795,0.344-1.273,0.344
		c-0.803,0-1.459-0.297-1.969-0.891C4.21-1.344,3.955-2.323,3.955-3.688c0-1.521,0.281-2.625,0.844-3.313
		c0.5-0.604,1.161-0.906,1.984-0.906c0.625,0,1.135,0.175,1.531,0.523C8.71-7.034,8.944-6.558,9.018-5.953z M5.08-2.547
		c0,0.333,0.07,0.651,0.211,0.953S5.629-1.06,5.885-0.898C6.14-0.737,6.402-0.656,6.674-0.656c0.416,0,0.771-0.167,1.063-0.5
		C8.027-1.489,8.174-1.938,8.174-2.5c0-0.542-0.146-0.969-0.438-1.281C7.444-4.094,7.08-4.25,6.643-4.25S5.835-4.094,5.533-3.781
		C5.23-3.469,5.08-3.058,5.08-2.547z"/>
</g>
<g transform="translate(371,396)">
	<path fill="#262626" d="M4.844,0H3.703v-7.281C3.422-7.021,3.06-6.758,2.617-6.492C2.174-6.227,1.775-6.031,1.422-5.906v-1.109
		c0.635-0.292,1.193-0.651,1.672-1.078s0.818-0.844,1.016-1.25h0.734V0z M7.951-4.594c0-1.094,0.111-1.977,0.336-2.648
		c0.224-0.672,0.56-1.19,1.008-1.555c0.447-0.364,1.01-0.547,1.688-0.547c0.5,0,0.938,0.102,1.313,0.305s0.685,0.492,0.93,0.867
		c0.244,0.375,0.438,0.836,0.578,1.383s0.211,1.278,0.211,2.195c0,1.094-0.112,1.977-0.336,2.648
		c-0.225,0.672-0.561,1.19-1.008,1.555c-0.448,0.364-1.011,0.547-1.688,0.547c-0.896,0-1.604-0.323-2.125-0.969
		C8.253-1.583,7.951-2.844,7.951-4.594z M9.123-4.594c0,1.531,0.177,2.55,0.531,3.055c0.354,0.505,0.797,0.758,1.328,0.758
		c0.521,0,0.961-0.253,1.32-0.758s0.539-1.523,0.539-3.055s-0.18-2.547-0.539-3.047s-0.805-0.75-1.336-0.75
		c-0.521,0-0.943,0.219-1.266,0.656C9.315-7.161,9.123-6.114,9.123-4.594z"/>
</g>
<g transform="translate(386,390)">
	<path fill="#262626" d="M0.344-2.359v-0.969h2.969v0.969H0.344z M4.002-2.063l1.016-0.094c0.072,0.5,0.247,0.875,0.523,1.125
		c0.275,0.25,0.606,0.375,0.992,0.375c0.469,0,0.864-0.177,1.188-0.531c0.322-0.354,0.484-0.817,0.484-1.391
		c0-0.552-0.156-0.987-0.469-1.305S7.018-4.359,6.518-4.359c-0.313,0-0.594,0.07-0.844,0.211S5.226-3.828,5.08-3.609L4.174-3.719
		l0.766-4.047h3.922v0.922H5.721L5.283-4.734c0.479-0.323,0.979-0.484,1.5-0.484c0.688,0,1.266,0.237,1.734,0.711
		s0.703,1.086,0.703,1.836c0,0.719-0.209,1.333-0.625,1.844c-0.5,0.646-1.188,0.969-2.063,0.969c-0.719,0-1.305-0.2-1.758-0.602
		S4.064-1.396,4.002-2.063z"/>
</g>
<g transform="translate(466,396)">
	<path fill="#262626" d="M4.844,0H3.703v-7.281C3.422-7.021,3.06-6.758,2.617-6.492S1.776-6.031,1.422-5.906v-1.109
		c0.636-0.292,1.192-0.651,1.672-1.078s0.817-0.844,1.016-1.25h0.734V0z M7.951-4.594c0-1.094,0.111-1.977,0.336-2.648
		c0.224-0.672,0.56-1.19,1.008-1.555c0.447-0.364,1.01-0.547,1.688-0.547c0.5,0,0.938,0.102,1.313,0.305s0.685,0.492,0.93,0.867
		c0.244,0.375,0.438,0.836,0.578,1.383s0.211,1.278,0.211,2.195c0,1.094-0.112,1.977-0.336,2.648
		c-0.225,0.672-0.561,1.19-1.008,1.555c-0.448,0.364-1.011,0.547-1.688,0.547c-0.896,0-1.604-0.323-2.125-0.969
		C8.253-1.583,7.951-2.844,7.951-4.594z M9.123-4.594c0,1.531,0.177,2.55,0.531,3.055c0.354,0.505,0.797,0.758,1.328,0.758
		c0.521,0,0.961-0.253,1.32-0.758s0.539-1.523,0.539-3.055s-0.18-2.547-0.539-3.047s-0.805-0.75-1.336-0.75
		c-0.521,0-0.943,0.219-1.266,0.656C9.315-7.161,9.123-6.114,9.123-4.594z"/>
</g>
<g transform="translate(481,390)">
	<path fill="#262626" d="M0.344-2.359v-0.969h2.969v0.969H0.344z M7.111,0v-1.891H3.689v-0.875l3.594-5.109h0.781v5.109h1.078v0.875
		H8.064V0H7.111z M7.111-2.766v-3.563L4.643-2.766H7.111z"/>
</g>
<g transform="translate(290.0002,400.6667)">
	<path fill="#262626" d="M-37.188,11.235l1.422,0.359c-0.292,1.167-0.825,2.058-1.602,2.672c-0.776,0.614-1.721,0.922-2.836,0.922
		c-1.156,0-2.099-0.237-2.828-0.711c-0.729-0.475-1.281-1.156-1.656-2.047s-0.563-1.852-0.563-2.883
		c0-1.115,0.214-2.089,0.641-2.922c0.427-0.834,1.034-1.467,1.82-1.898c0.787-0.433,1.654-0.648,2.602-0.648
		c1.073,0,1.977,0.273,2.711,0.82s1.248,1.315,1.539,2.305l-1.406,0.328c-0.25-0.781-0.612-1.35-1.086-1.703
		c-0.474-0.354-1.07-0.531-1.789-0.531c-0.823,0-1.51,0.197-2.063,0.594c-0.552,0.396-0.94,0.927-1.164,1.594
		c-0.224,0.667-0.336,1.354-0.336,2.063c0,0.906,0.133,1.7,0.398,2.383c0.266,0.682,0.677,1.192,1.234,1.531
		c0.558,0.339,1.164,0.508,1.82,0.508c0.802,0,1.479-0.229,2.031-0.688C-37.745,12.823-37.375,12.141-37.188,11.235z M-34.916,11.11
		c0-1.438,0.401-2.506,1.203-3.203c0.667-0.573,1.479-0.859,2.438-0.859c1.073,0,1.948,0.349,2.625,1.047
		c0.677,0.697,1.016,1.666,1.016,2.906c0,1-0.148,1.786-0.445,2.359s-0.734,1.019-1.313,1.336s-1.206,0.477-1.883,0.477
		c-1.083,0-1.961-0.35-2.633-1.047C-34.58,13.427-34.916,12.422-34.916,11.11z M-33.556,11.11c0,1,0.216,1.747,0.648,2.242
		s0.977,0.742,1.633,0.742s1.203-0.25,1.641-0.75s0.656-1.261,0.656-2.281c0-0.959-0.219-1.686-0.656-2.18
		c-0.438-0.495-0.984-0.742-1.641-0.742s-1.201,0.244-1.633,0.734C-33.34,9.365-33.556,10.11-33.556,11.11z M-26.28,15V7.219h1.188
		v1.109c0.573-0.854,1.401-1.281,2.484-1.281c0.469,0,0.898,0.083,1.289,0.25s0.685,0.388,0.883,0.664
		c0.198,0.275,0.333,0.602,0.407,0.977c0.052,0.239,0.078,0.667,0.078,1.281V15h-1.328v-4.734c0-0.531-0.05-0.93-0.149-1.195
		c-0.099-0.266-0.278-0.479-0.539-0.641c-0.261-0.162-0.568-0.242-0.922-0.242c-0.563,0-1.047,0.177-1.453,0.531
		c-0.407,0.354-0.61,1.031-0.61,2.031V15H-26.28z M-13.051,12.156l1.297,0.156c-0.135,0.896-0.498,1.596-1.086,2.102
		c-0.588,0.505-1.305,0.758-2.148,0.758c-1.063,0-1.917-0.347-2.563-1.039s-0.969-1.69-0.969-2.992c0-0.844,0.138-1.581,0.414-2.211
		c0.276-0.63,0.698-1.102,1.266-1.414c0.568-0.313,1.185-0.469,1.852-0.469c0.844,0,1.537,0.213,2.078,0.641
		c0.542,0.427,0.885,1.031,1.031,1.813l-1.281,0.203c-0.125-0.521-0.341-0.914-0.648-1.18s-0.68-0.398-1.117-0.398
		c-0.667,0-1.208,0.239-1.625,0.719c-0.417,0.479-0.625,1.234-0.625,2.266c0,1.042,0.201,1.799,0.602,2.273
		c0.401,0.474,0.924,0.711,1.57,0.711c0.521,0,0.953-0.159,1.297-0.477C-13.364,13.299-13.145,12.813-13.051,12.156z M-5.473,12.5
		l1.359,0.156c-0.208,0.802-0.604,1.422-1.188,1.859c-0.583,0.438-1.328,0.656-2.234,0.656c-1.135,0-2.036-0.35-2.703-1.047
		c-0.667-0.698-1-1.683-1-2.953c0-1.302,0.338-2.315,1.016-3.039c0.677-0.725,1.553-1.086,2.625-1.086
		c1.041,0,1.891,0.354,2.547,1.063s0.984,1.703,0.984,2.984c0,0.083,0,0.203,0,0.359h-5.813c0.052,0.854,0.294,1.508,0.727,1.961
		c0.433,0.453,0.977,0.68,1.633,0.68c0.479,0,0.891-0.128,1.234-0.383C-5.942,13.455-5.67,13.052-5.473,12.5z M-9.801,10.36h4.344
		c-0.063-0.656-0.229-1.146-0.5-1.469C-6.374,8.38-6.916,8.125-7.582,8.125c-0.614,0-1.127,0.203-1.539,0.609
		C-9.532,9.141-9.759,9.683-9.801,10.36z M-2.65,15V7.219h1.188v1.109c0.573-0.854,1.401-1.281,2.484-1.281
		c0.469,0,0.898,0.083,1.289,0.25s0.685,0.388,0.883,0.664C3.392,8.237,3.527,8.563,3.6,8.938c0.052,0.239,0.078,0.667,0.078,1.281
		V15H2.35v-4.734c0-0.531-0.05-0.93-0.148-1.195S1.924,8.591,1.663,8.43C1.402,8.268,1.095,8.188,0.741,8.188
		c-0.563,0-1.047,0.177-1.453,0.531C-1.118,9.073-1.322,9.75-1.322,10.75V15H-2.65z M8.392,13.828l0.188,1.156
		c-0.375,0.083-0.709,0.125-1,0.125c-0.479,0-0.852-0.078-1.117-0.234s-0.451-0.357-0.555-0.602
		c-0.104-0.245-0.156-0.764-0.156-1.555V8.25H4.783V7.219h0.969V5.297L7.064,4.5v2.719h1.328V8.25H7.064v4.547
		c0,0.375,0.023,0.617,0.07,0.727s0.122,0.195,0.227,0.258c0.104,0.063,0.25,0.094,0.438,0.094
		C7.955,13.875,8.152,13.86,8.392,13.828z M9.557,15V7.219h1.188v1.188c0.302-0.553,0.583-0.917,0.844-1.094
		c0.261-0.178,0.542-0.266,0.844-0.266c0.448,0,0.901,0.141,1.359,0.422l-0.453,1.219C13.015,8.5,12.693,8.406,12.37,8.406
		c-0.292,0-0.552,0.086-0.781,0.258s-0.391,0.414-0.484,0.727c-0.146,0.469-0.219,0.979-0.219,1.531V15H9.557z M19.532,14.047
		c-0.489,0.406-0.958,0.695-1.406,0.867s-0.933,0.258-1.453,0.258c-0.854,0-1.511-0.208-1.969-0.625s-0.688-0.948-0.688-1.594
		c0-0.386,0.086-0.734,0.258-1.047s0.398-0.565,0.68-0.758c0.281-0.193,0.599-0.336,0.953-0.43c0.25-0.073,0.641-0.141,1.172-0.203
		c1.063-0.125,1.844-0.276,2.344-0.453c0.011-0.178,0.016-0.292,0.016-0.344c0-0.542-0.125-0.922-0.375-1.141
		c-0.344-0.292-0.844-0.438-1.5-0.438c-0.625,0-1.086,0.106-1.383,0.32c-0.297,0.213-0.513,0.596-0.648,1.148l-1.297-0.172
		c0.114-0.553,0.308-0.997,0.578-1.336s0.661-0.599,1.172-0.781s1.099-0.273,1.766-0.273s1.206,0.078,1.617,0.234
		s0.716,0.352,0.914,0.586s0.333,0.534,0.406,0.898c0.042,0.229,0.063,0.636,0.063,1.219v1.75c0,1.229,0.028,2.005,0.086,2.328
		c0.058,0.322,0.169,0.635,0.336,0.938h-1.375C19.662,14.73,19.574,14.411,19.532,14.047z M19.423,11.094
		c-0.479,0.197-1.198,0.364-2.156,0.5c-0.542,0.083-0.925,0.172-1.148,0.266s-0.396,0.234-0.516,0.422s-0.18,0.396-0.18,0.625
		c0,0.354,0.133,0.648,0.398,0.883s0.653,0.352,1.164,0.352s0.964-0.112,1.359-0.336s0.688-0.528,0.875-0.914
		c0.136-0.292,0.203-0.729,0.203-1.313V11.094z M25.496,13.828l0.188,1.156c-0.375,0.083-0.709,0.125-1,0.125
		c-0.479,0-0.852-0.078-1.117-0.234s-0.451-0.357-0.555-0.602c-0.104-0.245-0.156-0.764-0.156-1.555V8.25h-0.969V7.219h0.969V5.297
		L24.168,4.5v2.719h1.328V8.25h-1.328v4.547c0,0.375,0.023,0.617,0.07,0.727s0.122,0.195,0.227,0.258
		c0.104,0.063,0.25,0.094,0.438,0.094C25.058,13.875,25.256,13.86,25.496,13.828z M26.693,5.781V4.266h1.313v1.516H26.693z
		 M26.693,15V7.219h1.313V15H26.693z M29.449,11.11c0-1.438,0.4-2.506,1.203-3.203c0.666-0.573,1.479-0.859,2.438-0.859
		c1.072,0,1.947,0.349,2.625,1.047C36.391,8.791,36.73,9.76,36.73,11c0,1-0.148,1.786-0.445,2.359s-0.734,1.019-1.313,1.336
		s-1.206,0.477-1.883,0.477c-1.084,0-1.961-0.35-2.633-1.047C29.785,13.427,29.449,12.422,29.449,11.11z M30.808,11.11
		c0,1,0.216,1.747,0.648,2.242c0.432,0.495,0.977,0.742,1.633,0.742s1.203-0.25,1.641-0.75s0.656-1.261,0.656-2.281
		c0-0.959-0.219-1.686-0.656-2.18c-0.438-0.495-0.984-0.742-1.641-0.742s-1.201,0.244-1.633,0.734
		C31.024,9.365,30.808,10.11,30.808,11.11z M38.084,15V7.219h1.188v1.109c0.573-0.854,1.401-1.281,2.484-1.281
		c0.469,0,0.898,0.083,1.289,0.25s0.686,0.388,0.883,0.664c0.198,0.275,0.334,0.602,0.406,0.977
		c0.053,0.239,0.078,0.667,0.078,1.281V15h-1.328v-4.734c0-0.531-0.049-0.93-0.148-1.195c-0.099-0.266-0.278-0.479-0.539-0.641
		c-0.26-0.162-0.567-0.242-0.922-0.242c-0.563,0-1.047,0.177-1.453,0.531c-0.406,0.354-0.609,1.031-0.609,2.031V15H38.084z"/>
</g>
<g>
	
		<line fill="none" stroke="#262626" stroke-linecap="square" stroke-linejoin="round" stroke-miterlimit="10" x1="73" y1="374" x2="73" y2="31"/>
	
		<line fill="none" stroke="#262626" stroke-linecap="square" stroke-linejoin="round" stroke-miterlimit="10" x1="507" y1="374" x2="507" y2="31"/>
	
		<line fill="none" stroke="#262626" stroke-linecap="square" stroke-linejoin="round" stroke-miterlimit="10" x1="73" y1="256.231" x2="77.34" y2="256.231"/>
	
		<line fill="none" stroke="#262626" stroke-linecap="square" stroke-linejoin="round" stroke-miterlimit="10" x1="73" y1="31" x2="77.34" y2="31"/>
	
		<line fill="none" stroke="#262626" stroke-linecap="square" stroke-linejoin="round" stroke-miterlimit="10" x1="507" y1="256.231" x2="502.66" y2="256.231"/>
	
		<line fill="none" stroke="#262626" stroke-linecap="square" stroke-linejoin="round" stroke-miterlimit="10" x1="507" y1="31" x2="502.66" y2="31"/>
	
		<line fill="none" stroke="#262626" stroke-linecap="square" stroke-linejoin="round" stroke-miterlimit="10" x1="73" y1="374" x2="75.17" y2="374"/>
	
		<line fill="none" stroke="#262626" stroke-linecap="square" stroke-linejoin="round" stroke-miterlimit="10" x1="73" y1="345.859" x2="75.17" y2="345.859"/>
	
		<line fill="none" stroke="#262626" stroke-linecap="square" stroke-linejoin="round" stroke-miterlimit="10" x1="73" y1="324.033" x2="75.17" y2="324.033"/>
	
		<line fill="none" stroke="#262626" stroke-linecap="square" stroke-linejoin="round" stroke-miterlimit="10" x1="73" y1="306.198" x2="75.17" y2="306.198"/>
	
		<line fill="none" stroke="#262626" stroke-linecap="square" stroke-linejoin="round" stroke-miterlimit="10" x1="73" y1="291.12" x2="75.17" y2="291.12"/>
	
		<line fill="none" stroke="#262626" stroke-linecap="square" stroke-linejoin="round" stroke-miterlimit="10" x1="73" y1="278.059" x2="75.17" y2="278.059"/>
	
		<line fill="none" stroke="#262626" stroke-linecap="square" stroke-linejoin="round" stroke-miterlimit="10" x1="73" y1="266.537" x2="75.17" y2="266.537"/>
	
		<line fill="none" stroke="#262626" stroke-linecap="square" stroke-linejoin="round" stroke-miterlimit="10" x1="73" y1="256.231" x2="75.17" y2="256.231"/>
	
		<line fill="none" stroke="#262626" stroke-linecap="square" stroke-linejoin="round" stroke-miterlimit="10" x1="73" y1="188.43" x2="75.17" y2="188.43"/>
	
		<line fill="none" stroke="#262626" stroke-linecap="square" stroke-linejoin="round" stroke-miterlimit="10" x1="73" y1="148.769" x2="75.17" y2="148.769"/>
	
		<line fill="none" stroke="#262626" stroke-linecap="square" stroke-linejoin="round" stroke-miterlimit="10" x1="73" y1="120.628" x2="75.17" y2="120.628"/>
	
		<line fill="none" stroke="#262626" stroke-linecap="square" stroke-linejoin="round" stroke-miterlimit="10" x1="73" y1="98.801" x2="75.17" y2="98.801"/>
	
		<line fill="none" stroke="#262626" stroke-linecap="square" stroke-linejoin="round" stroke-miterlimit="10" x1="73" y1="80.967" x2="75.17" y2="80.967"/>
	
		<line fill="none" stroke="#262626" stroke-linecap="square" stroke-linejoin="round" stroke-miterlimit="10" x1="73" y1="65.889" x2="75.17" y2="65.889"/>
	
		<line fill="none" stroke="#262626" stroke-linecap="square" stroke-linejoin="round" stroke-miterlimit="10" x1="73" y1="52.827" x2="75.17" y2="52.827"/>
	
		<line fill="none" stroke="#262626" stroke-linecap="square" stroke-linejoin="round" stroke-miterlimit="10" x1="73" y1="41.306" x2="75.17" y2="41.306"/>
	
		<line fill="none" stroke="#262626" stroke-linecap="square" stroke-linejoin="round" stroke-miterlimit="10" x1="73" y1="31" x2="75.17" y2="31"/>
	
		<line fill="none" stroke="#262626" stroke-linecap="square" stroke-linejoin="round" stroke-miterlimit="10" x1="507" y1="374" x2="504.83" y2="374"/>
	
		<line fill="none" stroke="#262626" stroke-linecap="square" stroke-linejoin="round" stroke-miterlimit="10" x1="507" y1="345.859" x2="504.83" y2="345.859"/>
	
		<line fill="none" stroke="#262626" stroke-linecap="square" stroke-linejoin="round" stroke-miterlimit="10" x1="507" y1="324.033" x2="504.83" y2="324.033"/>
	
		<line fill="none" stroke="#262626" stroke-linecap="square" stroke-linejoin="round" stroke-miterlimit="10" x1="507" y1="306.198" x2="504.83" y2="306.198"/>
	
		<line fill="none" stroke="#262626" stroke-linecap="square" stroke-linejoin="round" stroke-miterlimit="10" x1="507" y1="291.12" x2="504.83" y2="291.12"/>
	
		<line fill="none" stroke="#262626" stroke-linecap="square" stroke-linejoin="round" stroke-miterlimit="10" x1="507" y1="278.059" x2="504.83" y2="278.059"/>
	
		<line fill="none" stroke="#262626" stroke-linecap="square" stroke-linejoin="round" stroke-miterlimit="10" x1="507" y1="266.537" x2="504.83" y2="266.537"/>
	
		<line fill="none" stroke="#262626" stroke-linecap="square" stroke-linejoin="round" stroke-miterlimit="10" x1="507" y1="256.231" x2="504.83" y2="256.231"/>
	
		<line fill="none" stroke="#262626" stroke-linecap="square" stroke-linejoin="round" stroke-miterlimit="10" x1="507" y1="188.43" x2="504.83" y2="188.43"/>
	
		<line fill="none" stroke="#262626" stroke-linecap="square" stroke-linejoin="round" stroke-miterlimit="10" x1="507" y1="148.769" x2="504.83" y2="148.769"/>
	
		<line fill="none" stroke="#262626" stroke-linecap="square" stroke-linejoin="round" stroke-miterlimit="10" x1="507" y1="120.628" x2="504.83" y2="120.628"/>
	
		<line fill="none" stroke="#262626" stroke-linecap="square" stroke-linejoin="round" stroke-miterlimit="10" x1="507" y1="98.801" x2="504.83" y2="98.801"/>
	
		<line fill="none" stroke="#262626" stroke-linecap="square" stroke-linejoin="round" stroke-miterlimit="10" x1="507" y1="80.967" x2="504.83" y2="80.967"/>
	
		<line fill="none" stroke="#262626" stroke-linecap="square" stroke-linejoin="round" stroke-miterlimit="10" x1="507" y1="65.889" x2="504.83" y2="65.889"/>
	
		<line fill="none" stroke="#262626" stroke-linecap="square" stroke-linejoin="round" stroke-miterlimit="10" x1="507" y1="52.827" x2="504.83" y2="52.827"/>
	
		<line fill="none" stroke="#262626" stroke-linecap="square" stroke-linejoin="round" stroke-miterlimit="10" x1="507" y1="41.306" x2="504.83" y2="41.306"/>
	
		<line fill="none" stroke="#262626" stroke-linecap="square" stroke-linejoin="round" stroke-miterlimit="10" x1="507" y1="31" x2="504.83" y2="31"/>
</g>
<g transform="translate(43,263)">
	<path fill="#262626" d="M4.844,0H3.703v-7.281C3.422-7.021,3.06-6.758,2.617-6.492C2.174-6.227,1.776-6.031,1.422-5.906v-1.109
		c0.635-0.291,1.193-0.65,1.672-1.078s0.818-0.844,1.016-1.25h0.734V0z M7.951-4.594c0-1.094,0.112-1.977,0.336-2.648
		s0.56-1.189,1.008-1.555s1.01-0.547,1.688-0.547c0.5,0,0.938,0.102,1.313,0.305s0.685,0.492,0.93,0.867s0.438,0.836,0.578,1.383
		s0.211,1.278,0.211,2.195c0,1.094-0.112,1.977-0.336,2.648s-0.56,1.189-1.008,1.555c-0.448,0.364-1.01,0.547-1.688,0.547
		c-0.896,0-1.604-0.323-2.125-0.969C8.253-1.584,7.951-2.844,7.951-4.594z M9.123-4.594c0,1.531,0.177,2.549,0.531,3.055
		s0.797,0.758,1.328,0.758c0.521,0,0.961-0.252,1.32-0.758s0.539-1.523,0.539-3.055s-0.18-2.547-0.539-3.047s-0.805-0.75-1.336-0.75
		c-0.521,0-0.943,0.219-1.266,0.656C9.315-7.162,9.123-6.115,9.123-4.594z"/>
</g>
<g transform="translate(58,257)">
	<path fill="#262626" d="M0.344-2.359v-0.969h2.969v0.969H0.344z M7.643,0H6.674v-6.156C6.444-5.938,6.143-5.717,5.768-5.492
		S5.054-5.104,4.752-5v-0.938c0.542-0.25,1.013-0.555,1.414-0.914c0.401-0.359,0.685-0.711,0.852-1.055h0.625V0z"/>
</g>
<g transform="translate(47,38)">
	<path fill="#262626" d="M4.844,0H3.703v-7.281C3.422-7.021,3.06-6.758,2.617-6.492C2.174-6.227,1.776-6.031,1.422-5.906v-1.109
		c0.635-0.292,1.193-0.651,1.672-1.078s0.818-0.844,1.016-1.25h0.734V0z M7.951-4.594c0-1.094,0.112-1.977,0.336-2.648
		s0.56-1.19,1.008-1.555s1.01-0.547,1.688-0.547c0.5,0,0.938,0.102,1.313,0.305s0.685,0.492,0.93,0.867s0.438,0.836,0.578,1.383
		s0.211,1.278,0.211,2.195c0,1.094-0.112,1.977-0.336,2.648s-0.56,1.19-1.008,1.555c-0.448,0.364-1.01,0.547-1.688,0.547
		c-0.896,0-1.604-0.323-2.125-0.969C8.253-1.583,7.951-2.844,7.951-4.594z M9.123-4.594c0,1.531,0.177,2.549,0.531,3.055
		s0.797,0.758,1.328,0.758c0.521,0,0.961-0.252,1.32-0.758s0.539-1.523,0.539-3.055s-0.18-2.547-0.539-3.047s-0.805-0.75-1.336-0.75
		c-0.521,0-0.943,0.219-1.266,0.656C9.315-7.162,9.123-6.115,9.123-4.594z"/>
</g>
<g transform="translate(62,32)">
	<path fill="#262626" d="M0.453-3.891c0-0.927,0.096-1.674,0.289-2.242c0.192-0.568,0.479-1.005,0.859-1.313s0.857-0.461,1.43-0.461
		c0.417,0,0.784,0.086,1.102,0.258s0.581,0.417,0.789,0.734C5.13-6.596,5.294-6.206,5.414-5.742c0.12,0.463,0.18,1.081,0.18,1.852
		c0,0.927-0.096,1.674-0.289,2.242s-0.477,1.008-0.852,1.32S3.604,0.141,3.031,0.141c-0.761,0-1.359-0.276-1.797-0.828
		C0.713-1.344,0.453-2.412,0.453-3.891z M1.453-3.891c0,1.302,0.151,2.167,0.453,2.594s0.677,0.641,1.125,0.641
		c0.438,0,0.807-0.216,1.109-0.648c0.302-0.432,0.453-1.294,0.453-2.586c0-1.292-0.151-2.151-0.453-2.578S3.463-7.109,3.016-7.109
		S2.214-6.922,1.953-6.547C1.62-6.068,1.453-5.182,1.453-3.891z"/>
</g>
<g transform="translate(35,220) rotate(-90)">
	<path fill="#262626" d="M0.813,0C0.729,0,0.688-0.042,0.688-0.125c0.01,0,0.016-0.002,0.016-0.008c0-0.005,0-0.018,0-0.039
		l5.156-10.406c0.053-0.104,0.146-0.156,0.281-0.156h0.203c0.136,0,0.225,0.052,0.266,0.156l5.172,10.406
		c0,0.011,0.002,0.021,0.008,0.031s0.008,0.016,0.008,0.016C11.797-0.042,11.755,0,11.672,0H0.813z M1.797-1.203h7.906L5.75-9.156
		L1.797-1.203z"/>
</g>
<g transform="translate(35,207) rotate(-90)">
	<path fill="#262626" d="M1.234,0v-10.734h7.234v1.266H2.656v3.328h5.031v1.266H2.656V0H1.234z M8.953,0.188l3.109-11.109h1.063
		L10.015,0.188H8.953z M14.259,0v-10.734h7.234v1.266h-5.813v3.328h5.031v1.266h-5.031V0H14.259z"/>
</g>
<g>
	
		<line fill="none" stroke="#000000" stroke-linejoin="round" stroke-miterlimit="10" x1="101.389" y1="342.015" x2="101.389" y2="355.171"/>
	
		<line fill="none" stroke="#000000" stroke-linejoin="round" stroke-miterlimit="10" x1="195.694" y1="298.108" x2="195.694" y2="315.188"/>
	<line fill="none" stroke="#000000" stroke-linejoin="round" stroke-miterlimit="10" x1="290" y1="197.032" x2="290" y2="209.484"/>
	
		<line fill="none" stroke="#000000" stroke-linejoin="round" stroke-miterlimit="10" x1="384.306" y1="120.837" x2="384.306" y2="129.898"/>
	
		<line fill="none" stroke="#000000" stroke-linejoin="round" stroke-miterlimit="10" x1="478.611" y1="54.362" x2="478.611" y2="61.068"/>
	
		<line fill="none" stroke="#000000" stroke-linejoin="round" stroke-miterlimit="10" x1="101.389" y1="342.015" x2="101.389" y2="330.42"/>
	
		<line fill="none" stroke="#000000" stroke-linejoin="round" stroke-miterlimit="10" x1="195.694" y1="298.108" x2="195.694" y2="283.572"/>
	<line fill="none" stroke="#000000" stroke-linejoin="round" stroke-miterlimit="10" x1="290" y1="197.032" x2="290" y2="185.987"/>
	
		<line fill="none" stroke="#000000" stroke-linejoin="round" stroke-miterlimit="10" x1="384.306" y1="120.837" x2="384.306" y2="112.545"/>
	
		<line fill="none" stroke="#000000" stroke-linejoin="round" stroke-miterlimit="10" x1="478.611" y1="54.362" x2="478.611" y2="48.087"/>
	<circle fill="none" stroke="#000000" stroke-miterlimit="10" cx="101.389" cy="342.015" r="4"/>
	<circle fill="none" stroke="#000000" stroke-miterlimit="10" cx="195.694" cy="298.108" r="4"/>
	<circle fill="none" stroke="#000000" stroke-miterlimit="10" cx="290" cy="197.032" r="4"/>
	<circle fill="none" stroke="#000000" stroke-miterlimit="10" cx="384.306" cy="120.837" r="4"/>
	<circle fill="none" stroke="#000000" stroke-miterlimit="10" cx="478.611" cy="54.362" r="4"/>
</g>
<g transform="translate(101.3888,355.1712)">
	<path d="M-4,0h8"/>
</g>
<g transform="translate(101.3888,355.1712)">
	<path fill="none" stroke="#000000" stroke-miterlimit="10" d="M-4,0h8"/>
</g>
<g transform="translate(195.6944,315.1886)">
	<path d="M-4,0h8"/>
</g>
<g transform="translate(195.6944,315.1886)">
	<path fill="none" stroke="#000000" stroke-miterlimit="10" d="M-4,0h8"/>
</g>
<g transform="translate(290,209.4839)">
	<path d="M-4,0h8"/>
</g>
<g transform="translate(290,209.4839)">
	<path fill="none" stroke="#000000" stroke-miterlimit="10" d="M-4,0h8"/>
</g>
<g transform="translate(384.3056,129.898)">
	<path d="M-4,0h8"/>
</g>
<g transform="translate(384.3056,129.898)">
	<path fill="none" stroke="#000000" stroke-miterlimit="10" d="M-4,0h8"/>
</g>
<g transform="translate(478.6112,61.0683)">
	<path d="M-4,0h8"/>
</g>
<g transform="translate(478.6112,61.0683)">
	<path fill="none" stroke="#000000" stroke-miterlimit="10" d="M-4,0h8"/>
</g>
<g transform="translate(101.3888,330.4199)">
	<path d="M-4,0h8"/>
</g>
<g transform="translate(101.3888,330.4199)">
	<path fill="none" stroke="#000000" stroke-miterlimit="10" d="M-4,0h8"/>
</g>
<g transform="translate(195.6944,283.5721)">
	<path d="M-4,0h8"/>
</g>
<g transform="translate(195.6944,283.5721)">
	<path fill="none" stroke="#000000" stroke-miterlimit="10" d="M-4,0h8"/>
</g>
<g transform="translate(290,185.9869)">
	<path d="M-4,0h8"/>
</g>
<g transform="translate(290,185.9869)">
	<path fill="none" stroke="#000000" stroke-miterlimit="10" d="M-4,0h8"/>
</g>
<g transform="translate(384.3056,112.5455)">
	<path d="M-4,0h8"/>
</g>
<g transform="translate(384.3056,112.5455)">
	<path fill="none" stroke="#000000" stroke-miterlimit="10" d="M-4,0h8"/>
</g>
<g transform="translate(478.6112,48.087)">
	<path d="M-4,0h8"/>
</g>
<g transform="translate(478.6112,48.087)">
	<path fill="none" stroke="#000000" stroke-miterlimit="10" d="M-4,0h8"/>
</g>
<g>
	<path fill="none" stroke="#000000" stroke-width="1.5" stroke-linejoin="bevel" stroke-miterlimit="1" stroke-dasharray="10,6" d="
		M101.389,352.986l94.306-75.258L290,202.471l94.306-75.257l94.306-75.257"/>
</g>
</svg>
