<?xml version="1.0" encoding="utf-8"?>
<!-- Generator: Adobe Illustrator 16.0.3, SVG Export Plug-In . SVG Version: 6.00 Build 0)  -->
<!DOCTYPE svg PUBLIC "-//W3C//DTD SVG 1.1//EN" "http://www.w3.org/Graphics/SVG/1.1/DTD/svg11.dtd">
<svg version="1.1" id="Layer_1" xmlns="http://www.w3.org/2000/svg" xmlns:xlink="http://www.w3.org/1999/xlink" x="0px" y="0px"
	 width="579.5px" height="593.886px" viewBox="0 27 579.5 593.886" enable-background="new 0 27 579.5 593.886"
	 xml:space="preserve">
<g transform="matrix(15.4762,0,0,15.7059,161,86)">
	<g>
		<defs>
			<rect id="SVGID_1_" x="-152" y="-250" width="325" height="534.001"/>
		</defs>
		<clipPath id="SVGID_2_">
			<use xlink:href="#SVGID_1_"  overflow="visible"/>
		</clipPath>
		
			<image overflow="visible" clip-path="url(#SVGID_2_)" enable-background="new    " width="21" height="34" xlink:href="423676C0.png" >
		</image>
	</g>
</g>
<g>
	
		<line fill="none" stroke="#262626" stroke-width="0.6667" stroke-linecap="square" stroke-linejoin="round" stroke-miterlimit="10" x1="161" y1="86" x2="486" y2="86"/>
	
		<line fill="none" stroke="#262626" stroke-width="0.6667" stroke-linecap="square" stroke-linejoin="round" stroke-miterlimit="10" x1="161" y1="620" x2="486" y2="620"/>
	
		<line fill="none" stroke="#262626" stroke-width="0.6667" stroke-linecap="square" stroke-linejoin="round" stroke-miterlimit="10" x1="168.738" y1="86" x2="168.738" y2="91.34"/>
	
		<line fill="none" stroke="#262626" stroke-width="0.6667" stroke-linecap="square" stroke-linejoin="round" stroke-miterlimit="10" x1="184.214" y1="86" x2="184.214" y2="91.34"/>
	
		<line fill="none" stroke="#262626" stroke-width="0.6667" stroke-linecap="square" stroke-linejoin="round" stroke-miterlimit="10" x1="199.69" y1="86" x2="199.69" y2="91.34"/>
	
		<line fill="none" stroke="#262626" stroke-width="0.6667" stroke-linecap="square" stroke-linejoin="round" stroke-miterlimit="10" x1="215.167" y1="86" x2="215.167" y2="91.34"/>
	
		<line fill="none" stroke="#262626" stroke-width="0.6667" stroke-linecap="square" stroke-linejoin="round" stroke-miterlimit="10" x1="230.643" y1="86" x2="230.643" y2="91.34"/>
	
		<line fill="none" stroke="#262626" stroke-width="0.6667" stroke-linecap="square" stroke-linejoin="round" stroke-miterlimit="10" x1="246.119" y1="86" x2="246.119" y2="91.34"/>
	
		<line fill="none" stroke="#262626" stroke-width="0.6667" stroke-linecap="square" stroke-linejoin="round" stroke-miterlimit="10" x1="261.595" y1="86" x2="261.595" y2="91.34"/>
	
		<line fill="none" stroke="#262626" stroke-width="0.6667" stroke-linecap="square" stroke-linejoin="round" stroke-miterlimit="10" x1="277.071" y1="86" x2="277.071" y2="91.34"/>
	
		<line fill="none" stroke="#262626" stroke-width="0.6667" stroke-linecap="square" stroke-linejoin="round" stroke-miterlimit="10" x1="292.548" y1="86" x2="292.548" y2="91.34"/>
	
		<line fill="none" stroke="#262626" stroke-width="0.6667" stroke-linecap="square" stroke-linejoin="round" stroke-miterlimit="10" x1="308.023" y1="86" x2="308.023" y2="91.34"/>
	
		<line fill="none" stroke="#262626" stroke-width="0.6667" stroke-linecap="square" stroke-linejoin="round" stroke-miterlimit="10" x1="323.5" y1="86" x2="323.5" y2="91.34"/>
	
		<line fill="none" stroke="#262626" stroke-width="0.6667" stroke-linecap="square" stroke-linejoin="round" stroke-miterlimit="10" x1="338.977" y1="86" x2="338.977" y2="91.34"/>
	
		<line fill="none" stroke="#262626" stroke-width="0.6667" stroke-linecap="square" stroke-linejoin="round" stroke-miterlimit="10" x1="354.452" y1="86" x2="354.452" y2="91.34"/>
	
		<line fill="none" stroke="#262626" stroke-width="0.6667" stroke-linecap="square" stroke-linejoin="round" stroke-miterlimit="10" x1="369.929" y1="86" x2="369.929" y2="91.34"/>
	
		<line fill="none" stroke="#262626" stroke-width="0.6667" stroke-linecap="square" stroke-linejoin="round" stroke-miterlimit="10" x1="385.404" y1="86" x2="385.404" y2="91.34"/>
	
		<line fill="none" stroke="#262626" stroke-width="0.6667" stroke-linecap="square" stroke-linejoin="round" stroke-miterlimit="10" x1="400.881" y1="86" x2="400.881" y2="91.34"/>
	
		<line fill="none" stroke="#262626" stroke-width="0.6667" stroke-linecap="square" stroke-linejoin="round" stroke-miterlimit="10" x1="416.357" y1="86" x2="416.357" y2="91.34"/>
	
		<line fill="none" stroke="#262626" stroke-width="0.6667" stroke-linecap="square" stroke-linejoin="round" stroke-miterlimit="10" x1="431.833" y1="86" x2="431.833" y2="91.34"/>
	
		<line fill="none" stroke="#262626" stroke-width="0.6667" stroke-linecap="square" stroke-linejoin="round" stroke-miterlimit="10" x1="447.31" y1="86" x2="447.31" y2="91.34"/>
	
		<line fill="none" stroke="#262626" stroke-width="0.6667" stroke-linecap="square" stroke-linejoin="round" stroke-miterlimit="10" x1="462.785" y1="86" x2="462.785" y2="91.34"/>
	
		<line fill="none" stroke="#262626" stroke-width="0.6667" stroke-linecap="square" stroke-linejoin="round" stroke-miterlimit="10" x1="478.262" y1="86" x2="478.262" y2="91.34"/>
	
		<line fill="none" stroke="#262626" stroke-width="0.6667" stroke-linecap="square" stroke-linejoin="round" stroke-miterlimit="10" x1="168.738" y1="620" x2="168.738" y2="614.66"/>
	
		<line fill="none" stroke="#262626" stroke-width="0.6667" stroke-linecap="square" stroke-linejoin="round" stroke-miterlimit="10" x1="184.214" y1="620" x2="184.214" y2="614.66"/>
	
		<line fill="none" stroke="#262626" stroke-width="0.6667" stroke-linecap="square" stroke-linejoin="round" stroke-miterlimit="10" x1="199.69" y1="620" x2="199.69" y2="614.66"/>
	
		<line fill="none" stroke="#262626" stroke-width="0.6667" stroke-linecap="square" stroke-linejoin="round" stroke-miterlimit="10" x1="215.167" y1="620" x2="215.167" y2="614.66"/>
	
		<line fill="none" stroke="#262626" stroke-width="0.6667" stroke-linecap="square" stroke-linejoin="round" stroke-miterlimit="10" x1="230.643" y1="620" x2="230.643" y2="614.66"/>
	
		<line fill="none" stroke="#262626" stroke-width="0.6667" stroke-linecap="square" stroke-linejoin="round" stroke-miterlimit="10" x1="246.119" y1="620" x2="246.119" y2="614.66"/>
	
		<line fill="none" stroke="#262626" stroke-width="0.6667" stroke-linecap="square" stroke-linejoin="round" stroke-miterlimit="10" x1="261.595" y1="620" x2="261.595" y2="614.66"/>
	
		<line fill="none" stroke="#262626" stroke-width="0.6667" stroke-linecap="square" stroke-linejoin="round" stroke-miterlimit="10" x1="277.071" y1="620" x2="277.071" y2="614.66"/>
	
		<line fill="none" stroke="#262626" stroke-width="0.6667" stroke-linecap="square" stroke-linejoin="round" stroke-miterlimit="10" x1="292.548" y1="620" x2="292.548" y2="614.66"/>
	
		<line fill="none" stroke="#262626" stroke-width="0.6667" stroke-linecap="square" stroke-linejoin="round" stroke-miterlimit="10" x1="308.023" y1="620" x2="308.023" y2="614.66"/>
	
		<line fill="none" stroke="#262626" stroke-width="0.6667" stroke-linecap="square" stroke-linejoin="round" stroke-miterlimit="10" x1="323.5" y1="620" x2="323.5" y2="614.66"/>
	
		<line fill="none" stroke="#262626" stroke-width="0.6667" stroke-linecap="square" stroke-linejoin="round" stroke-miterlimit="10" x1="338.977" y1="620" x2="338.977" y2="614.66"/>
	
		<line fill="none" stroke="#262626" stroke-width="0.6667" stroke-linecap="square" stroke-linejoin="round" stroke-miterlimit="10" x1="354.452" y1="620" x2="354.452" y2="614.66"/>
	
		<line fill="none" stroke="#262626" stroke-width="0.6667" stroke-linecap="square" stroke-linejoin="round" stroke-miterlimit="10" x1="369.929" y1="620" x2="369.929" y2="614.66"/>
	
		<line fill="none" stroke="#262626" stroke-width="0.6667" stroke-linecap="square" stroke-linejoin="round" stroke-miterlimit="10" x1="385.404" y1="620" x2="385.404" y2="614.66"/>
	
		<line fill="none" stroke="#262626" stroke-width="0.6667" stroke-linecap="square" stroke-linejoin="round" stroke-miterlimit="10" x1="400.881" y1="620" x2="400.881" y2="614.66"/>
	
		<line fill="none" stroke="#262626" stroke-width="0.6667" stroke-linecap="square" stroke-linejoin="round" stroke-miterlimit="10" x1="416.357" y1="620" x2="416.357" y2="614.66"/>
	
		<line fill="none" stroke="#262626" stroke-width="0.6667" stroke-linecap="square" stroke-linejoin="round" stroke-miterlimit="10" x1="431.833" y1="620" x2="431.833" y2="614.66"/>
	
		<line fill="none" stroke="#262626" stroke-width="0.6667" stroke-linecap="square" stroke-linejoin="round" stroke-miterlimit="10" x1="447.31" y1="620" x2="447.31" y2="614.66"/>
	
		<line fill="none" stroke="#262626" stroke-width="0.6667" stroke-linecap="square" stroke-linejoin="round" stroke-miterlimit="10" x1="462.785" y1="620" x2="462.785" y2="614.66"/>
	
		<line fill="none" stroke="#262626" stroke-width="0.6667" stroke-linecap="square" stroke-linejoin="round" stroke-miterlimit="10" x1="478.262" y1="620" x2="478.262" y2="614.66"/>
</g>
<g transform="translate(168.7381,80.6667) rotate(-45)">
	<text transform="matrix(1 0 0 1 2.441406e-004 -2.9998)" fill="#262626" font-family="'ArialMT'" font-size="13.3333">Or49a</text>
</g>
<g transform="translate(184.2143,80.6667) rotate(-45)">
	<text transform="matrix(1 0 0 1 -4.882813e-004 -3.0003)" fill="#262626" font-family="'ArialMT'" font-size="13.3333">Or94a-94b</text>
</g>
<g transform="translate(199.6905,80.6667) rotate(-45)">
	<text transform="matrix(1 0 0 1 -4.882813e-004 -2.9999)" fill="#262626" font-family="'ArialMT'" font-size="13.3333">Or83a</text>
</g>
<g transform="translate(215.1667,80.6667) rotate(-45)">
	<text transform="matrix(1 0 0 1 -9.765625e-004 -3.0003)" fill="#262626" font-family="'ArialMT'" font-size="13.3333">Or59a</text>
</g>
<g transform="translate(230.6429,80.6667) rotate(-45)">
	<text transform="matrix(1 0 0 1 -7.324219e-004 -3.0002)" fill="#262626" font-family="'ArialMT'" font-size="13.3333">Or45b</text>
</g>
<g transform="translate(246.119,80.6667) rotate(-45)">
	<text transform="matrix(1 0 0 1 -4.882813e-004 -2.9998)" fill="#262626" font-family="'ArialMT'" font-size="13.3333">Or30a</text>
</g>
<g transform="translate(261.5952,80.6667) rotate(-45)">
	<text transform="matrix(1 0 0 1 -0.0012 -3.0003)" fill="#262626" font-family="'ArialMT'" font-size="13.3333">Or24a</text>
</g>
<g transform="translate(277.0714,80.6667) rotate(-45)">
	<text transform="matrix(1 0 0 1 -0.0012 -3)" fill="#262626" font-family="'ArialMT'" font-size="13.3333">Or22c</text>
</g>
<g transform="translate(292.5476,80.6667) rotate(-45)">
	<text transform="matrix(1 0 0 1 -0.0017 -3.0004)" fill="#262626" font-family="'ArialMT'" font-size="13.3333">Or63a</text>
</g>
<g transform="translate(308.0238,80.6667) rotate(-45)">
	<text transform="matrix(1 0 0 1 -0.0015 -3)" fill="#262626" font-family="'ArialMT'" font-size="13.3333">Or1a</text>
</g>
<g transform="translate(323.5,80.6667) rotate(-45)">
	<text transform="matrix(1 0 0 1 -0.0012 -2.9996)" fill="#262626" font-family="'ArialMT'" font-size="13.3333">Or67b</text>
</g>
<g transform="translate(338.9762,80.6667) rotate(-45)">
	<text transform="matrix(1 0 0 1 -0.0017 -3)" fill="#262626" font-family="'ArialMT'" font-size="13.3333">Or35a</text>
</g>
<g transform="translate(354.4524,80.6667) rotate(-45)">
	<text transform="matrix(1 0 0 1 -0.0015 -2.9997)" fill="#262626" font-family="'ArialMT'" font-size="13.3333">Or33b-47a</text>
</g>
<g transform="translate(369.9286,80.6667) rotate(-45)">
	<text transform="matrix(1 0 0 1 -0.0015 -2.9995)" fill="#262626" font-family="'ArialMT'" font-size="13.3333">Or13a</text>
</g>
<g transform="translate(385.4048,80.6667) rotate(-45)">
	<text transform="matrix(1 0 0 1 -0.0017 -2.9998)" fill="#262626" font-family="'ArialMT'" font-size="13.3333">Or85c</text>
</g>
<g transform="translate(400.881,80.6667) rotate(-45)">
	<text transform="matrix(1 0 0 1 -0.0015 -2.9996)" fill="#262626" font-family="'ArialMT'" font-size="13.3333">Or45a</text>
</g>
<g transform="translate(416.3571,80.6667) rotate(-45)">
	<text transform="matrix(1 0 0 1 -0.0022 -2.9998)" fill="#262626" font-family="'ArialMT'" font-size="13.3333">Or74a</text>
</g>
<g transform="translate(431.8333,80.6667) rotate(-45)">
	<text transform="matrix(1 0 0 1 -0.0024 -2.9997)" fill="#262626" font-family="'ArialMT'" font-size="13.3333">Or42a</text>
</g>
<g transform="translate(447.3095,80.6667) rotate(-45)">
	<text transform="matrix(1 0 0 1 -0.0022 -2.9994)" fill="#262626" font-family="'ArialMT'" font-size="13.3333">Or82a</text>
</g>
<g transform="translate(462.7857,80.6667) rotate(-45)">
	<text transform="matrix(1 0 0 1 -0.0027 -2.9997)" fill="#262626" font-family="'ArialMT'" font-size="13.3333">Or42b</text>
</g>
<g transform="translate(478.2619,80.6667) rotate(-45)">
	<text transform="matrix(1 0 0 1 -0.0029 -2.9995)" fill="#262626" font-family="'ArialMT'" font-size="13.3333">Or33a</text>
</g>
<g>
	
		<line fill="none" stroke="#262626" stroke-width="0.6667" stroke-linecap="square" stroke-linejoin="round" stroke-miterlimit="10" x1="160.998" y1="86.002" x2="160.998" y2="620.002"/>
	
		<line fill="none" stroke="#262626" stroke-width="0.6667" stroke-linecap="square" stroke-linejoin="round" stroke-miterlimit="10" x1="485.998" y1="86.002" x2="485.998" y2="620.002"/>
	
		<line fill="none" stroke="#262626" stroke-width="0.6667" stroke-linecap="square" stroke-linejoin="round" stroke-miterlimit="10" x1="160.998" y1="93.855" x2="166.338" y2="93.855"/>
	
		<line fill="none" stroke="#262626" stroke-width="0.6667" stroke-linecap="square" stroke-linejoin="round" stroke-miterlimit="10" x1="160.998" y1="109.561" x2="166.338" y2="109.561"/>
	
		<line fill="none" stroke="#262626" stroke-width="0.6667" stroke-linecap="square" stroke-linejoin="round" stroke-miterlimit="10" x1="160.998" y1="125.267" x2="166.338" y2="125.267"/>
	
		<line fill="none" stroke="#262626" stroke-width="0.6667" stroke-linecap="square" stroke-linejoin="round" stroke-miterlimit="10" x1="160.998" y1="140.973" x2="166.338" y2="140.973"/>
	
		<line fill="none" stroke="#262626" stroke-width="0.6667" stroke-linecap="square" stroke-linejoin="round" stroke-miterlimit="10" x1="160.998" y1="156.679" x2="166.338" y2="156.679"/>
	
		<line fill="none" stroke="#262626" stroke-width="0.6667" stroke-linecap="square" stroke-linejoin="round" stroke-miterlimit="10" x1="160.998" y1="172.385" x2="166.338" y2="172.385"/>
	
		<line fill="none" stroke="#262626" stroke-width="0.6667" stroke-linecap="square" stroke-linejoin="round" stroke-miterlimit="10" x1="160.998" y1="188.09" x2="166.338" y2="188.09"/>
	
		<line fill="none" stroke="#262626" stroke-width="0.6667" stroke-linecap="square" stroke-linejoin="round" stroke-miterlimit="10" x1="160.998" y1="203.796" x2="166.338" y2="203.796"/>
	
		<line fill="none" stroke="#262626" stroke-width="0.6667" stroke-linecap="square" stroke-linejoin="round" stroke-miterlimit="10" x1="160.998" y1="219.502" x2="166.338" y2="219.502"/>
	
		<line fill="none" stroke="#262626" stroke-width="0.6667" stroke-linecap="square" stroke-linejoin="round" stroke-miterlimit="10" x1="160.998" y1="235.208" x2="166.338" y2="235.208"/>
	
		<line fill="none" stroke="#262626" stroke-width="0.6667" stroke-linecap="square" stroke-linejoin="round" stroke-miterlimit="10" x1="160.998" y1="250.915" x2="166.338" y2="250.915"/>
	
		<line fill="none" stroke="#262626" stroke-width="0.6667" stroke-linecap="square" stroke-linejoin="round" stroke-miterlimit="10" x1="160.998" y1="266.62" x2="166.338" y2="266.62"/>
	
		<line fill="none" stroke="#262626" stroke-width="0.6667" stroke-linecap="square" stroke-linejoin="round" stroke-miterlimit="10" x1="160.998" y1="282.326" x2="166.338" y2="282.326"/>
	
		<line fill="none" stroke="#262626" stroke-width="0.6667" stroke-linecap="square" stroke-linejoin="round" stroke-miterlimit="10" x1="160.998" y1="298.032" x2="166.338" y2="298.032"/>
	
		<line fill="none" stroke="#262626" stroke-width="0.6667" stroke-linecap="square" stroke-linejoin="round" stroke-miterlimit="10" x1="160.998" y1="313.738" x2="166.338" y2="313.738"/>
	
		<line fill="none" stroke="#262626" stroke-width="0.6667" stroke-linecap="square" stroke-linejoin="round" stroke-miterlimit="10" x1="160.998" y1="329.444" x2="166.338" y2="329.444"/>
	
		<line fill="none" stroke="#262626" stroke-width="0.6667" stroke-linecap="square" stroke-linejoin="round" stroke-miterlimit="10" x1="160.998" y1="345.15" x2="166.338" y2="345.15"/>
	
		<line fill="none" stroke="#262626" stroke-width="0.6667" stroke-linecap="square" stroke-linejoin="round" stroke-miterlimit="10" x1="160.998" y1="360.855" x2="166.338" y2="360.855"/>
	
		<line fill="none" stroke="#262626" stroke-width="0.6667" stroke-linecap="square" stroke-linejoin="round" stroke-miterlimit="10" x1="160.998" y1="376.561" x2="166.338" y2="376.561"/>
	
		<line fill="none" stroke="#262626" stroke-width="0.6667" stroke-linecap="square" stroke-linejoin="round" stroke-miterlimit="10" x1="160.998" y1="392.267" x2="166.338" y2="392.267"/>
	
		<line fill="none" stroke="#262626" stroke-width="0.6667" stroke-linecap="square" stroke-linejoin="round" stroke-miterlimit="10" x1="160.998" y1="407.973" x2="166.338" y2="407.973"/>
	
		<line fill="none" stroke="#262626" stroke-width="0.6667" stroke-linecap="square" stroke-linejoin="round" stroke-miterlimit="10" x1="160.998" y1="423.679" x2="166.338" y2="423.679"/>
	
		<line fill="none" stroke="#262626" stroke-width="0.6667" stroke-linecap="square" stroke-linejoin="round" stroke-miterlimit="10" x1="160.998" y1="439.385" x2="166.338" y2="439.385"/>
	
		<line fill="none" stroke="#262626" stroke-width="0.6667" stroke-linecap="square" stroke-linejoin="round" stroke-miterlimit="10" x1="160.998" y1="455.09" x2="166.338" y2="455.09"/>
	
		<line fill="none" stroke="#262626" stroke-width="0.6667" stroke-linecap="square" stroke-linejoin="round" stroke-miterlimit="10" x1="160.998" y1="470.796" x2="166.338" y2="470.796"/>
	
		<line fill="none" stroke="#262626" stroke-width="0.6667" stroke-linecap="square" stroke-linejoin="round" stroke-miterlimit="10" x1="160.998" y1="486.502" x2="166.338" y2="486.502"/>
	
		<line fill="none" stroke="#262626" stroke-width="0.6667" stroke-linecap="square" stroke-linejoin="round" stroke-miterlimit="10" x1="160.998" y1="502.208" x2="166.338" y2="502.208"/>
	
		<line fill="none" stroke="#262626" stroke-width="0.6667" stroke-linecap="square" stroke-linejoin="round" stroke-miterlimit="10" x1="160.998" y1="517.915" x2="166.338" y2="517.915"/>
	
		<line fill="none" stroke="#262626" stroke-width="0.6667" stroke-linecap="square" stroke-linejoin="round" stroke-miterlimit="10" x1="160.998" y1="533.62" x2="166.338" y2="533.62"/>
	
		<line fill="none" stroke="#262626" stroke-width="0.6667" stroke-linecap="square" stroke-linejoin="round" stroke-miterlimit="10" x1="160.998" y1="549.326" x2="166.338" y2="549.326"/>
	
		<line fill="none" stroke="#262626" stroke-width="0.6667" stroke-linecap="square" stroke-linejoin="round" stroke-miterlimit="10" x1="160.998" y1="565.032" x2="166.338" y2="565.032"/>
	
		<line fill="none" stroke="#262626" stroke-width="0.6667" stroke-linecap="square" stroke-linejoin="round" stroke-miterlimit="10" x1="160.998" y1="580.738" x2="166.338" y2="580.738"/>
	
		<line fill="none" stroke="#262626" stroke-width="0.6667" stroke-linecap="square" stroke-linejoin="round" stroke-miterlimit="10" x1="160.998" y1="596.444" x2="166.338" y2="596.444"/>
	
		<line fill="none" stroke="#262626" stroke-width="0.6667" stroke-linecap="square" stroke-linejoin="round" stroke-miterlimit="10" x1="160.998" y1="612.149" x2="166.338" y2="612.149"/>
	
		<line fill="none" stroke="#262626" stroke-width="0.6667" stroke-linecap="square" stroke-linejoin="round" stroke-miterlimit="10" x1="485.998" y1="93.855" x2="480.658" y2="93.855"/>
	
		<line fill="none" stroke="#262626" stroke-width="0.6667" stroke-linecap="square" stroke-linejoin="round" stroke-miterlimit="10" x1="485.998" y1="109.561" x2="480.658" y2="109.561"/>
	
		<line fill="none" stroke="#262626" stroke-width="0.6667" stroke-linecap="square" stroke-linejoin="round" stroke-miterlimit="10" x1="485.998" y1="125.267" x2="480.658" y2="125.267"/>
	
		<line fill="none" stroke="#262626" stroke-width="0.6667" stroke-linecap="square" stroke-linejoin="round" stroke-miterlimit="10" x1="485.998" y1="140.973" x2="480.658" y2="140.973"/>
	
		<line fill="none" stroke="#262626" stroke-width="0.6667" stroke-linecap="square" stroke-linejoin="round" stroke-miterlimit="10" x1="485.998" y1="156.679" x2="480.658" y2="156.679"/>
	
		<line fill="none" stroke="#262626" stroke-width="0.6667" stroke-linecap="square" stroke-linejoin="round" stroke-miterlimit="10" x1="485.998" y1="172.385" x2="480.658" y2="172.385"/>
	
		<line fill="none" stroke="#262626" stroke-width="0.6667" stroke-linecap="square" stroke-linejoin="round" stroke-miterlimit="10" x1="485.998" y1="188.09" x2="480.658" y2="188.09"/>
	
		<line fill="none" stroke="#262626" stroke-width="0.6667" stroke-linecap="square" stroke-linejoin="round" stroke-miterlimit="10" x1="485.998" y1="203.796" x2="480.658" y2="203.796"/>
	
		<line fill="none" stroke="#262626" stroke-width="0.6667" stroke-linecap="square" stroke-linejoin="round" stroke-miterlimit="10" x1="485.998" y1="219.502" x2="480.658" y2="219.502"/>
	
		<line fill="none" stroke="#262626" stroke-width="0.6667" stroke-linecap="square" stroke-linejoin="round" stroke-miterlimit="10" x1="485.998" y1="235.208" x2="480.658" y2="235.208"/>
	
		<line fill="none" stroke="#262626" stroke-width="0.6667" stroke-linecap="square" stroke-linejoin="round" stroke-miterlimit="10" x1="485.998" y1="250.915" x2="480.658" y2="250.915"/>
	
		<line fill="none" stroke="#262626" stroke-width="0.6667" stroke-linecap="square" stroke-linejoin="round" stroke-miterlimit="10" x1="485.998" y1="266.62" x2="480.658" y2="266.62"/>
	
		<line fill="none" stroke="#262626" stroke-width="0.6667" stroke-linecap="square" stroke-linejoin="round" stroke-miterlimit="10" x1="485.998" y1="282.326" x2="480.658" y2="282.326"/>
	
		<line fill="none" stroke="#262626" stroke-width="0.6667" stroke-linecap="square" stroke-linejoin="round" stroke-miterlimit="10" x1="485.998" y1="298.032" x2="480.658" y2="298.032"/>
	
		<line fill="none" stroke="#262626" stroke-width="0.6667" stroke-linecap="square" stroke-linejoin="round" stroke-miterlimit="10" x1="485.998" y1="313.738" x2="480.658" y2="313.738"/>
	
		<line fill="none" stroke="#262626" stroke-width="0.6667" stroke-linecap="square" stroke-linejoin="round" stroke-miterlimit="10" x1="485.998" y1="329.444" x2="480.658" y2="329.444"/>
	
		<line fill="none" stroke="#262626" stroke-width="0.6667" stroke-linecap="square" stroke-linejoin="round" stroke-miterlimit="10" x1="485.998" y1="345.15" x2="480.658" y2="345.15"/>
	
		<line fill="none" stroke="#262626" stroke-width="0.6667" stroke-linecap="square" stroke-linejoin="round" stroke-miterlimit="10" x1="485.998" y1="360.855" x2="480.658" y2="360.855"/>
	
		<line fill="none" stroke="#262626" stroke-width="0.6667" stroke-linecap="square" stroke-linejoin="round" stroke-miterlimit="10" x1="485.998" y1="376.561" x2="480.658" y2="376.561"/>
	
		<line fill="none" stroke="#262626" stroke-width="0.6667" stroke-linecap="square" stroke-linejoin="round" stroke-miterlimit="10" x1="485.998" y1="392.267" x2="480.658" y2="392.267"/>
	
		<line fill="none" stroke="#262626" stroke-width="0.6667" stroke-linecap="square" stroke-linejoin="round" stroke-miterlimit="10" x1="485.998" y1="407.973" x2="480.658" y2="407.973"/>
	
		<line fill="none" stroke="#262626" stroke-width="0.6667" stroke-linecap="square" stroke-linejoin="round" stroke-miterlimit="10" x1="485.998" y1="423.679" x2="480.658" y2="423.679"/>
	
		<line fill="none" stroke="#262626" stroke-width="0.6667" stroke-linecap="square" stroke-linejoin="round" stroke-miterlimit="10" x1="485.998" y1="439.385" x2="480.658" y2="439.385"/>
	
		<line fill="none" stroke="#262626" stroke-width="0.6667" stroke-linecap="square" stroke-linejoin="round" stroke-miterlimit="10" x1="485.998" y1="455.09" x2="480.658" y2="455.09"/>
	
		<line fill="none" stroke="#262626" stroke-width="0.6667" stroke-linecap="square" stroke-linejoin="round" stroke-miterlimit="10" x1="485.998" y1="470.796" x2="480.658" y2="470.796"/>
	
		<line fill="none" stroke="#262626" stroke-width="0.6667" stroke-linecap="square" stroke-linejoin="round" stroke-miterlimit="10" x1="485.998" y1="486.502" x2="480.658" y2="486.502"/>
	
		<line fill="none" stroke="#262626" stroke-width="0.6667" stroke-linecap="square" stroke-linejoin="round" stroke-miterlimit="10" x1="485.998" y1="502.208" x2="480.658" y2="502.208"/>
	
		<line fill="none" stroke="#262626" stroke-width="0.6667" stroke-linecap="square" stroke-linejoin="round" stroke-miterlimit="10" x1="485.998" y1="517.915" x2="480.658" y2="517.915"/>
	
		<line fill="none" stroke="#262626" stroke-width="0.6667" stroke-linecap="square" stroke-linejoin="round" stroke-miterlimit="10" x1="485.998" y1="533.62" x2="480.658" y2="533.62"/>
	
		<line fill="none" stroke="#262626" stroke-width="0.6667" stroke-linecap="square" stroke-linejoin="round" stroke-miterlimit="10" x1="485.998" y1="549.326" x2="480.658" y2="549.326"/>
	
		<line fill="none" stroke="#262626" stroke-width="0.6667" stroke-linecap="square" stroke-linejoin="round" stroke-miterlimit="10" x1="485.998" y1="565.032" x2="480.658" y2="565.032"/>
	
		<line fill="none" stroke="#262626" stroke-width="0.6667" stroke-linecap="square" stroke-linejoin="round" stroke-miterlimit="10" x1="485.998" y1="580.738" x2="480.658" y2="580.738"/>
	
		<line fill="none" stroke="#262626" stroke-width="0.6667" stroke-linecap="square" stroke-linejoin="round" stroke-miterlimit="10" x1="485.998" y1="596.444" x2="480.658" y2="596.444"/>
	
		<line fill="none" stroke="#262626" stroke-width="0.6667" stroke-linecap="square" stroke-linejoin="round" stroke-miterlimit="10" x1="485.998" y1="612.149" x2="480.658" y2="612.149"/>
</g>
<g transform="translate(155.6667,93.8529)">
	<text transform="matrix(1 0 0 1 -99.0015 5.5021)" fill="#262626" font-family="'ArialMT'" font-size="13.3333">2-phenyl ethanol</text>
</g>
<g transform="translate(155.6667,109.5588)">
	<text transform="matrix(1 0 0 1 -48.0015 5.5022)" fill="#262626" font-family="'ArialMT'" font-size="13.3333">menthol</text>
</g>
<g transform="translate(155.6667,125.2647)">
	<text transform="matrix(1 0 0 1 -149.0015 5.5024)" fill="#262626" font-family="'ArialMT'" font-size="13.3333">2-methoxyphenyl acetate</text>
</g>
<g transform="translate(155.6667,140.9706)">
	<text transform="matrix(1 0 0 1 -52.0015 5.5026)" fill="#262626" font-family="'ArialMT'" font-size="13.3333">myrtenal</text>
</g>
<g transform="translate(155.6667,156.6765)">
	<text transform="matrix(1 0 0 1 -126.0015 5.5027)" fill="#262626" font-family="'ArialMT'" font-size="13.3333">4-methylcyclohexane</text>
</g>
<g transform="translate(155.6667,172.3824)">
	<text transform="matrix(1 0 0 1 -119.0015 5.5028)" fill="#262626" font-family="'ArialMT'" font-size="13.3333">4,5-dimethylthiazole</text>
</g>
<g transform="translate(155.6667,188.0882)">
	<text transform="matrix(1 0 0 1 -140.0015 5.5022)" fill="#262626" font-family="'ArialMT'" font-size="13.3333">4-methyl-5-vinylthiazole</text>
</g>
<g transform="translate(155.6667,203.7941)">
	<text transform="matrix(1 0 0 1 -43.0015 5.5023)" fill="#262626" font-family="'ArialMT'" font-size="13.3333">anisole</text>
</g>
<g transform="translate(155.6667,219.5)">
	<text transform="matrix(1 0 0 1 -94.0015 5.5024)" fill="#262626" font-family="'ArialMT'" font-size="13.3333">2-acetylpyridine</text>
</g>
<g transform="translate(155.6667,235.2059)">
	<text transform="matrix(1 0 0 1 -123.0015 5.5026)" fill="#262626" font-family="'ArialMT'" font-size="13.3333">2,5-dimethylpyrazine</text>
</g>
<g transform="translate(155.6667,250.9118)">
	<text transform="matrix(1 0 0 1 -125.0015 5.5027)" fill="#262626" font-family="'ArialMT'" font-size="13.3333">methyl phenyl sulfide</text>
</g>
<g transform="translate(155.6667,266.6176)">
	<text transform="matrix(1 0 0 1 -83.0015 5.502)" fill="#262626" font-family="'ArialMT'" font-size="13.3333">benzaldehyde</text>
</g>
<g transform="translate(155.6667,282.3235)">
	<text transform="matrix(1 0 0 1 -98.0015 5.5022)" fill="#262626" font-family="'ArialMT'" font-size="13.3333">methyl salicylate</text>
</g>
<g transform="translate(155.6667,298.0294)">
	<text transform="matrix(1 0 0 1 -109.0015 5.5023)" fill="#262626" font-family="'ArialMT'" font-size="13.3333">4-pheny-2-butanol</text>
</g>
<g transform="translate(155.6667,313.7353)">
	<text transform="matrix(1 0 0 1 -86.0015 5.5024)" fill="#262626" font-family="'ArialMT'" font-size="13.3333">benzyl acetate</text>
</g>
<g transform="translate(155.6667,329.4412)">
	<text transform="matrix(1 0 0 1 -42.0015 5.5027)" fill="#262626" font-family="'ArialMT'" font-size="13.3333">linalool</text>
</g>
<g transform="translate(155.6667,345.1471)">
	<text transform="matrix(1 0 0 1 -63.0015 5.5028)" fill="#262626" font-family="'ArialMT'" font-size="13.3333">1-pentanol</text>
</g>
<g transform="translate(155.6667,360.8529)">
	<text transform="matrix(1 0 0 1 -109.0015 5.5021)" fill="#262626" font-family="'ArialMT'" font-size="13.3333">trans-3-hexen-1-ol</text>
</g>
<g transform="translate(155.6667,376.5588)">
	<text transform="matrix(1 0 0 1 -83.0015 5.5022)" fill="#262626" font-family="'ArialMT'" font-size="13.3333">pentyl acetate</text>
</g>
<g transform="translate(155.6667,392.2647)">
	<text transform="matrix(1 0 0 1 -72.0015 5.5024)" fill="#262626" font-family="'ArialMT'" font-size="13.3333">2-nonanone</text>
</g>
<g transform="translate(155.6667,407.9706)">
	<text transform="matrix(1 0 0 1 -79.0015 5.5026)" fill="#262626" font-family="'ArialMT'" font-size="13.3333">hexyl acetate</text>
</g>
<g transform="translate(155.6667,423.6765)">
	<text transform="matrix(1 0 0 1 -135.0015 5.5027)" fill="#262626" font-family="'ArialMT'" font-size="13.3333">6-methyl-5-hepten-2-ol</text>
</g>
<g transform="translate(155.6667,439.3824)">
	<text transform="matrix(1 0 0 1 -55.0015 5.5029)" fill="#262626" font-family="'ArialMT'" font-size="13.3333">3-octanol</text>
</g>
<g transform="translate(155.6667,455.0882)">
	<text transform="matrix(1 0 0 1 -75.0015 5.5022)" fill="#262626" font-family="'ArialMT'" font-size="13.3333">2-heptanone</text>
</g>
<g transform="translate(155.6667,470.7941)">
	<text transform="matrix(1 0 0 1 -76.0015 5.5023)" fill="#262626" font-family="'ArialMT'" font-size="13.3333">butyl acetate</text>
</g>
<g transform="translate(155.6667,486.5)">
	<text transform="matrix(1 0 0 1 -93.0015 5.5024)" fill="#262626" font-family="'ArialMT'" font-size="13.3333">isoamyl acetate</text>
</g>
<g transform="translate(155.6667,502.2059)">
	<text transform="matrix(1 0 0 1 -156.0015 5.5026)" fill="#262626" font-family="'ArialMT'" font-size="13.3333">trans,trans-2,4-nonadienal</text>
</g>
<g transform="translate(155.6667,517.9117)">
	<text transform="matrix(1 0 0 1 -80.0015 5.5029)" fill="#262626" font-family="'ArialMT'" font-size="13.3333">ethyl butyrate</text>
</g>
<g transform="translate(155.6667,533.6177)">
	<text transform="matrix(1 0 0 1 -87.0015 5.502)" fill="#262626" font-family="'ArialMT'" font-size="13.3333">4-hexen-3-one</text>
</g>
<g transform="translate(155.6667,549.3235)">
	<text transform="matrix(1 0 0 1 -63.0015 5.5022)" fill="#262626" font-family="'ArialMT'" font-size="13.3333">3-pentanol</text>
</g>
<g transform="translate(155.6667,565.0294)">
	<text transform="matrix(1 0 0 1 -92.0015 5.5023)" fill="#262626" font-family="'ArialMT'" font-size="13.3333">geranyl acetate</text>
</g>
<g transform="translate(155.6667,580.7353)">
	<text transform="matrix(1 0 0 1 -76.0015 5.5024)" fill="#262626" font-family="'ArialMT'" font-size="13.3333">ethyl acetate</text>
</g>
<g transform="translate(155.6667,596.4412)">
	<text transform="matrix(1 0 0 1 -45.0015 5.5027)" fill="#262626" font-family="'ArialMT'" font-size="13.3333">nonane</text>
</g>
<g transform="translate(155.6667,612.147)">
	<text transform="matrix(1 0 0 1 -36.0015 5.502)" fill="#262626" font-family="'ArialMT'" font-size="13.3333">acetal</text>
</g>
<g>
	
		<line fill="none" stroke="#262626" stroke-width="0.6667" stroke-linecap="square" stroke-linejoin="round" stroke-miterlimit="10" x1="499.987" y1="620.002" x2="520.987" y2="620.002"/>
	
		<line fill="none" stroke="#262626" stroke-width="0.6667" stroke-linecap="square" stroke-linejoin="round" stroke-miterlimit="10" x1="499.987" y1="83.002" x2="520.987" y2="83.002"/>
	
		<line fill="none" stroke="#262626" stroke-width="0.6667" stroke-linecap="square" stroke-linejoin="round" stroke-miterlimit="10" x1="499.987" y1="620.002" x2="499.987" y2="83.002"/>
	
		<line fill="none" stroke="#262626" stroke-width="0.6667" stroke-linecap="square" stroke-linejoin="round" stroke-miterlimit="10" x1="520.987" y1="620.002" x2="520.987" y2="83.002"/>
</g>
<g transform="matrix(0.5,0,0,0.5,512,83)">
	<g>
		<defs>
			<polygon id="SVGID_3_" points="-24.027,1074.005 17.973,1074.005 17.973,0.005 			"/>
		</defs>
		<clipPath id="SVGID_4_">
			<use xlink:href="#SVGID_3_"  overflow="visible"/>
		</clipPath>
		<g clip-path="url(#SVGID_4_)" enable-background="new    ">
			<image overflow="visible" width="42" height="1074" xlink:href="423676C0.jpg"  transform="matrix(1 0 0 1 -24.0269 0.0049)">
			</image>
		</g>
	</g>
	<g>
		<defs>
			<polygon id="SVGID_5_" points="17.973,0.005 -24.027,0.005 -24.027,1074.005 			"/>
		</defs>
		<clipPath id="SVGID_6_">
			<use xlink:href="#SVGID_5_"  overflow="visible"/>
		</clipPath>
		<g clip-path="url(#SVGID_6_)" enable-background="new    ">
			<image overflow="visible" width="42" height="1074" xlink:href="423676C7.jpg"  transform="matrix(1 0 0 1 -24.0269 0.0049)">
			</image>
		</g>
	</g>
</g>
<g>
	
		<line fill="none" stroke="#262626" stroke-width="0.6667" stroke-linecap="square" stroke-linejoin="round" stroke-miterlimit="10" x1="520.987" y1="620.002" x2="520.987" y2="83.002"/>
	
		<line fill="none" stroke="#262626" stroke-width="0.6667" stroke-linecap="square" stroke-linejoin="round" stroke-miterlimit="10" x1="520.987" y1="620.002" x2="515.616" y2="620.002"/>
	
		<line fill="none" stroke="#262626" stroke-width="0.6667" stroke-linecap="square" stroke-linejoin="round" stroke-miterlimit="10" x1="520.987" y1="563.476" x2="515.616" y2="563.476"/>
	
		<line fill="none" stroke="#262626" stroke-width="0.6667" stroke-linecap="square" stroke-linejoin="round" stroke-miterlimit="10" x1="520.987" y1="506.95" x2="515.616" y2="506.95"/>
	
		<line fill="none" stroke="#262626" stroke-width="0.6667" stroke-linecap="square" stroke-linejoin="round" stroke-miterlimit="10" x1="520.987" y1="450.423" x2="515.616" y2="450.423"/>
	
		<line fill="none" stroke="#262626" stroke-width="0.6667" stroke-linecap="square" stroke-linejoin="round" stroke-miterlimit="10" x1="520.987" y1="393.897" x2="515.616" y2="393.897"/>
	
		<line fill="none" stroke="#262626" stroke-width="0.6667" stroke-linecap="square" stroke-linejoin="round" stroke-miterlimit="10" x1="520.987" y1="337.371" x2="515.616" y2="337.371"/>
	
		<line fill="none" stroke="#262626" stroke-width="0.6667" stroke-linecap="square" stroke-linejoin="round" stroke-miterlimit="10" x1="520.987" y1="280.844" x2="515.616" y2="280.844"/>
	
		<line fill="none" stroke="#262626" stroke-width="0.6667" stroke-linecap="square" stroke-linejoin="round" stroke-miterlimit="10" x1="520.987" y1="224.318" x2="515.616" y2="224.318"/>
	
		<line fill="none" stroke="#262626" stroke-width="0.6667" stroke-linecap="square" stroke-linejoin="round" stroke-miterlimit="10" x1="520.987" y1="167.792" x2="515.616" y2="167.792"/>
	
		<line fill="none" stroke="#262626" stroke-width="0.6667" stroke-linecap="square" stroke-linejoin="round" stroke-miterlimit="10" x1="520.987" y1="111.266" x2="515.616" y2="111.266"/>
</g>
<g>
	
		<line fill="none" stroke="#262626" stroke-width="0.6667" stroke-linecap="square" stroke-linejoin="round" stroke-miterlimit="10" x1="499.987" y1="83.002" x2="520.987" y2="83.002"/>
	
		<line fill="none" stroke="#262626" stroke-width="0.6667" stroke-linecap="square" stroke-linejoin="round" stroke-miterlimit="10" x1="499.987" y1="620.002" x2="520.987" y2="620.002"/>
	
		<line fill="none" stroke="#262626" stroke-width="0.6667" stroke-linecap="square" stroke-linejoin="round" stroke-miterlimit="10" x1="499.987" y1="620.002" x2="499.987" y2="83.002"/>
	
		<line fill="none" stroke="#262626" stroke-width="0.6667" stroke-linecap="square" stroke-linejoin="round" stroke-miterlimit="10" x1="520.987" y1="620.002" x2="520.987" y2="83.002"/>
	
		<line fill="none" stroke="#333333" stroke-width="0.6667" stroke-linecap="square" stroke-linejoin="round" stroke-miterlimit="10" x1="499.987" y1="620.002" x2="499.987" y2="620.002"/>
	
		<line fill="none" stroke="#333333" stroke-width="0.6667" stroke-linecap="square" stroke-linejoin="round" stroke-miterlimit="10" x1="499.987" y1="83.002" x2="499.987" y2="83.002"/>
	
		<line fill="none" stroke="#333333" stroke-width="0.6667" stroke-linecap="square" stroke-linejoin="round" stroke-miterlimit="10" x1="520.987" y1="620.002" x2="520.987" y2="620.002"/>
	
		<line fill="none" stroke="#333333" stroke-width="0.6667" stroke-linecap="square" stroke-linejoin="round" stroke-miterlimit="10" x1="520.987" y1="83.002" x2="520.987" y2="83.002"/>
</g>
<text transform="matrix(4.489659e-011 -1 1 4.489659e-011 572.1643 366.354)" font-family="'ArialMT'" font-size="16">EC50</text>
<text transform="matrix(1 0 0 1 525.4153 116.2651)"><tspan x="0" y="0" font-family="'ArialMT'" font-size="15">10</tspan><tspan x="16.685" y="-5" font-family="'ArialMT'" font-size="12">-9</tspan></text>
<text transform="matrix(1 0 0 1 525.4153 172.7915)"><tspan x="0" y="0" font-family="'ArialMT'" font-size="15">10</tspan><tspan x="16.685" y="-5" font-family="'ArialMT'" font-size="12">-8</tspan></text>
<text transform="matrix(1 0 0 1 525.4153 228.1514)"><tspan x="0" y="0" font-family="'ArialMT'" font-size="15">10</tspan><tspan x="16.685" y="-5" font-family="'ArialMT'" font-size="12">-7</tspan></text>
<text transform="matrix(1 0 0 1 525.4153 284.6777)"><tspan x="0" y="0" font-family="'ArialMT'" font-size="15">10</tspan><tspan x="16.685" y="-5" font-family="'ArialMT'" font-size="12">-6</tspan></text>
<text transform="matrix(1 0 0 1 525.4153 341.4702)"><tspan x="0" y="0" font-family="'ArialMT'" font-size="15">10</tspan><tspan x="16.685" y="-5" font-family="'ArialMT'" font-size="12">-5</tspan></text>
<text transform="matrix(1 0 0 1 525.4153 397.9966)"><tspan x="0" y="0" font-family="'ArialMT'" font-size="15">10</tspan><tspan x="16.685" y="-5" font-family="'ArialMT'" font-size="12">-4</tspan></text>
<text transform="matrix(1 0 0 1 525.4153 454.3569)"><tspan x="0" y="0" font-family="'ArialMT'" font-size="15">10</tspan><tspan x="16.685" y="-5" font-family="'ArialMT'" font-size="12">-3</tspan></text>
<text transform="matrix(1 0 0 1 525.4153 510.8833)"><tspan x="0" y="0" font-family="'ArialMT'" font-size="15">10</tspan><tspan x="16.685" y="-5" font-family="'ArialMT'" font-size="12">-2</tspan></text>
<text transform="matrix(1 0 0 1 525.4153 567.5298)"><tspan x="0" y="0" font-family="'ArialMT'" font-size="15">10</tspan><tspan x="16.685" y="-5" font-family="'ArialMT'" font-size="12">-1</tspan></text>
<text transform="matrix(1 0 0 1 525.4153 620.8882)"><tspan x="0" y="0" font-family="'ArialMT'" font-size="15">10</tspan><tspan x="16.685" y="-5" font-family="'ArialMT'" font-size="12">-0</tspan></text>
</svg>
