<?xml version="1.0" encoding="utf-8"?>
<!-- Generator: Adobe Illustrator 16.0.3, SVG Export Plug-In . SVG Version: 6.00 Build 0)  -->
<!DOCTYPE svg PUBLIC "-//W3C//DTD SVG 1.1//EN" "http://www.w3.org/Graphics/SVG/1.1/DTD/svg11.dtd">
<svg version="1.1" id="Layer_1" xmlns="http://www.w3.org/2000/svg" xmlns:xlink="http://www.w3.org/1999/xlink" x="0px" y="0px"
	 width="560px" height="420px" viewBox="0 0 560 420" enable-background="new 0 0 560 420" xml:space="preserve">
<g>
	
		<line fill="none" stroke="#262626" stroke-width="0.6667" stroke-linecap="square" stroke-linejoin="round" stroke-miterlimit="10" x1="73" y1="374" x2="507" y2="374"/>
	
		<line fill="none" stroke="#262626" stroke-width="0.6667" stroke-linecap="square" stroke-linejoin="round" stroke-miterlimit="10" x1="73" y1="31" x2="507" y2="31"/>
	
		<line fill="none" stroke="#262626" stroke-width="0.6667" stroke-linecap="square" stroke-linejoin="round" stroke-miterlimit="10" x1="73" y1="374" x2="73" y2="369.66"/>
	
		<line fill="none" stroke="#262626" stroke-width="0.6667" stroke-linecap="square" stroke-linejoin="round" stroke-miterlimit="10" x1="159.8" y1="374" x2="159.8" y2="369.66"/>
	
		<line fill="none" stroke="#262626" stroke-width="0.6667" stroke-linecap="square" stroke-linejoin="round" stroke-miterlimit="10" x1="246.6" y1="374" x2="246.6" y2="369.66"/>
	
		<line fill="none" stroke="#262626" stroke-width="0.6667" stroke-linecap="square" stroke-linejoin="round" stroke-miterlimit="10" x1="333.4" y1="374" x2="333.4" y2="369.66"/>
	
		<line fill="none" stroke="#262626" stroke-width="0.6667" stroke-linecap="square" stroke-linejoin="round" stroke-miterlimit="10" x1="420.2" y1="374" x2="420.2" y2="369.66"/>
	
		<line fill="none" stroke="#262626" stroke-width="0.6667" stroke-linecap="square" stroke-linejoin="round" stroke-miterlimit="10" x1="507" y1="374" x2="507" y2="369.66"/>
	
		<line fill="none" stroke="#262626" stroke-width="0.6667" stroke-linecap="square" stroke-linejoin="round" stroke-miterlimit="10" x1="73" y1="31" x2="73" y2="35.34"/>
	
		<line fill="none" stroke="#262626" stroke-width="0.6667" stroke-linecap="square" stroke-linejoin="round" stroke-miterlimit="10" x1="159.8" y1="31" x2="159.8" y2="35.34"/>
	
		<line fill="none" stroke="#262626" stroke-width="0.6667" stroke-linecap="square" stroke-linejoin="round" stroke-miterlimit="10" x1="246.6" y1="31" x2="246.6" y2="35.34"/>
	
		<line fill="none" stroke="#262626" stroke-width="0.6667" stroke-linecap="square" stroke-linejoin="round" stroke-miterlimit="10" x1="333.4" y1="31" x2="333.4" y2="35.34"/>
	
		<line fill="none" stroke="#262626" stroke-width="0.6667" stroke-linecap="square" stroke-linejoin="round" stroke-miterlimit="10" x1="420.2" y1="31" x2="420.2" y2="35.34"/>
	
		<line fill="none" stroke="#262626" stroke-width="0.6667" stroke-linecap="square" stroke-linejoin="round" stroke-miterlimit="10" x1="507" y1="31" x2="507" y2="35.34"/>
</g>
<g transform="translate(73,379.3333)">
	<text transform="matrix(1 0 0 1 -10 13.9998)" fill="#262626" font-family="'SansSerif'" font-size="13.3333">-15</text>
</g>
<g transform="translate(159.8,379.3333)">
	<text transform="matrix(1 0 0 1 -10.0002 13.9998)" fill="#262626" font-family="'ArialMT'" font-size="13.3333">-10</text>
</g>
<g transform="translate(246.6,379.3333)">
	<text transform="matrix(1 0 0 1 -5.9999 13.9998)" fill="#262626" font-family="'ArialMT'" font-size="13.3333">-5</text>
</g>
<g transform="translate(333.4,379.3333)">
	<text transform="matrix(1 0 0 1 -3.9995 13.9998)" fill="#262626" font-family="'ArialMT'" font-size="13.3333">0</text>
</g>
<g transform="translate(420.2,379.3333)">
	<text transform="matrix(1 0 0 1 -3.9998 13.9998)" fill="#262626" font-family="'ArialMT'" font-size="13.3333">5</text>
</g>
<g transform="translate(507,379.3333)">
	<text transform="matrix(1 0 0 1 -7.5 13.9998)" fill="#262626" font-family="'ArialMT'" font-size="13.3333">10</text>
</g>
<g transform="translate(290.0002,397.6667)">
	<text transform="matrix(1 0 0 1 -67.0002 15.0002)" fill="#262626" font-family="'ArialMT'" font-size="14.6667">Projection on 1st PC</text>
</g>
<g>
	
		<line fill="none" stroke="#262626" stroke-width="0.6667" stroke-linecap="square" stroke-linejoin="round" stroke-miterlimit="10" x1="73" y1="374" x2="73" y2="31"/>
	
		<line fill="none" stroke="#262626" stroke-width="0.6667" stroke-linecap="square" stroke-linejoin="round" stroke-miterlimit="10" x1="507" y1="374" x2="507" y2="31"/>
	
		<line fill="none" stroke="#262626" stroke-width="0.6667" stroke-linecap="square" stroke-linejoin="round" stroke-miterlimit="10" x1="73" y1="374" x2="77.34" y2="374"/>
	
		<line fill="none" stroke="#262626" stroke-width="0.6667" stroke-linecap="square" stroke-linejoin="round" stroke-miterlimit="10" x1="73" y1="331.125" x2="77.34" y2="331.125"/>
	
		<line fill="none" stroke="#262626" stroke-width="0.6667" stroke-linecap="square" stroke-linejoin="round" stroke-miterlimit="10" x1="73" y1="288.25" x2="77.34" y2="288.25"/>
	
		<line fill="none" stroke="#262626" stroke-width="0.6667" stroke-linecap="square" stroke-linejoin="round" stroke-miterlimit="10" x1="73" y1="245.375" x2="77.34" y2="245.375"/>
	
		<line fill="none" stroke="#262626" stroke-width="0.6667" stroke-linecap="square" stroke-linejoin="round" stroke-miterlimit="10" x1="73" y1="202.5" x2="77.34" y2="202.5"/>
	
		<line fill="none" stroke="#262626" stroke-width="0.6667" stroke-linecap="square" stroke-linejoin="round" stroke-miterlimit="10" x1="73" y1="159.625" x2="77.34" y2="159.625"/>
	
		<line fill="none" stroke="#262626" stroke-width="0.6667" stroke-linecap="square" stroke-linejoin="round" stroke-miterlimit="10" x1="73" y1="116.75" x2="77.34" y2="116.75"/>
	
		<line fill="none" stroke="#262626" stroke-width="0.6667" stroke-linecap="square" stroke-linejoin="round" stroke-miterlimit="10" x1="73" y1="73.875" x2="77.34" y2="73.875"/>
	
		<line fill="none" stroke="#262626" stroke-width="0.6667" stroke-linecap="square" stroke-linejoin="round" stroke-miterlimit="10" x1="73" y1="31" x2="77.34" y2="31"/>
	
		<line fill="none" stroke="#262626" stroke-width="0.6667" stroke-linecap="square" stroke-linejoin="round" stroke-miterlimit="10" x1="507" y1="374" x2="502.66" y2="374"/>
	
		<line fill="none" stroke="#262626" stroke-width="0.6667" stroke-linecap="square" stroke-linejoin="round" stroke-miterlimit="10" x1="507" y1="331.125" x2="502.66" y2="331.125"/>
	
		<line fill="none" stroke="#262626" stroke-width="0.6667" stroke-linecap="square" stroke-linejoin="round" stroke-miterlimit="10" x1="507" y1="288.25" x2="502.66" y2="288.25"/>
	
		<line fill="none" stroke="#262626" stroke-width="0.6667" stroke-linecap="square" stroke-linejoin="round" stroke-miterlimit="10" x1="507" y1="245.375" x2="502.66" y2="245.375"/>
	
		<line fill="none" stroke="#262626" stroke-width="0.6667" stroke-linecap="square" stroke-linejoin="round" stroke-miterlimit="10" x1="507" y1="202.5" x2="502.66" y2="202.5"/>
	
		<line fill="none" stroke="#262626" stroke-width="0.6667" stroke-linecap="square" stroke-linejoin="round" stroke-miterlimit="10" x1="507" y1="159.625" x2="502.66" y2="159.625"/>
	
		<line fill="none" stroke="#262626" stroke-width="0.6667" stroke-linecap="square" stroke-linejoin="round" stroke-miterlimit="10" x1="507" y1="116.75" x2="502.66" y2="116.75"/>
	
		<line fill="none" stroke="#262626" stroke-width="0.6667" stroke-linecap="square" stroke-linejoin="round" stroke-miterlimit="10" x1="507" y1="73.875" x2="502.66" y2="73.875"/>
	
		<line fill="none" stroke="#262626" stroke-width="0.6667" stroke-linecap="square" stroke-linejoin="round" stroke-miterlimit="10" x1="507" y1="31" x2="502.66" y2="31"/>
</g>
<g transform="translate(67.6667,374)">
	<text transform="matrix(1 0 0 1 -18.9998 5.5)" fill="#262626" font-family="'ArialMT'" font-size="13.3333">0.6</text>
</g>
<g transform="translate(67.6667,331.125)">
	<text transform="matrix(1 0 0 1 -25.9998 5.5)" fill="#262626" font-family="'ArialMT'" font-size="13.3333">0.65</text>
</g>
<g transform="translate(67.6667,288.25)">
	<text transform="matrix(1 0 0 1 -18.9998 5.5)" fill="#262626" font-family="'ArialMT'" font-size="13.3333">0.7</text>
</g>
<g transform="translate(67.6667,245.375)">
	<text transform="matrix(1 0 0 1 -25.9998 5.5)" fill="#262626" font-family="'ArialMT'" font-size="13.3333">0.75</text>
</g>
<g transform="translate(67.6667,202.5)">
	<text transform="matrix(1 0 0 1 -18.9998 5.5)" fill="#262626" font-family="'ArialMT'" font-size="13.3333">0.8</text>
</g>
<g transform="translate(67.6667,159.625)">
	<text transform="matrix(1 0 0 1 -25.9998 5.5)" fill="#262626" font-family="'ArialMT'" font-size="13.3333">0.85</text>
</g>
<g transform="translate(67.6667,116.75)">
	<text transform="matrix(1 0 0 1 -18.9998 5.5)" fill="#262626" font-family="'ArialMT'" font-size="13.3333">0.9</text>
</g>
<g transform="translate(67.6667,73.875)">
	<text transform="matrix(1 0 0 1 -25.9998 5.5)" fill="#262626" font-family="'ArialMT'" font-size="13.3333">0.95</text>
</g>
<g transform="translate(67.6667,31)">
	<text transform="matrix(1 0 0 1 -7.9998 5.5)" fill="#262626" font-family="'ArialMT'" font-size="13.3333">1</text>
</g>
<g transform="translate(37.6667,202.4998) rotate(-90)">
	<text transform="matrix(1 0 0 1 -13.0002 -3.9998)" fill="#262626" font-family="'ArialMT'" font-size="14.6667">P1s</text>
</g>
<g transform="translate(290.0003,28.25)">
	<text transform="matrix(1 0 0 1 -54.0002 -4)" font-family="'ArialMT'" font-size="14.6667">Correlation: 0.8</text>
</g>
<g transform="translate(370.0706,55.01)">
	<circle fill="none" stroke="#000000" stroke-miterlimit="10" cx="0" cy="0" r="4"/>
	<circle fill="none" stroke="#000000" stroke-miterlimit="10" cx="-45.585" cy="192.08" r="4"/>
	<circle fill="none" stroke="#000000" stroke-miterlimit="10" cx="33.574" cy="93.468" r="4"/>
	<circle fill="none" stroke="#000000" stroke-miterlimit="10" cx="69.071" cy="41.16" r="4"/>
	<circle fill="none" stroke="#000000" stroke-miterlimit="10" cx="64.781" cy="27.44" r="4"/>
	<circle fill="none" stroke="#000000" stroke-miterlimit="10" cx="-174.212" cy="176.645" r="4"/>
	<circle fill="none" stroke="#000000" stroke-miterlimit="10" cx="-137.804" cy="179.218" r="4"/>
	<circle fill="none" stroke="#000000" stroke-miterlimit="10" cx="-143.574" cy="181.79" r="4"/>
	<circle fill="none" stroke="#000000" stroke-miterlimit="10" cx="-122.056" cy="165.498" r="4"/>
	<circle fill="none" stroke="#000000" stroke-miterlimit="10" cx="74.359" cy="24.01" r="4"/>
	<circle fill="none" stroke="#000000" stroke-miterlimit="10" cx="-36.317" cy="47.162" r="4"/>
	<circle fill="none" stroke="#000000" stroke-miterlimit="10" cx="-136.43" cy="309.557" r="4"/>
	<circle fill="none" stroke="#000000" stroke-miterlimit="10" cx="26.56" cy="-4.287" r="4"/>
	<circle fill="none" stroke="#000000" stroke-miterlimit="10" cx="-220.944" cy="278.687" r="4"/>
	<circle fill="none" stroke="#000000" stroke-miterlimit="10" cx="-139.025" cy="301.84" r="4"/>
	<circle fill="none" stroke="#000000" stroke-miterlimit="10" cx="35.902" cy="108.903" r="4"/>
	<circle fill="none" stroke="#000000" stroke-miterlimit="10" cx="27.222" cy="13.72" r="4"/>
	<circle fill="none" stroke="#000000" stroke-miterlimit="10" cx="-64.203" cy="307.843" r="4"/>
	<circle fill="none" stroke="#000000" stroke-miterlimit="10" cx="-42.435" cy="88.323" r="4"/>
	<circle fill="none" stroke="#000000" stroke-miterlimit="10" cx="62.585" cy="42.017" r="4"/>
	<circle fill="none" stroke="#000000" stroke-miterlimit="10" cx="-51.902" cy="145.775" r="4"/>
	<circle fill="none" stroke="#000000" stroke-miterlimit="10" cx="-137.481" cy="123.48" r="4"/>
	<circle fill="none" stroke="#000000" stroke-miterlimit="10" cx="124.634" cy="48.02" r="4"/>
	<circle fill="none" stroke="#000000" stroke-miterlimit="10" cx="-138.128" cy="251.248" r="4"/>
	<circle fill="none" stroke="#000000" stroke-miterlimit="10" cx="-6.943" cy="78.032" r="4"/>
	<circle fill="none" stroke="#000000" stroke-miterlimit="10" cx="67.488" cy="65.17" r="4"/>
	<circle fill="none" stroke="#000000" stroke-miterlimit="10" cx="-4.771" cy="120.907" r="4"/>
	<circle fill="none" stroke="#000000" stroke-miterlimit="10" cx="111.616" cy="10.29" r="4"/>
	<circle fill="none" stroke="#000000" stroke-miterlimit="10" cx="-62.99" cy="104.615" r="4"/>
	<circle fill="none" stroke="#000000" stroke-miterlimit="10" cx="7.895" cy="82.32" r="4"/>
	<circle fill="none" stroke="#000000" stroke-miterlimit="10" cx="-58.18" cy="87.465" r="4"/>
	<circle fill="none" stroke="#000000" stroke-miterlimit="10" cx="-127.649" cy="256.392" r="4"/>
	<circle fill="none" stroke="#000000" stroke-miterlimit="10" cx="-133.572" cy="274.4" r="4"/>
	<circle fill="none" stroke="#000000" stroke-miterlimit="10" cx="31.71" cy="-8.575" r="4"/>
</g>
<g>
	<g>
		<g>
			<line fill="none" stroke="#000000" stroke-linejoin="round" x1="149.127" y1="340.867" x2="153.634" y2="336.907"/>
			
				<line fill="none" stroke="#000000" stroke-linejoin="round" stroke-dasharray="12.1083,12.1083" x1="162.73" y1="328.915" x2="485.649" y2="45.207"/>
			<line fill="none" stroke="#000000" stroke-linejoin="round" x1="490.197" y1="41.211" x2="494.705" y2="37.251"/>
		</g>
	</g>
</g>
</svg>
