<?xml version="1.0" encoding="utf-8"?>
<!-- Generator: Adobe Illustrator 16.0.3, SVG Export Plug-In . SVG Version: 6.00 Build 0)  -->
<!DOCTYPE svg PUBLIC "-//W3C//DTD SVG 1.1//EN" "http://www.w3.org/Graphics/SVG/1.1/DTD/svg11.dtd">
<svg version="1.1" id="Layer_1" xmlns="http://www.w3.org/2000/svg" xmlns:xlink="http://www.w3.org/1999/xlink" x="0px" y="0px"
	 width="540px" height="420px" viewBox="0 0 540 420" enable-background="new 0 0 540 420" xml:space="preserve">
<g>
	
		<line fill="none" stroke="#262626" stroke-linecap="square" stroke-linejoin="round" stroke-miterlimit="10" x1="70" y1="374" x2="489" y2="374"/>
	
		<line fill="none" stroke="#262626" stroke-linecap="square" stroke-linejoin="round" stroke-miterlimit="10" x1="70" y1="31" x2="489" y2="31"/>
	
		<line fill="none" stroke="#262626" stroke-linecap="square" stroke-linejoin="round" stroke-miterlimit="10" x1="70" y1="374" x2="70" y2="369.811"/>
	
		<line fill="none" stroke="#262626" stroke-linecap="square" stroke-linejoin="round" stroke-miterlimit="10" x1="129.857" y1="374" x2="129.857" y2="369.811"/>
	
		<line fill="none" stroke="#262626" stroke-linecap="square" stroke-linejoin="round" stroke-miterlimit="10" x1="189.714" y1="374" x2="189.714" y2="369.811"/>
	
		<line fill="none" stroke="#262626" stroke-linecap="square" stroke-linejoin="round" stroke-miterlimit="10" x1="249.571" y1="374" x2="249.571" y2="369.811"/>
	
		<line fill="none" stroke="#262626" stroke-linecap="square" stroke-linejoin="round" stroke-miterlimit="10" x1="309.429" y1="374" x2="309.429" y2="369.811"/>
	
		<line fill="none" stroke="#262626" stroke-linecap="square" stroke-linejoin="round" stroke-miterlimit="10" x1="369.285" y1="374" x2="369.285" y2="369.811"/>
	
		<line fill="none" stroke="#262626" stroke-linecap="square" stroke-linejoin="round" stroke-miterlimit="10" x1="429.143" y1="374" x2="429.143" y2="369.811"/>
	
		<line fill="none" stroke="#262626" stroke-linecap="square" stroke-linejoin="round" stroke-miterlimit="10" x1="489" y1="374" x2="489" y2="369.811"/>
	
		<line fill="none" stroke="#262626" stroke-linecap="square" stroke-linejoin="round" stroke-miterlimit="10" x1="70" y1="31" x2="70" y2="35.19"/>
	
		<line fill="none" stroke="#262626" stroke-linecap="square" stroke-linejoin="round" stroke-miterlimit="10" x1="129.857" y1="31" x2="129.857" y2="35.19"/>
	
		<line fill="none" stroke="#262626" stroke-linecap="square" stroke-linejoin="round" stroke-miterlimit="10" x1="189.714" y1="31" x2="189.714" y2="35.19"/>
	
		<line fill="none" stroke="#262626" stroke-linecap="square" stroke-linejoin="round" stroke-miterlimit="10" x1="249.571" y1="31" x2="249.571" y2="35.19"/>
	
		<line fill="none" stroke="#262626" stroke-linecap="square" stroke-linejoin="round" stroke-miterlimit="10" x1="309.429" y1="31" x2="309.429" y2="35.19"/>
	
		<line fill="none" stroke="#262626" stroke-linecap="square" stroke-linejoin="round" stroke-miterlimit="10" x1="369.285" y1="31" x2="369.285" y2="35.19"/>
	
		<line fill="none" stroke="#262626" stroke-linecap="square" stroke-linejoin="round" stroke-miterlimit="10" x1="429.143" y1="31" x2="429.143" y2="35.19"/>
	
		<line fill="none" stroke="#262626" stroke-linecap="square" stroke-linejoin="round" stroke-miterlimit="10" x1="489" y1="31" x2="489" y2="35.19"/>
</g>
<g transform="translate(70,379.3333)">
	<text transform="matrix(1 0 0 1 -6 13.9998)" fill="#262626" font-family="'ArialMT'" font-size="13.3333">-3</text>
</g>
<g transform="translate(129.8571,379.3333)">
	<text transform="matrix(1 0 0 1 -6.0001 13.9998)" fill="#262626" font-family="'ArialMT'" font-size="13.3333">-2</text>
</g>
<g transform="translate(189.7143,379.3333)">
	<text transform="matrix(1 0 0 1 -6 13.9998)" fill="#262626" font-family="'ArialMT'" font-size="13.3333">-1</text>
</g>
<g transform="translate(249.5714,379.3333)">
	<text transform="matrix(1 0 0 1 -4.0001 13.9998)" fill="#262626" font-family="'ArialMT'" font-size="13.3333">0</text>
</g>
<g transform="translate(309.4286,379.3333)">
	<text transform="matrix(1 0 0 1 -4 13.9998)" fill="#262626" font-family="'ArialMT'" font-size="13.3333">1</text>
</g>
<g transform="translate(369.2857,379.3333)">
	<text transform="matrix(1 0 0 1 -4.0007 13.9998)" fill="#262626" font-family="'ArialMT'" font-size="13.3333">2</text>
</g>
<g transform="translate(429.1429,379.3333)">
	<text transform="matrix(1 0 0 1 -4.0005 13.9998)" fill="#262626" font-family="'ArialMT'" font-size="13.3333">3</text>
</g>
<g transform="translate(489,379.3333)">
	<text transform="matrix(1 0 0 1 -4 13.9998)" fill="#262626" font-family="'ArialMT'" font-size="13.3333">4</text>
</g>
<g transform="translate(279.5002,397.6667)">
	<text transform="matrix(1 0 0 1 -57.5002 15.0002)" fill="#262626" font-family="'ArialMT'" font-size="14.6667">Relative Log10(c)</text>
</g>
<g>
	
		<line fill="none" stroke="#262626" stroke-width="0.6667" stroke-linecap="square" stroke-linejoin="round" stroke-miterlimit="10" x1="70" y1="374" x2="70" y2="31"/>
	
		<line fill="none" stroke="#262626" stroke-width="0.6667" stroke-linecap="square" stroke-linejoin="round" stroke-miterlimit="10" x1="489" y1="374" x2="489" y2="31"/>
	
		<line fill="none" stroke="#262626" stroke-width="0.6667" stroke-linecap="square" stroke-linejoin="round" stroke-miterlimit="10" x1="70" y1="374" x2="74.19" y2="374"/>
	
		<line fill="none" stroke="#262626" stroke-width="0.6667" stroke-linecap="square" stroke-linejoin="round" stroke-miterlimit="10" x1="70" y1="325" x2="74.19" y2="325"/>
	
		<line fill="none" stroke="#262626" stroke-width="0.6667" stroke-linecap="square" stroke-linejoin="round" stroke-miterlimit="10" x1="70" y1="276" x2="74.19" y2="276"/>
	
		<line fill="none" stroke="#262626" stroke-width="0.6667" stroke-linecap="square" stroke-linejoin="round" stroke-miterlimit="10" x1="70" y1="227" x2="74.19" y2="227"/>
	
		<line fill="none" stroke="#262626" stroke-width="0.6667" stroke-linecap="square" stroke-linejoin="round" stroke-miterlimit="10" x1="70" y1="178" x2="74.19" y2="178"/>
	
		<line fill="none" stroke="#262626" stroke-width="0.6667" stroke-linecap="square" stroke-linejoin="round" stroke-miterlimit="10" x1="70" y1="129" x2="74.19" y2="129"/>
	
		<line fill="none" stroke="#262626" stroke-width="0.6667" stroke-linecap="square" stroke-linejoin="round" stroke-miterlimit="10" x1="70" y1="80" x2="74.19" y2="80"/>
	
		<line fill="none" stroke="#262626" stroke-width="0.6667" stroke-linecap="square" stroke-linejoin="round" stroke-miterlimit="10" x1="70" y1="31" x2="74.19" y2="31"/>
	
		<line fill="none" stroke="#262626" stroke-width="0.6667" stroke-linecap="square" stroke-linejoin="round" stroke-miterlimit="10" x1="489" y1="374" x2="484.811" y2="374"/>
	
		<line fill="none" stroke="#262626" stroke-width="0.6667" stroke-linecap="square" stroke-linejoin="round" stroke-miterlimit="10" x1="489" y1="325" x2="484.811" y2="325"/>
	
		<line fill="none" stroke="#262626" stroke-width="0.6667" stroke-linecap="square" stroke-linejoin="round" stroke-miterlimit="10" x1="489" y1="276" x2="484.811" y2="276"/>
	
		<line fill="none" stroke="#262626" stroke-width="0.6667" stroke-linecap="square" stroke-linejoin="round" stroke-miterlimit="10" x1="489" y1="227" x2="484.811" y2="227"/>
	
		<line fill="none" stroke="#262626" stroke-width="0.6667" stroke-linecap="square" stroke-linejoin="round" stroke-miterlimit="10" x1="489" y1="178" x2="484.811" y2="178"/>
	
		<line fill="none" stroke="#262626" stroke-width="0.6667" stroke-linecap="square" stroke-linejoin="round" stroke-miterlimit="10" x1="489" y1="129" x2="484.811" y2="129"/>
	
		<line fill="none" stroke="#262626" stroke-width="0.6667" stroke-linecap="square" stroke-linejoin="round" stroke-miterlimit="10" x1="489" y1="80" x2="484.811" y2="80"/>
	
		<line fill="none" stroke="#262626" stroke-width="0.6667" stroke-linecap="square" stroke-linejoin="round" stroke-miterlimit="10" x1="489" y1="31" x2="484.811" y2="31"/>
</g>
<g transform="translate(64.6667,374)">
	<text transform="matrix(1 0 0 1 -22.9998 5.5)" fill="#262626" font-family="'ArialMT'" font-size="13.3333">-0.2</text>
</g>
<g transform="translate(64.6667,325)">
	<text transform="matrix(1 0 0 1 -7.9998 5.5)" fill="#262626" font-family="'ArialMT'" font-size="13.3333">0</text>
</g>
<g transform="translate(64.6667,276)">
	<text transform="matrix(1 0 0 1 -18.9998 5.5)" fill="#262626" font-family="'ArialMT'" font-size="13.3333">0.2</text>
</g>
<g transform="translate(64.6667,227)">
	<text transform="matrix(1 0 0 1 -18.9998 5.5)" fill="#262626" font-family="'ArialMT'" font-size="13.3333">0.4</text>
</g>
<g transform="translate(64.6667,178)">
	<text transform="matrix(1 0 0 1 -18.9998 5.5)" fill="#262626" font-family="'ArialMT'" font-size="13.3333">0.6</text>
</g>
<g transform="translate(64.6667,129)">
	<text transform="matrix(1 0 0 1 -18.9998 5.5)" fill="#262626" font-family="'ArialMT'" font-size="13.3333">0.8</text>
</g>
<g transform="translate(64.6667,80)">
	<text transform="matrix(1 0 0 1 -7.9998 5.5)" fill="#262626" font-family="'ArialMT'" font-size="13.3333">1</text>
</g>
<g transform="translate(64.6667,31)">
	<text transform="matrix(1 0 0 1 -18.9998 5.5)" fill="#262626" font-family="'ArialMT'" font-size="13.3333">1.2</text>
</g>
<g transform="translate(37.6667,202.4998) rotate(-90)">
	<text transform="matrix(1 0 0 1 -62.5002 -3.9998)" fill="#262626" font-family="'ArialMT'" font-size="14.6667">Normalized Activity</text>
</g>
<g transform="translate(133.8174,314.8994)">
	<path fill="#FF0000" d="M-2-2v4h4v-4H-2z"/>
</g>
<g transform="translate(133.8174,314.8994)">
	<path fill="none" stroke="#FF0000" stroke-miterlimit="10" d="M-2-2v4h4v-4H-2z"/>
</g>
<g transform="translate(193.6746,326.4259)">
	<path fill="#FF0000" d="M-2-2v4h4v-4H-2z"/>
</g>
<g transform="translate(193.6746,326.4259)">
	<path fill="none" stroke="#FF0000" stroke-miterlimit="10" d="M-2-2v4h4v-4H-2z"/>
</g>
<g transform="translate(253.5317,163.3917)">
	<path fill="#FF0000" d="M-2-2v4h4v-4H-2z"/>
</g>
<g transform="translate(253.5317,163.3917)">
	<path fill="none" stroke="#FF0000" stroke-miterlimit="10" d="M-2-2v4h4v-4H-2z"/>
</g>
<g transform="translate(313.3888,82.2677)">
	<path fill="#FF0000" d="M-2-2v4h4v-4H-2z"/>
</g>
<g transform="translate(313.3888,82.2677)">
	<path fill="none" stroke="#FF0000" stroke-miterlimit="10" d="M-2-2v4h4v-4H-2z"/>
</g>
<g transform="translate(373.246,77.7385)">
	<path fill="#FF0000" d="M-2-2v4h4v-4H-2z"/>
</g>
<g transform="translate(373.246,77.7385)">
	<path fill="none" stroke="#FF0000" stroke-miterlimit="10" d="M-2-2v4h4v-4H-2z"/>
</g>
<g transform="translate(117.4579,321.3849)">
	<circle fill="#FF0000" cx="0" cy="0" r="2.667"/>
</g>
<g transform="translate(117.4579,321.3849)">
	<circle fill="none" stroke="#FF0000" stroke-miterlimit="10" cx="0" cy="0" r="2.667"/>
</g>
<g transform="translate(177.315,333.9109)">
	<circle fill="#FF0000" cx="0" cy="0" r="2.667"/>
</g>
<g transform="translate(177.315,333.9109)">
	<circle fill="none" stroke="#FF0000" stroke-miterlimit="10" cx="0" cy="0" r="2.667"/>
</g>
<g transform="translate(237.1722,297.5596)">
	<circle fill="#FF0000" cx="0" cy="0" r="2.667"/>
</g>
<g transform="translate(237.1722,297.5596)">
	<circle fill="none" stroke="#FF0000" stroke-miterlimit="10" cx="0" cy="0" r="2.667"/>
</g>
<g transform="translate(297.0293,80.1011)">
	<circle fill="#FF0000" cx="0" cy="0" r="2.667"/>
</g>
<g transform="translate(297.0293,80.1011)">
	<circle fill="none" stroke="#FF0000" stroke-miterlimit="10" cx="0" cy="0" r="2.667"/>
</g>
<g transform="translate(356.8865,79.9876)">
	<circle fill="#FF0000" cx="0" cy="0" r="2.667"/>
</g>
<g transform="translate(356.8865,79.9876)">
	<circle fill="none" stroke="#FF0000" stroke-miterlimit="10" cx="0" cy="0" r="2.667"/>
</g>
<g transform="translate(115.452,317.7241)">
	<path fill="#FF0000" d="M-2.667,0L0,3.546L2.667,0L0-3.546L-2.667,0z"/>
</g>
<g transform="translate(115.452,317.7241)">
	<path fill="none" stroke="#FF0000" stroke-miterlimit="10" d="M-2.667,0L0,3.546L2.667,0L0-3.546L-2.667,0z"/>
</g>
<g transform="translate(175.3092,309.4173)">
	<path fill="#FF0000" d="M-2.667,0L0,3.547L2.667,0L0-3.546L-2.667,0z"/>
</g>
<g transform="translate(175.3092,309.4173)">
	<path fill="none" stroke="#FF0000" stroke-miterlimit="10" d="M-2.667,0L0,3.547L2.667,0L0-3.546L-2.667,0z"/>
</g>
<g transform="translate(235.1663,236.7026)">
	<path fill="#FF0000" d="M-2.667,0L0,3.547L2.667,0L0-3.546L-2.667,0z"/>
</g>
<g transform="translate(235.1663,236.7026)">
	<path fill="none" stroke="#FF0000" stroke-miterlimit="10" d="M-2.667,0L0,3.547L2.667,0L0-3.546L-2.667,0z"/>
</g>
<g transform="translate(295.0235,115.206)">
	<path fill="#FF0000" d="M-2.667,0L0,3.547L2.667,0L0-3.547L-2.667,0z"/>
</g>
<g transform="translate(295.0235,115.206)">
	<path fill="none" stroke="#FF0000" stroke-miterlimit="10" d="M-2.667,0L0,3.547L2.667,0L0-3.547L-2.667,0z"/>
</g>
<g transform="translate(354.8806,85.3672)">
	<path fill="#FF0000" d="M-2.667,0L0,3.547L2.666,0L0-3.547L-2.667,0z"/>
</g>
<g transform="translate(354.8806,85.3672)">
	<path fill="none" stroke="#FF0000" stroke-miterlimit="10" d="M-2.667,0L0,3.547L2.666,0L0-3.547L-2.667,0z"/>
</g>
<g transform="translate(126.1009,319.7593)">
	<path fill="#FF0000" d="M0,3.555l-3.079-5.332h6.157L0,3.555z"/>
</g>
<g transform="translate(126.1009,319.7593)">
	<path fill="none" stroke="#FF0000" stroke-miterlimit="10" d="M0,3.555l-3.079-5.332h6.157L0,3.555z"/>
</g>
<g transform="translate(185.9581,310.4491)">
	<path fill="#FF0000" d="M0,3.555l-3.078-5.332h6.156L0,3.555z"/>
</g>
<g transform="translate(185.9581,310.4491)">
	<path fill="none" stroke="#FF0000" stroke-miterlimit="10" d="M0,3.555l-3.078-5.332h6.156L0,3.555z"/>
</g>
<g transform="translate(245.8152,212.2031)">
	<path fill="#FF0000" d="M0,3.555l-3.079-5.332h6.157L0,3.555z"/>
</g>
<g transform="translate(245.8152,212.2031)">
	<path fill="none" stroke="#FF0000" stroke-miterlimit="10" d="M0,3.555l-3.079-5.332h6.157L0,3.555z"/>
</g>
<g transform="translate(305.6724,100.4467)">
	<path fill="#FF0000" d="M0,3.555l-3.078-5.332h6.156L0,3.555z"/>
</g>
<g transform="translate(305.6724,100.4467)">
	<path fill="none" stroke="#FF0000" stroke-miterlimit="10" d="M0,3.555l-3.078-5.332h6.156L0,3.555z"/>
</g>
<g transform="translate(365.5295,81.4261)">
	<path fill="#FF0000" d="M0,3.555l-3.078-5.332h6.156L0,3.555z"/>
</g>
<g transform="translate(365.5295,81.4261)">
	<path fill="none" stroke="#FF0000" stroke-miterlimit="10" d="M0,3.555l-3.078-5.332h6.156L0,3.555z"/>
</g>
<g transform="translate(191.0386,292.5379)">
	<path fill="#FF0000" d="M0-3.554l-3.078,5.332h6.156L0-3.554z"/>
</g>
<g transform="translate(191.0386,292.5379)">
	<path fill="none" stroke="#FF0000" stroke-miterlimit="10" d="M0-3.554l-3.078,5.332h6.156L0-3.554z"/>
</g>
<g transform="translate(250.8958,201.3252)">
	<path fill="#FF0000" d="M0-3.555l-3.078,5.332h6.157L0-3.555z"/>
</g>
<g transform="translate(250.8958,201.3252)">
	<path fill="none" stroke="#FF0000" stroke-miterlimit="10" d="M0-3.555l-3.078,5.332h6.157L0-3.555z"/>
</g>
<g transform="translate(310.7529,106.8586)">
	<path fill="#FF0000" d="M0-3.555l-3.078,5.332h6.156L0-3.555z"/>
</g>
<g transform="translate(310.7529,106.8586)">
	<path fill="none" stroke="#FF0000" stroke-miterlimit="10" d="M0-3.555l-3.078,5.332h6.156L0-3.555z"/>
</g>
<g transform="translate(370.61,82.4464)">
	<path fill="#FF0000" d="M0-3.555l-3.078,5.332h6.157L0-3.555z"/>
</g>
<g transform="translate(370.61,82.4464)">
	<path fill="none" stroke="#FF0000" stroke-miterlimit="10" d="M0-3.555l-3.078,5.332h6.157L0-3.555z"/>
</g>
<g transform="translate(430.4672,83.2999)">
	<path fill="#FF0000" d="M0-3.555l-3.078,5.332h6.157L0-3.555z"/>
</g>
<g transform="translate(430.4672,83.2999)">
	<path fill="none" stroke="#FF0000" stroke-miterlimit="10" d="M0-3.555l-3.078,5.332h6.157L0-3.555z"/>
</g>
<g transform="translate(122.4203,321.3503)">
	<path fill="#0000FF" d="M-2-2v4h4v-4H-2z"/>
</g>
<g transform="translate(122.4203,321.3503)">
	<path fill="none" stroke="#0000FF" stroke-miterlimit="10" d="M-2-2v4h4v-4H-2z"/>
</g>
<g transform="translate(182.2774,319.4825)">
	<path fill="#0000FF" d="M-2-2v4h4v-4H-2z"/>
</g>
<g transform="translate(182.2774,319.4825)">
	<path fill="none" stroke="#0000FF" stroke-miterlimit="10" d="M-2-2v4h4v-4H-2z"/>
</g>
<g transform="translate(242.1346,270.1334)">
	<path fill="#0000FF" d="M-2-2.001v4h4v-4H-2z"/>
</g>
<g transform="translate(242.1346,270.1334)">
	<path fill="none" stroke="#0000FF" stroke-miterlimit="10" d="M-2-2.001v4h4v-4H-2z"/>
</g>
<g transform="translate(301.9917,61.4907)">
	<path fill="#0000FF" d="M-2-2v4h4v-4H-2z"/>
</g>
<g transform="translate(301.9917,61.4907)">
	<path fill="none" stroke="#0000FF" stroke-miterlimit="10" d="M-2-2v4h4v-4H-2z"/>
</g>
<g transform="translate(361.8489,98.5412)">
	<path fill="#0000FF" d="M-2-2v4h4v-4H-2z"/>
</g>
<g transform="translate(361.8489,98.5412)">
	<path fill="none" stroke="#0000FF" stroke-miterlimit="10" d="M-2-2v4h4v-4H-2z"/>
</g>
<g transform="translate(190.486,303.1985)">
	<circle fill="#0000FF" cx="0" cy="0" r="2.667"/>
</g>
<g transform="translate(190.486,303.1985)">
	<circle fill="none" stroke="#0000FF" stroke-miterlimit="10" cx="0" cy="0" r="2.667"/>
</g>
<g transform="translate(250.3432,198.9063)">
	<circle fill="#0000FF" cx="0" cy="0" r="2.667"/>
</g>
<g transform="translate(250.3432,198.9063)">
	<circle fill="none" stroke="#0000FF" stroke-miterlimit="10" cx="0" cy="0" r="2.667"/>
</g>
<g transform="translate(310.2003,105.1518)">
	<circle fill="#0000FF" cx="0" cy="0" r="2.667"/>
</g>
<g transform="translate(310.2003,105.1518)">
	<circle fill="none" stroke="#0000FF" stroke-miterlimit="10" cx="0" cy="0" r="2.667"/>
</g>
<g transform="translate(370.0575,88.2656)">
	<circle fill="#0000FF" cx="0" cy="0" r="2.667"/>
</g>
<g transform="translate(370.0575,88.2656)">
	<circle fill="none" stroke="#0000FF" stroke-miterlimit="10" cx="0" cy="0" r="2.667"/>
</g>
<g transform="translate(429.9146,73.6233)">
	<circle fill="#0000FF" cx="0" cy="0" r="2.667"/>
</g>
<g transform="translate(429.9146,73.6233)">
	<circle fill="none" stroke="#0000FF" stroke-miterlimit="10" cx="0" cy="0" r="2.667"/>
</g>
<g transform="translate(133.7785,318.8001)">
	<path fill="#0000FF" d="M-2.667,0L0,3.547L2.667,0L0-3.547L-2.667,0z"/>
</g>
<g transform="translate(133.7785,318.8001)">
	<path fill="none" stroke="#0000FF" stroke-miterlimit="10" d="M-2.667,0L0,3.547L2.667,0L0-3.547L-2.667,0z"/>
</g>
<g transform="translate(193.6357,310.8335)">
	<path fill="#0000FF" d="M-2.667,0L0,3.546L2.667,0L0-3.546L-2.667,0z"/>
</g>
<g transform="translate(193.6357,310.8335)">
	<path fill="none" stroke="#0000FF" stroke-miterlimit="10" d="M-2.667,0L0,3.546L2.667,0L0-3.546L-2.667,0z"/>
</g>
<g transform="translate(253.4928,190.6684)">
	<path fill="#0000FF" d="M-2.667,0L0,3.547L2.667,0L0-3.547L-2.667,0z"/>
</g>
<g transform="translate(253.4928,190.6684)">
	<path fill="none" stroke="#0000FF" stroke-miterlimit="10" d="M-2.667,0L0,3.547L2.667,0L0-3.547L-2.667,0z"/>
</g>
<g transform="translate(313.35,81.1845)">
	<path fill="#0000FF" d="M-2.667,0L0,3.547L2.667,0L0-3.547L-2.667,0z"/>
</g>
<g transform="translate(313.35,81.1845)">
	<path fill="none" stroke="#0000FF" stroke-miterlimit="10" d="M-2.667,0L0,3.547L2.667,0L0-3.547L-2.667,0z"/>
</g>
<g transform="translate(373.2071,85.5913)">
	<path fill="#0000FF" d="M-2.667,0L0,3.547L2.667,0L0-3.547L-2.667,0z"/>
</g>
<g transform="translate(373.2071,85.5913)">
	<path fill="none" stroke="#0000FF" stroke-miterlimit="10" d="M-2.667,0L0,3.547L2.667,0L0-3.547L-2.667,0z"/>
</g>
<g transform="translate(144.0078,316.9123)">
	<path fill="#0000FF" d="M0,3.554l-3.078-5.332h6.156L0,3.554z"/>
</g>
<g transform="translate(144.0078,316.9123)">
	<path fill="none" stroke="#0000FF" stroke-miterlimit="10" d="M0,3.554l-3.078-5.332h6.156L0,3.554z"/>
</g>
<g transform="translate(203.8649,311.7301)">
	<path fill="#0000FF" d="M0,3.555l-3.078-5.332h6.157L0,3.555z"/>
</g>
<g transform="translate(203.8649,311.7301)">
	<path fill="none" stroke="#0000FF" stroke-miterlimit="10" d="M0,3.555l-3.078-5.332h6.157L0,3.555z"/>
</g>
<g transform="translate(263.7221,151.186)">
	<path fill="#0000FF" d="M0,3.555l-3.078-5.332h6.156L0,3.555z"/>
</g>
<g transform="translate(263.7221,151.186)">
	<path fill="none" stroke="#0000FF" stroke-miterlimit="10" d="M0,3.555l-3.078-5.332h6.156L0,3.555z"/>
</g>
<g transform="translate(323.5792,76.1156)">
	<path fill="#0000FF" d="M0,3.555l-3.078-5.332h6.156L0,3.555z"/>
</g>
<g transform="translate(323.5792,76.1156)">
	<path fill="none" stroke="#0000FF" stroke-miterlimit="10" d="M0,3.555l-3.078-5.332h6.156L0,3.555z"/>
</g>
<g transform="translate(383.4364,85.7747)">
	<path fill="#0000FF" d="M0,3.554l-3.078-5.332h6.156L0,3.554z"/>
</g>
<g transform="translate(383.4364,85.7747)">
	<path fill="none" stroke="#0000FF" stroke-miterlimit="10" d="M0,3.554l-3.078-5.332h6.156L0,3.554z"/>
</g>
<g transform="translate(134.2744,317.4819)">
	<path fill="#0000FF" d="M0-3.554l-3.078,5.332h6.156L0-3.554z"/>
</g>
<g transform="translate(134.2744,317.4819)">
	<path fill="none" stroke="#0000FF" stroke-miterlimit="10" d="M0-3.554l-3.078,5.332h6.156L0-3.554z"/>
</g>
<g transform="translate(194.1315,323.8849)">
	<path fill="#0000FF" d="M0-3.555l-3.078,5.332h6.157L0-3.555z"/>
</g>
<g transform="translate(194.1315,323.8849)">
	<path fill="none" stroke="#0000FF" stroke-miterlimit="10" d="M0-3.555l-3.078,5.332h6.157L0-3.555z"/>
</g>
<g transform="translate(253.9887,175.2605)">
	<path fill="#0000FF" d="M0-3.554l-3.079,5.332h6.157L0-3.554z"/>
</g>
<g transform="translate(253.9887,175.2605)">
	<path fill="none" stroke="#0000FF" stroke-miterlimit="10" d="M0-3.554l-3.079,5.332h6.157L0-3.554z"/>
</g>
<g transform="translate(313.8458,79.6459)">
	<path fill="#0000FF" d="M0-3.555l-3.078,5.332h6.156L0-3.555z"/>
</g>
<g transform="translate(313.8458,79.6459)">
	<path fill="none" stroke="#0000FF" stroke-miterlimit="10" d="M0-3.555l-3.078,5.332h6.156L0-3.555z"/>
</g>
<g transform="translate(373.7029,80.6884)">
	<path fill="#0000FF" d="M0-3.555l-3.078,5.332h6.156L0-3.555z"/>
</g>
<g transform="translate(373.7029,80.6884)">
	<path fill="none" stroke="#0000FF" stroke-miterlimit="10" d="M0-3.555l-3.078,5.332h6.156L0-3.555z"/>
</g>
<g transform="translate(133.3083,282.1716)">
	<path fill="#00FFFF" d="M-2-2v4h4v-4H-2z"/>
</g>
<g transform="translate(133.3083,282.1716)">
	<path fill="none" stroke="#00FFFF" stroke-miterlimit="10" d="M-2-2v4h4v-4H-2z"/>
</g>
<g transform="translate(193.1655,279.4227)">
	<path fill="#00FFFF" d="M-2-2v4h4v-4H-2z"/>
</g>
<g transform="translate(193.1655,279.4227)">
	<path fill="none" stroke="#00FFFF" stroke-miterlimit="10" d="M-2-2v4h4v-4H-2z"/>
</g>
<g transform="translate(253.0226,204.0968)">
	<path fill="#00FFFF" d="M-2-2v4h4v-4H-2z"/>
</g>
<g transform="translate(253.0226,204.0968)">
	<path fill="none" stroke="#00FFFF" stroke-miterlimit="10" d="M-2-2v4h4v-4H-2z"/>
</g>
<g transform="translate(312.8798,115.7329)">
	<path fill="#00FFFF" d="M-2-2v4h4v-4H-2z"/>
</g>
<g transform="translate(312.8798,115.7329)">
	<path fill="none" stroke="#00FFFF" stroke-miterlimit="10" d="M-2-2v4h4v-4H-2z"/>
</g>
<g transform="translate(372.7369,104.5091)">
	<path fill="#00FFFF" d="M-2.001-2v4h4v-4H-2.001z"/>
</g>
<g transform="translate(372.7369,104.5091)">
	<path fill="none" stroke="#00FFFF" stroke-miterlimit="10" d="M-2.001-2v4h4v-4H-2.001z"/>
</g>
<g transform="translate(188.8816,300.4568)">
	<circle fill="#00FFFF" cx="0" cy="0" r="2.667"/>
</g>
<g transform="translate(188.8816,300.4568)">
	<circle fill="none" stroke="#00FFFF" stroke-miterlimit="10" cx="0" cy="0" r="2.667"/>
</g>
<g transform="translate(248.7387,209.2581)">
	<circle fill="#00FFFF" cx="0" cy="0" r="2.667"/>
</g>
<g transform="translate(248.7387,209.2581)">
	<circle fill="none" stroke="#00FFFF" stroke-miterlimit="10" cx="0" cy="0" r="2.667"/>
</g>
<g transform="translate(308.5959,71.3139)">
	<circle fill="#00FFFF" cx="0" cy="0" r="2.667"/>
</g>
<g transform="translate(308.5959,71.3139)">
	<circle fill="none" stroke="#00FFFF" stroke-miterlimit="10" cx="0" cy="0" r="2.667"/>
</g>
<g transform="translate(368.453,74.368)">
	<circle fill="#00FFFF" cx="0" cy="0" r="2.667"/>
</g>
<g transform="translate(368.453,74.368)">
	<circle fill="none" stroke="#00FFFF" stroke-miterlimit="10" cx="0" cy="0" r="2.667"/>
</g>
<g transform="translate(428.3102,100.2865)">
	<circle fill="#00FFFF" cx="0" cy="0" r="2.667"/>
</g>
<g transform="translate(428.3102,100.2865)">
	<circle fill="none" stroke="#00FFFF" stroke-miterlimit="10" cx="0" cy="0" r="2.667"/>
</g>
<g transform="translate(129.4201,318.2817)">
	<path fill="#00FFFF" d="M-2.667,0L0,3.546L2.667,0L0-3.546L-2.667,0z"/>
</g>
<g transform="translate(129.4201,318.2817)">
	<path fill="none" stroke="#00FFFF" stroke-miterlimit="10" d="M-2.667,0L0,3.546L2.667,0L0-3.546L-2.667,0z"/>
</g>
<g transform="translate(189.2773,308.686)">
	<path fill="#00FFFF" d="M-2.667,0L0,3.546L2.667,0L0-3.547L-2.667,0z"/>
</g>
<g transform="translate(189.2773,308.686)">
	<path fill="none" stroke="#00FFFF" stroke-miterlimit="10" d="M-2.667,0L0,3.546L2.667,0L0-3.547L-2.667,0z"/>
</g>
<g transform="translate(249.1344,205.7383)">
	<path fill="#00FFFF" d="M-2.667,0L0,3.547L2.667,0L0-3.547L-2.667,0z"/>
</g>
<g transform="translate(249.1344,205.7383)">
	<path fill="none" stroke="#00FFFF" stroke-miterlimit="10" d="M-2.667,0L0,3.547L2.667,0L0-3.547L-2.667,0z"/>
</g>
<g transform="translate(308.9915,86.7076)">
	<path fill="#00FFFF" d="M-2.667,0L0,3.547L2.667,0L0-3.547L-2.667,0z"/>
</g>
<g transform="translate(308.9915,86.7076)">
	<path fill="none" stroke="#00FFFF" stroke-miterlimit="10" d="M-2.667,0L0,3.547L2.667,0L0-3.547L-2.667,0z"/>
</g>
<g transform="translate(368.8487,85.2812)">
	<path fill="#00FFFF" d="M-2.667,0L0,3.547L2.667,0L0-3.547L-2.667,0z"/>
</g>
<g transform="translate(368.8487,85.2812)">
	<path fill="none" stroke="#00FFFF" stroke-miterlimit="10" d="M-2.667,0L0,3.547L2.667,0L0-3.547L-2.667,0z"/>
</g>
<g transform="translate(173.7256,318.9592)">
	<path fill="#00FFFF" d="M0,3.554l-3.078-5.332h6.156L0,3.554z"/>
</g>
<g transform="translate(173.7256,318.9592)">
	<path fill="none" stroke="#00FFFF" stroke-miterlimit="10" d="M0,3.554l-3.078-5.332h6.156L0,3.554z"/>
</g>
<g transform="translate(233.5827,250.7131)">
	<path fill="#00FFFF" d="M0,3.554l-3.079-5.332h6.157L0,3.554z"/>
</g>
<g transform="translate(233.5827,250.7131)">
	<path fill="none" stroke="#00FFFF" stroke-miterlimit="10" d="M0,3.554l-3.079-5.332h6.157L0,3.554z"/>
</g>
<g transform="translate(293.4398,102.4886)">
	<path fill="#00FFFF" d="M0,3.555l-3.078-5.332h6.156L0,3.555z"/>
</g>
<g transform="translate(293.4398,102.4886)">
	<path fill="none" stroke="#00FFFF" stroke-miterlimit="10" d="M0,3.555l-3.078-5.332h6.156L0,3.555z"/>
</g>
<g transform="translate(353.297,82.9645)">
	<path fill="#00FFFF" d="M0,3.555l-3.078-5.332h6.156L0,3.555z"/>
</g>
<g transform="translate(353.297,82.9645)">
	<path fill="none" stroke="#00FFFF" stroke-miterlimit="10" d="M0,3.555l-3.078-5.332h6.156L0,3.555z"/>
</g>
<g transform="translate(413.1541,78.6459)">
	<path fill="#00FFFF" d="M0,3.555l-3.078-5.332h6.156L0,3.555z"/>
</g>
<g transform="translate(413.1541,78.6459)">
	<path fill="none" stroke="#00FFFF" stroke-miterlimit="10" d="M0,3.555l-3.078-5.332h6.156L0,3.555z"/>
</g>
<g transform="translate(100.931,312.4433)">
	<path fill="#00FFFF" d="M0-3.555l-3.079,5.332h6.157L0-3.555z"/>
</g>
<g transform="translate(100.931,312.4433)">
	<path fill="none" stroke="#00FFFF" stroke-miterlimit="10" d="M0-3.555l-3.079,5.332h6.157L0-3.555z"/>
</g>
<g transform="translate(160.7881,313.7079)">
	<path fill="#00FFFF" d="M0-3.555l-3.078,5.332h6.156L0-3.555z"/>
</g>
<g transform="translate(160.7881,313.7079)">
	<path fill="none" stroke="#00FFFF" stroke-miterlimit="10" d="M0-3.555l-3.078,5.332h6.156L0-3.555z"/>
</g>
<g transform="translate(220.6453,297.9601)">
	<path fill="#00FFFF" d="M0-3.555l-3.079,5.332h6.157L0-3.555z"/>
</g>
<g transform="translate(220.6453,297.9601)">
	<path fill="none" stroke="#00FFFF" stroke-miterlimit="10" d="M0-3.555l-3.079,5.332h6.157L0-3.555z"/>
</g>
<g transform="translate(280.5024,103.8989)">
	<path fill="#00FFFF" d="M0-3.555l-3.078,5.332h6.156L0-3.555z"/>
</g>
<g transform="translate(280.5024,103.8989)">
	<path fill="none" stroke="#00FFFF" stroke-miterlimit="10" d="M0-3.555l-3.078,5.332h6.156L0-3.555z"/>
</g>
<g transform="translate(340.3596,80.5466)">
	<path fill="#00FFFF" d="M0-3.554l-3.078,5.332h6.156L0-3.554z"/>
</g>
<g transform="translate(340.3596,80.5466)">
	<path fill="none" stroke="#00FFFF" stroke-miterlimit="10" d="M0-3.554l-3.078,5.332h6.156L0-3.554z"/>
</g>
<g transform="translate(181.4014,316.5167)">
	<path fill="#993300" d="M-2-2v4h4v-4H-2z"/>
</g>
<g transform="translate(181.4014,316.5167)">
	<path fill="none" stroke="#993300" stroke-miterlimit="10" d="M-2-2v4h4v-4H-2z"/>
</g>
<g transform="translate(241.2585,222.7951)">
	<path fill="#993300" d="M-2-2v4h4v-4H-2z"/>
</g>
<g transform="translate(241.2585,222.7951)">
	<path fill="none" stroke="#993300" stroke-miterlimit="10" d="M-2-2v4h4v-4H-2z"/>
</g>
<g transform="translate(301.1157,105.868)">
	<path fill="#993300" d="M-2-2v4h4v-4H-2z"/>
</g>
<g transform="translate(301.1157,105.868)">
	<path fill="none" stroke="#993300" stroke-miterlimit="10" d="M-2-2v4h4v-4H-2z"/>
</g>
<g transform="translate(360.9728,82.0857)">
	<path fill="#993300" d="M-2-2v4h4v-4H-2z"/>
</g>
<g transform="translate(360.9728,82.0857)">
	<path fill="none" stroke="#993300" stroke-miterlimit="10" d="M-2-2v4h4v-4H-2z"/>
</g>
<g transform="translate(420.8299,78.6631)">
	<path fill="#993300" d="M-2-2v4h4v-4H-2z"/>
</g>
<g transform="translate(420.8299,78.6631)">
	<path fill="none" stroke="#993300" stroke-miterlimit="10" d="M-2-2v4h4v-4H-2z"/>
</g>
<g transform="translate(134.8167,322.7814)">
	<circle fill="#993300" cx="0" cy="0" r="2.667"/>
</g>
<g transform="translate(134.8167,322.7814)">
	<circle fill="none" stroke="#993300" stroke-miterlimit="10" cx="0" cy="0" r="2.667"/>
</g>
<g transform="translate(194.6738,308.0448)">
	<circle fill="#993300" cx="0" cy="0" r="2.667"/>
</g>
<g transform="translate(194.6738,308.0448)">
	<circle fill="none" stroke="#993300" stroke-miterlimit="10" cx="0" cy="0" r="2.667"/>
</g>
<g transform="translate(254.5309,187.728)">
	<circle fill="#993300" cx="0" cy="0" r="2.667"/>
</g>
<g transform="translate(254.5309,187.728)">
	<circle fill="none" stroke="#993300" stroke-miterlimit="10" cx="0" cy="0" r="2.667"/>
</g>
<g transform="translate(314.3881,95.4442)">
	<circle fill="#993300" cx="0" cy="0" r="2.667"/>
</g>
<g transform="translate(314.3881,95.4442)">
	<circle fill="none" stroke="#993300" stroke-miterlimit="10" cx="0" cy="0" r="2.667"/>
</g>
<g transform="translate(374.2452,78.4548)">
	<circle fill="#993300" cx="0" cy="0" r="2.667"/>
</g>
<g transform="translate(374.2452,78.4548)">
	<circle fill="none" stroke="#993300" stroke-miterlimit="10" cx="0" cy="0" r="2.667"/>
</g>
<g transform="translate(190.7413,313.7422)">
	<path fill="#993300" d="M-2.667,0L0,3.547L2.667,0L0-3.547L-2.667,0z"/>
</g>
<g transform="translate(190.7413,313.7422)">
	<path fill="none" stroke="#993300" stroke-miterlimit="10" d="M-2.667,0L0,3.547L2.667,0L0-3.547L-2.667,0z"/>
</g>
<g transform="translate(250.5985,198.7223)">
	<path fill="#993300" d="M-2.667,0L0,3.547L2.666,0L0-3.547L-2.667,0z"/>
</g>
<g transform="translate(250.5985,198.7223)">
	<path fill="none" stroke="#993300" stroke-miterlimit="10" d="M-2.667,0L0,3.547L2.666,0L0-3.547L-2.667,0z"/>
</g>
<g transform="translate(310.4556,73.2801)">
	<path fill="#993300" d="M-2.667,0l2.666,3.547L2.666,0l-2.667-3.547L-2.667,0z"/>
</g>
<g transform="translate(310.4556,73.2801)">
	<path fill="none" stroke="#993300" stroke-miterlimit="10" d="M-2.667,0l2.666,3.547L2.666,0l-2.667-3.547L-2.667,0z"/>
</g>
<g transform="translate(370.3127,86.7277)">
	<path fill="#993300" d="M-2.667,0l2.666,3.547L2.666,0l-2.667-3.547L-2.667,0z"/>
</g>
<g transform="translate(370.3127,86.7277)">
	<path fill="none" stroke="#993300" stroke-miterlimit="10" d="M-2.667,0l2.666,3.547L2.666,0l-2.667-3.547L-2.667,0z"/>
</g>
<g transform="translate(430.1699,82.095)">
	<path fill="#993300" d="M-2.667,0L0,3.547L2.667,0L0-3.547L-2.667,0z"/>
</g>
<g transform="translate(430.1699,82.095)">
	<path fill="none" stroke="#993300" stroke-miterlimit="10" d="M-2.667,0L0,3.547L2.667,0L0-3.547L-2.667,0z"/>
</g>
<g transform="translate(142.1981,320.6745)">
	<path fill="#993300" d="M0,3.555l-3.078-5.332h6.156L0,3.555z"/>
</g>
<g transform="translate(142.1981,320.6745)">
	<path fill="none" stroke="#993300" stroke-miterlimit="10" d="M0,3.555l-3.078-5.332h6.156L0,3.555z"/>
</g>
<g transform="translate(202.0553,311.7614)">
	<path fill="#993300" d="M-0.001,3.555l-3.078-5.332h6.157L-0.001,3.555z"/>
</g>
<g transform="translate(202.0553,311.7614)">
	<path fill="none" stroke="#993300" stroke-miterlimit="10" d="M-0.001,3.555l-3.078-5.332h6.157L-0.001,3.555z"/>
</g>
<g transform="translate(261.9124,158.5192)">
	<path fill="#993300" d="M-0.001,3.555l-3.078-5.332h6.157L-0.001,3.555z"/>
</g>
<g transform="translate(261.9124,158.5192)">
	<path fill="none" stroke="#993300" stroke-miterlimit="10" d="M-0.001,3.555l-3.078-5.332h6.157L-0.001,3.555z"/>
</g>
<g transform="translate(321.7696,78.4638)">
	<path fill="#993300" d="M0,3.555l-3.078-5.332h6.156L0,3.555z"/>
</g>
<g transform="translate(321.7696,78.4638)">
	<path fill="none" stroke="#993300" stroke-miterlimit="10" d="M0,3.555l-3.078-5.332h6.156L0,3.555z"/>
</g>
<g transform="translate(381.6267,84.1653)">
	<path fill="#993300" d="M0,3.554l-3.078-5.332h6.156L0,3.554z"/>
</g>
<g transform="translate(381.6267,84.1653)">
	<path fill="none" stroke="#993300" stroke-miterlimit="10" d="M0,3.554l-3.078-5.332h6.156L0,3.554z"/>
</g>
<g transform="translate(216.707,282.4844)">
	<path fill="#993300" d="M0-3.555l-3.078,5.332h6.156L0-3.555z"/>
</g>
<g transform="translate(216.707,282.4844)">
	<path fill="none" stroke="#993300" stroke-miterlimit="10" d="M0-3.555l-3.078,5.332h6.156L0-3.555z"/>
</g>
<g transform="translate(276.5641,133.415)">
	<path fill="#993300" d="M0-3.555l-3.078,5.332h6.156L0-3.555z"/>
</g>
<g transform="translate(276.5641,133.415)">
	<path fill="none" stroke="#993300" stroke-miterlimit="10" d="M0-3.555l-3.078,5.332h6.156L0-3.555z"/>
</g>
<g transform="translate(336.4212,81.2109)">
	<path fill="#993300" d="M-0.001-3.555l-3.078,5.332h6.157L-0.001-3.555z"/>
</g>
<g transform="translate(336.4212,81.2109)">
	<path fill="none" stroke="#993300" stroke-miterlimit="10" d="M-0.001-3.555l-3.078,5.332h6.157L-0.001-3.555z"/>
</g>
<g transform="translate(396.2784,81.2109)">
	<path fill="#993300" d="M0-3.555l-3.078,5.332h6.156L0-3.555z"/>
</g>
<g transform="translate(396.2784,81.2109)">
	<path fill="none" stroke="#993300" stroke-miterlimit="10" d="M0-3.555l-3.078,5.332h6.156L0-3.555z"/>
</g>
<g transform="translate(456.1355,81.2109)">
	<path fill="#993300" d="M0-3.555l-3.079,5.332h6.157L0-3.555z"/>
</g>
<g transform="translate(456.1355,81.2109)">
	<path fill="none" stroke="#993300" stroke-miterlimit="10" d="M0-3.555l-3.079,5.332h6.157L0-3.555z"/>
</g>
<g transform="translate(124.2307,300.5063)">
	<path fill="#00FF00" d="M-2-2v4h4v-4H-2z"/>
</g>
<g transform="translate(124.2307,300.5063)">
	<path fill="none" stroke="#00FF00" stroke-miterlimit="10" d="M-2-2v4h4v-4H-2z"/>
</g>
<g transform="translate(184.0878,276.9876)">
	<path fill="#00FF00" d="M-2-2v4h4v-4H-2z"/>
</g>
<g transform="translate(184.0878,276.9876)">
	<path fill="none" stroke="#00FF00" stroke-miterlimit="10" d="M-2-2v4h4v-4H-2z"/>
</g>
<g transform="translate(243.9449,221.0952)">
	<path fill="#00FF00" d="M-2-2v4h4v-4H-2z"/>
</g>
<g transform="translate(243.9449,221.0952)">
	<path fill="none" stroke="#00FF00" stroke-miterlimit="10" d="M-2-2v4h4v-4H-2z"/>
</g>
<g transform="translate(303.8021,123.3217)">
	<path fill="#00FF00" d="M-2-2v4h4v-4H-2z"/>
</g>
<g transform="translate(303.8021,123.3217)">
	<path fill="none" stroke="#00FF00" stroke-miterlimit="10" d="M-2-2v4h4v-4H-2z"/>
</g>
<g transform="translate(363.6592,104.1077)">
	<path fill="#00FF00" d="M-2-2v4h4v-4H-2z"/>
</g>
<g transform="translate(363.6592,104.1077)">
	<path fill="none" stroke="#00FF00" stroke-miterlimit="10" d="M-2-2v4h4v-4H-2z"/>
</g>
<g transform="translate(229.0507,271.6367)">
	<circle fill="#00FF00" cx="0" cy="0" r="2.667"/>
</g>
<g transform="translate(229.0507,271.6367)">
	<circle fill="none" stroke="#00FF00" stroke-miterlimit="10" cx="0" cy="0" r="2.667"/>
</g>
<g transform="translate(288.9078,99.8098)">
	<circle fill="#00FF00" cx="0" cy="0" r="2.667"/>
</g>
<g transform="translate(288.9078,99.8098)">
	<circle fill="none" stroke="#00FF00" stroke-miterlimit="10" cx="0" cy="0" r="2.667"/>
</g>
<g transform="translate(348.765,72.713)">
	<circle fill="#00FF00" cx="0" cy="0" r="2.667"/>
</g>
<g transform="translate(348.765,72.713)">
	<circle fill="none" stroke="#00FF00" stroke-miterlimit="10" cx="0" cy="0" r="2.667"/>
</g>
<g transform="translate(408.6221,79.7764)">
	<circle fill="#00FF00" cx="0" cy="0" r="2.667"/>
</g>
<g transform="translate(408.6221,79.7764)">
	<circle fill="none" stroke="#00FF00" stroke-miterlimit="10" cx="0" cy="0" r="2.667"/>
</g>
<g transform="translate(468.4793,87.6397)">
	<circle fill="#00FF00" cx="0" cy="0" r="2.667"/>
</g>
<g transform="translate(468.4793,87.6397)">
	<circle fill="none" stroke="#00FF00" stroke-miterlimit="10" cx="0" cy="0" r="2.667"/>
</g>
<g transform="translate(155.2959,303.4978)">
	<path fill="#00FF00" d="M-2.667,0L0,3.547L2.667,0L0-3.547L-2.667,0z"/>
</g>
<g transform="translate(155.2959,303.4978)">
	<path fill="none" stroke="#00FF00" stroke-miterlimit="10" d="M-2.667,0L0,3.547L2.667,0L0-3.547L-2.667,0z"/>
</g>
<g transform="translate(215.153,293.1448)">
	<path fill="#00FF00" d="M-2.667,0L0,3.547L2.667,0L0-3.547L-2.667,0z"/>
</g>
<g transform="translate(215.153,293.1448)">
	<path fill="none" stroke="#00FF00" stroke-miterlimit="10" d="M-2.667,0L0,3.547L2.667,0L0-3.547L-2.667,0z"/>
</g>
<g transform="translate(275.0102,129.4716)">
	<path fill="#00FF00" d="M-2.667,0l2.666,3.547L2.666,0l-2.667-3.547L-2.667,0z"/>
</g>
<g transform="translate(275.0102,129.4716)">
	<path fill="none" stroke="#00FF00" stroke-miterlimit="10" d="M-2.667,0l2.666,3.547L2.666,0l-2.667-3.547L-2.667,0z"/>
</g>
<g transform="translate(334.8673,91.824)">
	<path fill="#00FF00" d="M-2.667,0L0,3.547L2.667,0L0-3.547L-2.667,0z"/>
</g>
<g transform="translate(334.8673,91.824)">
	<path fill="none" stroke="#00FF00" stroke-miterlimit="10" d="M-2.667,0L0,3.547L2.667,0L0-3.547L-2.667,0z"/>
</g>
<g transform="translate(394.7244,72.5909)">
	<path fill="#00FF00" d="M-2.667,0L0,3.547L2.666,0L0-3.547L-2.667,0z"/>
</g>
<g transform="translate(394.7244,72.5909)">
	<path fill="none" stroke="#00FF00" stroke-miterlimit="10" d="M-2.667,0L0,3.547L2.666,0L0-3.547L-2.667,0z"/>
</g>
<g transform="translate(164.2605,302.6834)">
	<path fill="#00FF00" d="M0,3.555l-3.079-5.332h6.157L0,3.555z"/>
</g>
<g transform="translate(164.2605,302.6834)">
	<path fill="none" stroke="#00FF00" stroke-miterlimit="10" d="M0,3.555l-3.079-5.332h6.157L0,3.555z"/>
</g>
<g transform="translate(224.1177,263.5688)">
	<path fill="#00FF00" d="M0,3.554l-3.078-5.332h6.156L0,3.554z"/>
</g>
<g transform="translate(224.1177,263.5688)">
	<path fill="none" stroke="#00FF00" stroke-miterlimit="10" d="M0,3.554l-3.078-5.332h6.156L0,3.554z"/>
</g>
<g transform="translate(283.9748,128.0258)">
	<path fill="#00FF00" d="M-0.001,3.555l-3.078-5.332h6.156L-0.001,3.555z"/>
</g>
<g transform="translate(283.9748,128.0258)">
	<path fill="none" stroke="#00FF00" stroke-miterlimit="10" d="M-0.001,3.555l-3.078-5.332h6.156L-0.001,3.555z"/>
</g>
<g transform="translate(343.832,84.5398)">
	<path fill="#00FF00" d="M0,3.555l-3.078-5.332h6.156L0,3.555z"/>
</g>
<g transform="translate(343.832,84.5398)">
	<path fill="none" stroke="#00FF00" stroke-miterlimit="10" d="M0,3.555l-3.078-5.332h6.156L0,3.555z"/>
</g>
<g transform="translate(403.6891,83.1221)">
	<path fill="#00FF00" d="M0,3.555l-3.078-5.332h6.156L0,3.555z"/>
</g>
<g transform="translate(403.6891,83.1221)">
	<path fill="none" stroke="#00FF00" stroke-miterlimit="10" d="M0,3.555l-3.078-5.332h6.156L0,3.555z"/>
</g>
<g transform="translate(127.8311,312.4326)">
	<path fill="#00FF00" d="M0-3.555l-3.078,5.332h6.156L0-3.555z"/>
</g>
<g transform="translate(127.8311,312.4326)">
	<path fill="none" stroke="#00FF00" stroke-miterlimit="10" d="M0-3.555l-3.078,5.332h6.156L0-3.555z"/>
</g>
<g transform="translate(187.6882,313.0235)">
	<path fill="#00FF00" d="M0-3.555l-3.079,5.332h6.157L0-3.555z"/>
</g>
<g transform="translate(187.6882,313.0235)">
	<path fill="none" stroke="#00FF00" stroke-miterlimit="10" d="M0-3.555l-3.079,5.332h6.157L0-3.555z"/>
</g>
<g transform="translate(247.5454,211.0637)">
	<path fill="#00FF00" d="M0-3.555l-3.078,5.332h6.156L0-3.555z"/>
</g>
<g transform="translate(247.5454,211.0637)">
	<path fill="none" stroke="#00FF00" stroke-miterlimit="10" d="M0-3.555l-3.078,5.332h6.156L0-3.555z"/>
</g>
<g transform="translate(307.4025,82.4437)">
	<path fill="#00FF00" d="M0-3.555l-3.078,5.332h6.156L0-3.555z"/>
</g>
<g transform="translate(307.4025,82.4437)">
	<path fill="none" stroke="#00FF00" stroke-miterlimit="10" d="M0-3.555l-3.078,5.332h6.156L0-3.555z"/>
</g>
<g transform="translate(367.2597,85.117)">
	<path fill="#00FF00" d="M0-3.554l-3.078,5.332h6.156L0-3.554z"/>
</g>
<g transform="translate(367.2597,85.117)">
	<path fill="none" stroke="#00FF00" stroke-miterlimit="10" d="M0-3.554l-3.078,5.332h6.156L0-3.554z"/>
</g>
<g transform="translate(218.8942,281.5522)">
	<path d="M-2-2v4h4v-4H-2z"/>
</g>
<g transform="translate(218.8942,281.5522)">
	<path fill="none" stroke="#000000" stroke-miterlimit="10" d="M-2-2v4h4v-4H-2z"/>
</g>
<g transform="translate(278.7513,125.8401)">
	<path d="M-2-2v4h4v-4H-2z"/>
</g>
<g transform="translate(278.7513,125.8401)">
	<path fill="none" stroke="#000000" stroke-miterlimit="10" d="M-2-2v4h4v-4H-2z"/>
</g>
<g transform="translate(338.6085,87.7493)">
	<path d="M-2-2v4h4v-4H-2z"/>
</g>
<g transform="translate(338.6085,87.7493)">
	<path fill="none" stroke="#000000" stroke-miterlimit="10" d="M-2-2v4h4v-4H-2z"/>
</g>
<g transform="translate(398.4656,79.5578)">
	<path d="M-2-2v4h4v-4H-2z"/>
</g>
<g transform="translate(398.4656,79.5578)">
	<path fill="none" stroke="#000000" stroke-miterlimit="10" d="M-2-2v4h4v-4H-2z"/>
</g>
<g transform="translate(458.3228,76.4136)">
	<path d="M-2.001-2v4h4v-4H-2.001z"/>
</g>
<g transform="translate(458.3228,76.4136)">
	<path fill="none" stroke="#000000" stroke-miterlimit="10" d="M-2.001-2v4h4v-4H-2.001z"/>
</g>
<g transform="translate(134.3568,322.9425)">
	<circle cx="0" cy="0" r="2.667"/>
</g>
<g transform="translate(134.3568,322.9425)">
	<circle fill="none" stroke="#000000" stroke-miterlimit="10" cx="0" cy="0" r="2.667"/>
</g>
<g transform="translate(194.2139,341.4272)">
	<circle cx="0" cy="0" r="2.667"/>
</g>
<g transform="translate(194.2139,341.4272)">
	<circle fill="none" stroke="#000000" stroke-miterlimit="10" cx="0" cy="0" r="2.667"/>
</g>
<g transform="translate(254.0711,158.5119)">
	<circle cx="0" cy="0" r="2.667"/>
</g>
<g transform="translate(254.0711,158.5119)">
	<circle fill="none" stroke="#000000" stroke-miterlimit="10" cx="0" cy="0" r="2.667"/>
</g>
<g transform="translate(313.9282,80.1247)">
	<circle cx="-0.001" cy="0" r="2.667"/>
</g>
<g transform="translate(313.9282,80.1247)">
	<circle fill="none" stroke="#000000" stroke-miterlimit="10" cx="-0.001" cy="0" r="2.667"/>
</g>
<g transform="translate(373.7854,79.8806)">
	<circle cx="0" cy="0" r="2.667"/>
</g>
<g transform="translate(373.7854,79.8806)">
	<circle fill="none" stroke="#000000" stroke-miterlimit="10" cx="0" cy="0" r="2.667"/>
</g>
<g transform="translate(139.5668,304.6462)">
	<path d="M-2.667,0L0,3.547L2.666,0L0-3.547L-2.667,0z"/>
</g>
<g transform="translate(139.5668,304.6462)">
	<path fill="none" stroke="#000000" stroke-miterlimit="10" d="M-2.667,0L0,3.547L2.666,0L0-3.547L-2.667,0z"/>
</g>
<g transform="translate(199.4239,285.873)">
	<path d="M-2.667,0L0,3.547L2.667,0L0-3.547L-2.667,0z"/>
</g>
<g transform="translate(199.4239,285.873)">
	<path fill="none" stroke="#000000" stroke-miterlimit="10" d="M-2.667,0L0,3.547L2.667,0L0-3.547L-2.667,0z"/>
</g>
<g transform="translate(259.2811,190.291)">
	<path d="M-2.667,0L0,3.547L2.666,0L0-3.547L-2.667,0z"/>
</g>
<g transform="translate(259.2811,190.291)">
	<path fill="none" stroke="#000000" stroke-miterlimit="10" d="M-2.667,0L0,3.547L2.666,0L0-3.547L-2.667,0z"/>
</g>
<g transform="translate(319.1382,76.9125)">
	<path d="M-2.667,0L0,3.547L2.666,0L0-3.547L-2.667,0z"/>
</g>
<g transform="translate(319.1382,76.9125)">
	<path fill="none" stroke="#000000" stroke-miterlimit="10" d="M-2.667,0L0,3.547L2.666,0L0-3.547L-2.667,0z"/>
</g>
<g transform="translate(378.9954,97.7537)">
	<path d="M-2.667,0L0,3.547L2.667,0L0-3.547L-2.667,0z"/>
</g>
<g transform="translate(378.9954,97.7537)">
	<path fill="none" stroke="#000000" stroke-miterlimit="10" d="M-2.667,0L0,3.547L2.667,0L0-3.547L-2.667,0z"/>
</g>
<g transform="translate(130.3283,315.1935)">
	<path d="M0,3.555l-3.078-5.332h6.156L0,3.555z"/>
</g>
<g transform="translate(130.3283,315.1935)">
	<path fill="none" stroke="#000000" stroke-miterlimit="10" d="M0,3.555l-3.078-5.332h6.156L0,3.555z"/>
</g>
<g transform="translate(190.1854,310.2506)">
	<path d="M0,3.555l-3.078-5.332h6.156L0,3.555z"/>
</g>
<g transform="translate(190.1854,310.2506)">
	<path fill="none" stroke="#000000" stroke-miterlimit="10" d="M0,3.555l-3.078-5.332h6.156L0,3.555z"/>
</g>
<g transform="translate(250.0426,202.6496)">
	<path d="M0,3.554l-3.078-5.332h6.157L0,3.554z"/>
</g>
<g transform="translate(250.0426,202.6496)">
	<path fill="none" stroke="#000000" stroke-miterlimit="10" d="M0,3.554l-3.078-5.332h6.157L0,3.554z"/>
</g>
<g transform="translate(309.8997,77.3827)">
	<path d="M0,3.555l-3.078-5.332h6.157L0,3.555z"/>
</g>
<g transform="translate(309.8997,77.3827)">
	<path fill="none" stroke="#000000" stroke-miterlimit="10" d="M0,3.555l-3.078-5.332h6.157L0,3.555z"/>
</g>
<g transform="translate(369.7569,88.5414)">
	<path d="M0,3.555l-3.078-5.332h6.156L0,3.555z"/>
</g>
<g transform="translate(369.7569,88.5414)">
	<path fill="none" stroke="#000000" stroke-miterlimit="10" d="M0,3.555l-3.078-5.332h6.156L0,3.555z"/>
</g>
<g transform="translate(102.6701,319.1641)">
	<path d="M0-3.555l-3.078,5.332h6.156L0-3.555z"/>
</g>
<g transform="translate(102.6701,319.1641)">
	<path fill="none" stroke="#000000" stroke-miterlimit="10" d="M0-3.555l-3.078,5.332h6.156L0-3.555z"/>
</g>
<g transform="translate(162.5272,316.6915)">
	<path d="M0-3.555l-3.078,5.332h6.156L0-3.555z"/>
</g>
<g transform="translate(162.5272,316.6915)">
	<path fill="none" stroke="#000000" stroke-miterlimit="10" d="M0-3.555l-3.078,5.332h6.156L0-3.555z"/>
</g>
<g transform="translate(222.3844,275.5905)">
	<path d="M0-3.554l-3.078,5.332h6.157L0-3.554z"/>
</g>
<g transform="translate(222.3844,275.5905)">
	<path fill="none" stroke="#000000" stroke-miterlimit="10" d="M0-3.554l-3.078,5.332h6.157L0-3.554z"/>
</g>
<g transform="translate(282.2415,119.679)">
	<path d="M0-3.555l-3.078,5.332h6.157L0-3.555z"/>
</g>
<g transform="translate(282.2415,119.679)">
	<path fill="none" stroke="#000000" stroke-miterlimit="10" d="M0-3.555l-3.078,5.332h6.157L0-3.555z"/>
</g>
<g transform="translate(342.0986,82.8095)">
	<path d="M0-3.555l-3.078,5.332h6.156L0-3.555z"/>
</g>
<g transform="translate(342.0986,82.8095)">
	<path fill="none" stroke="#000000" stroke-miterlimit="10" d="M0-3.555l-3.078,5.332h6.156L0-3.555z"/>
</g>
<g transform="translate(133.7773,320.725)">
	<path fill="#FF00FF" d="M-2-2v4h4v-4H-2z"/>
</g>
<g transform="translate(133.7773,320.725)">
	<path fill="none" stroke="#FF00FF" stroke-miterlimit="10" d="M-2-2v4h4v-4H-2z"/>
</g>
<g transform="translate(193.6344,292.7116)">
	<path fill="#FF00FF" d="M-2-2v4h4v-4H-2z"/>
</g>
<g transform="translate(193.6344,292.7116)">
	<path fill="none" stroke="#FF00FF" stroke-miterlimit="10" d="M-2-2v4h4v-4H-2z"/>
</g>
<g transform="translate(253.4916,198.9334)">
	<path fill="#FF00FF" d="M-2-2v4h4v-4H-2z"/>
</g>
<g transform="translate(253.4916,198.9334)">
	<path fill="none" stroke="#FF00FF" stroke-miterlimit="10" d="M-2-2v4h4v-4H-2z"/>
</g>
<g transform="translate(313.3487,88.0906)">
	<path fill="#FF00FF" d="M-2-2v4h4v-4H-2z"/>
</g>
<g transform="translate(313.3487,88.0906)">
	<path fill="none" stroke="#FF00FF" stroke-miterlimit="10" d="M-2-2v4h4v-4H-2z"/>
</g>
<g transform="translate(373.2059,90.1671)">
	<path fill="#FF00FF" d="M-2-2v4h4v-4H-2z"/>
</g>
<g transform="translate(373.2059,90.1671)">
	<path fill="none" stroke="#FF00FF" stroke-miterlimit="10" d="M-2-2v4h4v-4H-2z"/>
</g>
<g transform="translate(185.5323,319.7956)">
	<circle fill="#FF00FF" cx="0" cy="0" r="2.667"/>
</g>
<g transform="translate(185.5323,319.7956)">
	<circle fill="none" stroke="#FF00FF" stroke-miterlimit="10" cx="0" cy="0" r="2.667"/>
</g>
<g transform="translate(245.3894,243.6381)">
	<circle fill="#FF00FF" cx="0" cy="0" r="2.667"/>
</g>
<g transform="translate(245.3894,243.6381)">
	<circle fill="none" stroke="#FF00FF" stroke-miterlimit="10" cx="0" cy="0" r="2.667"/>
</g>
<g transform="translate(305.2466,69.4704)">
	<circle fill="#FF00FF" cx="-0.001" cy="0" r="2.667"/>
</g>
<g transform="translate(305.2466,69.4704)">
	<circle fill="none" stroke="#FF00FF" stroke-miterlimit="10" cx="-0.001" cy="0" r="2.667"/>
</g>
<g transform="translate(365.1037,68.1351)">
	<circle fill="#FF00FF" cx="0" cy="0" r="2.667"/>
</g>
<g transform="translate(365.1037,68.1351)">
	<circle fill="none" stroke="#FF00FF" stroke-miterlimit="10" cx="0" cy="0" r="2.667"/>
</g>
<g transform="translate(424.9608,102.3122)">
	<circle fill="#FF00FF" cx="0" cy="0" r="2.667"/>
</g>
<g transform="translate(424.9608,102.3122)">
	<circle fill="none" stroke="#FF00FF" stroke-miterlimit="10" cx="0" cy="0" r="2.667"/>
</g>
<g transform="translate(155.1088,318.3493)">
	<path fill="#FF00FF" d="M-2.667,0L0,3.547L2.667,0L0-3.547L-2.667,0z"/>
</g>
<g transform="translate(155.1088,318.3493)">
	<path fill="none" stroke="#FF00FF" stroke-miterlimit="10" d="M-2.667,0L0,3.547L2.667,0L0-3.547L-2.667,0z"/>
</g>
<g transform="translate(214.9659,289.7235)">
	<path fill="#FF00FF" d="M-2.667,0L0,3.547L2.667,0L0-3.547L-2.667,0z"/>
</g>
<g transform="translate(214.9659,289.7235)">
	<path fill="none" stroke="#FF00FF" stroke-miterlimit="10" d="M-2.667,0L0,3.547L2.667,0L0-3.547L-2.667,0z"/>
</g>
<g transform="translate(274.8231,133.4008)">
	<path fill="#FF00FF" d="M-2.667,0L0,3.547L2.667,0L0-3.547L-2.667,0z"/>
</g>
<g transform="translate(274.8231,133.4008)">
	<path fill="none" stroke="#FF00FF" stroke-miterlimit="10" d="M-2.667,0L0,3.547L2.667,0L0-3.547L-2.667,0z"/>
</g>
<g transform="translate(334.6802,69.3969)">
	<path fill="#FF00FF" d="M-2.667,0l2.666,3.546L2.666,0l-2.667-3.547L-2.667,0z"/>
</g>
<g transform="translate(334.6802,69.3969)">
	<path fill="none" stroke="#FF00FF" stroke-miterlimit="10" d="M-2.667,0l2.666,3.546L2.666,0l-2.667-3.547L-2.667,0z"/>
</g>
<g transform="translate(394.5373,92.3769)">
	<path fill="#FF00FF" d="M-2.667,0L0,3.547L2.667,0L0-3.547L-2.667,0z"/>
</g>
<g transform="translate(394.5373,92.3769)">
	<path fill="none" stroke="#FF00FF" stroke-miterlimit="10" d="M-2.667,0L0,3.547L2.667,0L0-3.547L-2.667,0z"/>
</g>
<g transform="translate(165.0609,293.7514)">
	<path fill="#FF00FF" d="M0,3.555l-3.079-5.332h6.157L0,3.555z"/>
</g>
<g transform="translate(165.0609,293.7514)">
	<path fill="none" stroke="#FF00FF" stroke-miterlimit="10" d="M0,3.555l-3.079-5.332h6.157L0,3.555z"/>
</g>
<g transform="translate(224.918,256.426)">
	<path fill="#FF00FF" d="M0,3.554l-3.078-5.332h6.156L0,3.554z"/>
</g>
<g transform="translate(224.918,256.426)">
	<path fill="none" stroke="#FF00FF" stroke-miterlimit="10" d="M0,3.554l-3.078-5.332h6.156L0,3.554z"/>
</g>
<g transform="translate(284.7751,137.8808)">
	<path fill="#FF00FF" d="M0,3.555l-3.078-5.332h6.156L0,3.555z"/>
</g>
<g transform="translate(284.7751,137.8808)">
	<path fill="none" stroke="#FF00FF" stroke-miterlimit="10" d="M0,3.555l-3.078-5.332h6.156L0,3.555z"/>
</g>
<g transform="translate(344.6323,78.7907)">
	<path fill="#FF00FF" d="M0,3.555l-3.078-5.332h6.156L0,3.555z"/>
</g>
<g transform="translate(344.6323,78.7907)">
	<path fill="none" stroke="#FF00FF" stroke-miterlimit="10" d="M0,3.555l-3.078-5.332h6.156L0,3.555z"/>
</g>
<g transform="translate(404.4894,92.3936)">
	<path fill="#FF00FF" d="M0,3.555l-3.078-5.332h6.156L0,3.555z"/>
</g>
<g transform="translate(404.4894,92.3936)">
	<path fill="none" stroke="#FF00FF" stroke-miterlimit="10" d="M0,3.555l-3.078-5.332h6.156L0,3.555z"/>
</g>
<g transform="translate(173.4688,311.0015)">
	<path fill="#FF00FF" d="M0-3.554l-3.078,5.332h6.156L0-3.554z"/>
</g>
<g transform="translate(173.4688,311.0015)">
	<path fill="none" stroke="#FF00FF" stroke-miterlimit="10" d="M0-3.554l-3.078,5.332h6.156L0-3.554z"/>
</g>
<g transform="translate(233.3259,309.7753)">
	<path fill="#FF00FF" d="M0-3.555l-3.079,5.332h6.157L0-3.555z"/>
</g>
<g transform="translate(233.3259,309.7753)">
	<path fill="none" stroke="#FF00FF" stroke-miterlimit="10" d="M0-3.555l-3.079,5.332h6.157L0-3.555z"/>
</g>
<g transform="translate(293.183,80.0543)">
	<path fill="#FF00FF" d="M0-3.555l-3.079,5.332h6.157L0-3.555z"/>
</g>
<g transform="translate(293.183,80.0543)">
	<path fill="none" stroke="#FF00FF" stroke-miterlimit="10" d="M0-3.555l-3.079,5.332h6.157L0-3.555z"/>
</g>
<g transform="translate(353.0402,80.0543)">
	<path fill="#FF00FF" d="M0-3.555l-3.078,5.332h6.156L0-3.555z"/>
</g>
<g transform="translate(353.0402,80.0543)">
	<path fill="none" stroke="#FF00FF" stroke-miterlimit="10" d="M0-3.555l-3.078,5.332h6.156L0-3.555z"/>
</g>
<g transform="translate(412.8973,80.0543)">
	<path fill="#FF00FF" d="M0-3.555l-3.078,5.332h6.156L0-3.555z"/>
</g>
<g transform="translate(412.8973,80.0543)">
	<path fill="none" stroke="#FF00FF" stroke-miterlimit="10" d="M0-3.555l-3.078,5.332h6.156L0-3.555z"/>
</g>
<g>
	<path fill="none" stroke="#000000" stroke-width="1.5" stroke-linejoin="round" stroke-miterlimit="10" d="M70,324.973h0.419
		l0.419-0.001h0.419l0.419-0.001l0.419-0.001h0.419l0.419-0.001l0.419-0.001h0.419l0.419-0.001l0.419-0.001l0.419-0.001h0.419
		l0.419-0.001l0.419-0.001l0.419-0.001l0.419-0.001h0.419l0.419-0.001l0.419-0.001l0.419-0.001l0.419-0.001l0.419-0.001l0.419-0.001
		l0.419-0.001l0.419-0.001l0.419-0.001l0.419-0.001l0.419-0.001l0.419-0.001l0.419-0.001l0.419-0.001l0.419-0.002l0.419-0.001
		l0.419-0.001l0.419-0.001l0.419-0.001l0.419-0.002l0.419-0.001l0.419-0.001l0.419-0.002l0.419-0.001l0.419-0.002l0.419-0.001
		l0.419-0.002l0.419-0.001l0.419-0.002l0.419-0.001l0.419-0.002l0.419-0.002l0.419-0.002l0.419-0.001l0.419-0.002l0.419-0.002
		l0.419-0.002l0.419-0.002l0.419-0.002l0.419-0.002l0.419-0.002l0.419-0.002l0.419-0.002l0.419-0.002l0.419-0.002l0.419-0.003
		l0.419-0.002l0.419-0.002l0.419-0.003l0.419-0.002l0.419-0.003l0.419-0.002l0.419-0.003l0.419-0.003l0.419-0.002l0.419-0.003
		l0.419-0.003l0.419-0.003l0.419-0.003l0.419-0.003l0.419-0.003l0.419-0.003l0.419-0.003l0.419-0.004l0.419-0.003l0.419-0.003
		l0.419-0.004l0.419-0.004l0.419-0.003l0.419-0.004l0.419-0.004l0.419-0.004l0.419-0.004l0.419-0.004l0.419-0.004l0.419-0.004
		l0.419-0.005l0.419-0.004l0.419-0.005l0.419-0.005l0.419-0.004l0.419-0.005l0.419-0.005l0.419-0.005l0.419-0.005l0.419-0.006
		l0.419-0.005l0.419-0.005l0.419-0.006l0.419-0.006l0.419-0.006l0.419-0.006l0.419-0.006l0.419-0.006l0.419-0.007l0.419-0.006
		l0.419-0.007l0.419-0.007l0.419-0.007l0.419-0.007l0.419-0.007l0.419-0.008l0.419-0.007l0.419-0.008l0.419-0.008l0.419-0.008
		l0.419-0.008l0.419-0.009l0.419-0.008l0.419-0.009l0.419-0.009l0.419-0.009l0.419-0.009l0.419-0.01l0.419-0.01l0.419-0.01
		l0.419-0.01l0.419-0.01l0.419-0.011l0.419-0.011l0.419-0.011l0.419-0.011l0.419-0.012l0.419-0.012l0.419-0.012l0.419-0.012
		l0.419-0.013l0.419-0.013l0.419-0.013l0.419-0.013l0.419-0.014l0.419-0.014l0.419-0.014l0.419-0.015l0.419-0.015l0.419-0.015
		l0.419-0.016l0.419-0.016l0.419-0.016l0.419-0.017l0.419-0.017l0.419-0.017l0.419-0.018l0.419-0.018l0.419-0.018l0.419-0.019
		l0.419-0.019l0.419-0.02l0.419-0.02l0.419-0.021l0.419-0.021l0.419-0.021l0.419-0.021l0.419-0.021l0.419-0.022l0.419-0.022
		l0.419-0.023l0.419-0.023l0.419-0.024l0.419-0.025l0.419-0.025l0.419-0.025l0.419-0.026l0.419-0.026l0.419-0.027l0.419-0.028
		l0.419-0.029l0.419-0.028l0.419-0.03l0.419-0.03l0.419-0.031l0.419-0.032l0.419-0.032l0.419-0.033l0.419-0.034l0.419-0.034
		l0.419-0.036l0.419-0.036l0.419-0.037l0.419-0.037l0.419-0.039l0.419-0.039l0.419-0.04l0.419-0.041l0.419-0.042l0.419-0.042
		l0.419-0.044l0.419-0.045l0.419-0.045l0.419-0.047l0.419-0.047l0.419-0.049l0.419-0.049l0.419-0.051l0.419-0.052l0.419-0.053
		l0.419-0.054l0.419-0.055l0.419-0.057l0.419-0.057l0.419-0.059l0.419-0.06l0.419-0.061l0.419-0.063l0.419-0.063l0.419-0.064
		l0.419-0.066l0.419-0.067l0.419-0.069l0.419-0.07l0.419-0.071l0.419-0.073l0.419-0.075l0.419-0.077l0.419-0.077l0.419-0.08
		l0.419-0.081l0.419-0.083l0.419-0.085l0.419-0.087l0.419-0.088l0.419-0.09l0.419-0.093l0.419-0.094l0.419-0.096l0.419-0.098
		l0.419-0.1l0.419-0.103l0.419-0.104l0.419-0.106l0.419-0.108l0.419-0.11l0.419-0.113l0.419-0.115l0.419-0.117l0.419-0.12
		l0.419-0.122l0.419-0.125l0.419-0.127l0.419-0.131l0.419-0.133l0.419-0.135l0.419-0.139l0.419-0.141l0.419-0.144l0.419-0.147
		l0.419-0.149l0.419-0.152l0.419-0.156l0.419-0.159l0.419-0.162l0.419-0.165l0.419-0.169l0.419-0.172l0.419-0.176l0.419-0.179
		l0.419-0.183l0.419-0.186l0.419-0.19l0.419-0.193l0.419-0.198l0.419-0.201l0.419-0.205l0.419-0.21l0.419-0.214l0.419-0.217
		l0.419-0.223l0.419-0.227l0.419-0.23l0.419-0.235l0.419-0.239l0.419-0.245l0.419-0.249l0.419-0.254l0.419-0.259l0.419-0.265
		l0.419-0.269l0.419-0.274l0.419-0.279l0.419-0.284l0.419-0.29l0.419-0.296l0.419-0.301l0.419-0.307l0.419-0.313l0.419-0.318
		l0.419-0.324l0.419-0.33l0.419-0.337l0.419-0.342l0.419-0.35l0.419-0.355l0.419-0.361l0.419-0.368l0.419-0.376l0.419-0.381
		l0.419-0.389l0.419-0.396l0.419-0.402l0.419-0.41l0.419-0.417l0.419-0.425l0.419-0.432l0.419-0.439l0.419-0.447l0.419-0.455
		l0.419-0.463l0.419-0.471l0.419-0.479l0.419-0.487l0.419-0.495l0.419-0.503l0.419-0.512l0.419-0.521l0.419-0.529l0.419-0.537
		l0.419-0.547l0.419-0.557l0.419-0.564l0.419-0.573l0.419-0.583l0.419-0.592l0.419-0.602l0.419-0.611l0.419-0.621l0.419-0.629
		l0.419-0.641l0.419-0.648l0.419-0.66l0.419-0.669l0.419-0.679l0.419-0.689l0.419-0.699l0.419-0.709l0.419-0.721l0.419-0.729
		l0.419-0.74l0.419-0.751l0.419-0.761l0.419-0.771l0.419-0.782l0.419-0.792l0.419-0.803l0.419-0.813l0.419-0.824l0.419-0.836
		l0.419-0.845l0.419-0.856l0.419-0.867l0.419-0.877l0.419-0.889l0.419-0.898l0.419-0.91l0.419-0.92l0.419-0.931l0.419-0.941
		l0.419-0.952l0.419-0.962l0.419-0.973l0.419-0.983l0.419-0.993l0.419-1.004l0.419-1.014l0.419-1.024l0.419-1.033l0.419-1.045
		l0.419-1.053l0.419-1.064l0.419-1.073l0.419-1.083l0.419-1.092l0.419-1.102l0.419-1.11l0.419-1.12l0.419-1.128l0.419-1.138
		l0.419-1.145l0.419-1.154l0.419-1.162l0.419-1.171l0.419-1.179l0.419-1.186l0.419-1.193l0.419-1.2l0.419-1.208l0.419-1.214
		l0.419-1.222l0.419-1.227l0.419-1.234l0.419-1.239l0.419-1.245l0.419-1.251l0.419-1.256l0.419-1.261l0.419-1.266l0.419-1.27
		l0.419-1.274l0.419-1.278l0.419-1.281l0.419-1.285l0.419-1.287l0.419-1.291l0.419-1.293l0.419-1.296l0.419-1.298l0.419-1.299
		l0.419-1.3l0.419-1.301l0.419-1.303l0.419-1.302l0.419-1.303l0.419-1.303l0.419-1.302l0.419-1.301l0.419-1.301l0.419-1.299
		l0.419-1.297l0.419-1.296l0.419-1.294l0.419-1.291l0.419-1.288l0.419-1.286l0.419-1.282l0.419-1.279l0.419-1.275l0.419-1.271
		l0.419-1.266l0.419-1.261l0.419-1.257l0.419-1.251l0.419-1.246l0.419-1.241l0.419-1.234l0.419-1.228l0.419-1.222l0.419-1.215
		l0.419-1.209l0.419-1.201l0.419-1.194l0.419-1.187l0.419-1.179l0.419-1.172l0.419-1.163l0.419-1.155l0.419-1.147l0.419-1.138
		l0.419-1.13l0.419-1.121l0.419-1.111l0.419-1.103l0.419-1.093l0.419-1.084l0.419-1.075l0.419-1.065l0.419-1.055l0.419-1.045
		l0.419-1.036l0.419-1.025l0.419-1.015l0.419-1.005l0.419-0.995l0.419-0.984l0.419-0.974l0.419-0.964l0.419-0.953l0.419-0.943
		l0.419-0.932l0.419-0.922l0.419-0.911l0.419-0.901l0.419-0.89l0.42-0.879l0.418-0.869l0.42-0.857l0.418-0.847l0.42-0.836
		l0.419-0.826l0.419-0.815l0.419-0.804l0.419-0.794l0.419-0.784l0.419-0.773l0.419-0.763l0.419-0.752l0.419-0.742l0.419-0.731
		l0.419-0.721l0.419-0.71l0.42-0.701l0.418-0.691l0.42-0.68l0.418-0.671l0.42-0.661l0.419-0.651l0.419-0.641l0.419-0.631
		l0.419-0.622l0.419-0.612l0.419-0.603l0.419-0.594l0.419-0.584l0.419-0.575l0.419-0.566l0.419-0.557l0.419-0.548l0.42-0.539
		l0.418-0.531l0.42-0.521l0.418-0.513l0.42-0.505l0.418-0.497l0.42-0.488l0.419-0.48l0.419-0.472l0.419-0.464l0.419-0.456
		l0.419-0.449l0.419-0.44l0.419-0.433l0.419-0.425l0.419-0.418l0.419-0.411l0.419-0.404l0.419-0.396l0.42-0.39l0.418-0.383
		l0.42-0.376l0.418-0.37l0.42-0.363l0.419-0.356l0.419-0.35l0.419-0.343l0.419-0.337l0.419-0.331l0.419-0.325l0.419-0.319
		l0.419-0.313l0.419-0.308l0.419-0.302l0.419-0.296l0.419-0.291l0.42-0.285l0.418-0.28l0.42-0.274l0.418-0.27l0.42-0.265
		l0.418-0.259l0.42-0.255l0.419-0.25l0.419-0.245l0.419-0.24l0.419-0.236l0.419-0.231l0.419-0.227l0.419-0.222l0.419-0.219
		l0.419-0.214l0.419-0.21l0.419-0.206l0.419-0.202l0.42-0.198l0.418-0.194l0.42-0.19l0.418-0.187l0.42-0.183l0.419-0.18l0.419-0.176
		l0.419-0.172l0.419-0.169l0.419-0.166l0.419-0.163l0.419-0.159l0.419-0.156l0.419-0.153l0.419-0.15l0.419-0.147l0.419-0.144
		l0.42-0.142l0.418-0.139l0.42-0.136l0.418-0.133l0.42-0.13l0.418-0.128l0.42-0.125l0.419-0.123l0.419-0.12l0.419-0.118l0.419-0.116
		l0.419-0.113l0.419-0.111l0.419-0.109l0.419-0.106l0.419-0.104l0.419-0.103l0.419-0.1l0.419-0.098l0.42-0.096l0.418-0.095
		l0.42-0.092l0.418-0.091l0.42-0.088l0.419-0.087l0.419-0.085l0.419-0.083l0.419-0.081l0.419-0.08l0.419-0.078l0.419-0.077
		l0.419-0.075l0.419-0.074l0.419-0.072l0.419-0.07l0.419-0.069l0.42-0.067l0.418-0.066l0.42-0.065l0.418-0.063l0.42-0.063
		l0.419-0.061l0.419-0.06l0.419-0.059l0.419-0.057l0.419-0.057l0.419-0.055l0.419-0.054l0.419-0.053l0.419-0.051l0.419-0.051
		l0.419-0.05l0.419-0.048l0.42-0.048l0.418-0.046l0.42-0.046l0.418-0.044l0.42-0.044l0.418-0.042l0.42-0.042l0.419-0.041
		l0.419-0.041l0.419-0.04l0.419-0.038l0.419-0.038l0.419-0.037l0.419-0.036l0.419-0.036l0.419-0.035l0.419-0.034l0.419-0.034
		l0.419-0.032l0.42-0.032l0.418-0.031l0.42-0.03l0.418-0.03l0.42-0.029l0.419-0.029l0.419-0.028l0.419-0.027l0.419-0.027
		l0.419-0.027l0.419-0.026l0.419-0.025l0.419-0.024l0.419-0.024l0.419-0.024l0.419-0.023l0.419-0.023l0.42-0.022l0.418-0.022
		l0.42-0.021l0.418-0.021l0.42-0.021l0.418-0.02l0.42-0.02l0.419-0.02l0.419-0.019l0.419-0.019l0.419-0.018l0.419-0.018l0.419-0.018
		l0.419-0.017l0.419-0.017l0.419-0.016l0.419-0.016l0.419-0.016l0.419-0.015l0.42-0.015l0.418-0.015l0.42-0.014l0.418-0.014
		l0.42-0.014l0.419-0.013l0.419-0.013l0.419-0.013l0.419-0.012l0.419-0.013l0.419-0.012l0.419-0.012l0.419-0.012l0.419-0.011
		l0.419-0.011l0.419-0.011l0.419-0.011l0.42-0.01l0.418-0.01l0.42-0.01l0.418-0.01l0.42-0.009l0.418-0.009l0.42-0.009l0.419-0.009
		l0.419-0.009l0.419-0.008l0.419-0.009l0.419-0.008l0.419-0.008l0.419-0.008l0.419-0.008l0.419-0.008l0.419-0.007l0.419-0.007
		l0.419-0.007l0.42-0.007l0.418-0.007l0.42-0.006l0.418-0.007l0.42-0.006l0.419-0.006l0.419-0.006l0.419-0.006l0.419-0.006
		l0.419-0.005l0.419-0.006l0.419-0.006l0.419-0.005l0.419-0.006l0.419-0.005l0.419-0.005l0.419-0.005l0.42-0.005l0.418-0.005
		l0.42-0.005l0.418-0.004l0.42-0.004l0.419-0.004l0.419-0.004l0.419-0.004l0.419-0.004l0.419-0.004l0.419-0.004l0.419-0.004
		l0.419-0.004l0.419-0.003l0.419-0.004l0.419-0.003l0.419-0.003l0.42-0.003l0.418-0.003l0.42-0.003l0.418-0.003l0.42-0.003
		l0.419-0.003l0.419-0.003l0.419-0.003l0.419-0.003l0.419-0.002l0.419-0.003l0.419-0.002l0.419-0.003l0.419-0.002l0.419-0.002
		l0.419-0.002l0.419-0.002l0.419-0.002l0.419-0.002l0.419-0.002l0.419-0.002l0.42-0.002l0.418-0.002l0.42-0.002l0.419-0.002
		l0.419-0.002l0.419-0.002l0.419-0.002l0.419-0.002l0.419-0.002l0.419-0.002l0.419-0.001l0.419-0.001l0.419-0.002l0.419-0.001
		l0.419-0.001l0.419-0.002l0.419-0.001l0.42-0.001l0.418-0.001l0.42-0.001l0.419-0.001l0.419-0.001l0.419-0.001l0.419-0.001
		l0.419-0.001l0.419-0.001l0.419-0.001l0.419-0.001l0.419-0.001l0.419-0.001l0.419-0.001l0.419-0.001l0.419-0.001l0.419-0.001
		l0.42-0.001l0.418-0.001l0.42-0.001l0.419-0.001l0.419-0.001l0.419-0.001l0.419-0.001l0.419-0.001l0.419-0.001l0.419,0l0.419-0.001
		l0.419,0l0.419-0.001l0.419-0.001l0.419-0.001l0.419,0l0.419-0.001l0.419,0l0.419-0.001l0.42,0l0.418,0l0.42-0.001l0.419,0l0.419,0
		l0.419-0.001l0.419,0l0.419,0l0.419-0.001l0.419,0l0.419,0l0.419,0l0.419,0l0.419,0l0.419,0l0.419,0l0.419,0l0.42,0l0.418,0l0.42,0
		l0.418,0l0.42,0l0.419,0l0.419,0l0.419,0l0.419,0l0.419,0h0.419l0.419,0l0.419,0h0.419l0.419-0.001h0.419l0.419,0l0.42,0h0.418
		l0.42,0l0.418,0h0.42l0.419,0h0.419l0.419,0h0.419l0.419,0l0.419,0h0.419l0.419,0l0.419,0h0.419h0.419l0.419,0h0.419l0.419,0h0.42
		l0.418,0h0.42l0.418,0h0.42h0.419l0.419,0h0.419l0.419,0h0.419h0.419l0.419,0h0.419l0.419,0h0.419h0.419l0.419,0h0.42h0.418l0.42,0
		h0.418h0.42h0.419l0.419,0h0.419h0.419l0.419,0h0.419h0.419h0.419h0.419l0.419,0h0.419h0.419l0.42,0h0.418h0.42h0.418h0.42h0.418
		l0.42,0h0.419h0.419l0.419,0h0.419h0.419h0.419h0.419h0.419h0.419h0.419h0.419l0.419,0h0.42h0.418h0.42l0.418,0h0.42h0.419h0.419
		h0.419h0.419h0.419h0.419h0.419h0.419l0.419,0h0.419h0.419h0.419h0.42h0.418h0.42l0.418,0h0.42h0.419h0.419h0.419h0.419h0.419
		h0.419h0.419h0.419h0.419h0.419h0.419h0.419h0.419l0.419,0h0.42h0.418h0.42h0.418h0.42h0.419h0.419h0.419h0.419h0.419H489"/>
</g>
</svg>
